g Box_Geo05_mBox_stoneBlue
v -0.01374051 0.05806466 -0.008282708
v -0.02735339 0.05806466 -0.008282709
v -0.01373907 0.05974817 -0.006977593
v -0.02770925 0.05974817 -0.006941312
v -0.0294226 0.05806466 -0.006947644
v -0.0299543 0.05440344 -0.006947644
v -0.02770184 0.05440355 -0.008283282
v -0.0137402 0.05440351 -0.008283284
v -0.01374051 0.05806466 0.008282993
v -0.02735339 0.05806466 0.008282993
v -0.01373907 0.05974817 0.006979596
v -0.02770925 0.05974817 0.006942059
v -0.0294226 0.05806466 0.00695072
v -0.02995431 0.05440344 0.006950722
v -0.02770184 0.05440355 0.008282993
v -0.0137402 0.05440351 0.008282993
v -0.02770085 0.02193783 -0.008291712
v -0.02770084 0.02193783 0.00829171
v -0.02995431 0.02193652 0.006950722
v -0.0299543 0.02193652 -0.006947644
v -0.01374051 0.05806466 -0.008282708
v -0.01373907 0.05974817 -0.006977593
v -0.02735339 0.05806466 -0.008282709
v -0.01373907 0.05974817 0.006979596
v -0.0137402 0.05440351 -0.008283284
v -0.02770184 0.05440355 -0.008283282
v -0.02735339 0.05806466 -0.008282709
v -0.01374051 0.05806466 0.008282993
v -0.02735339 0.05806466 0.008282993
v -0.0137402 0.05440351 0.008282993
v -0.02735339 0.05806466 0.008282993
v -0.02770184 0.05440355 0.008282993
v -0.0137402 0.05440351 0.008282993
v -0.0137402 0.05440351 -0.008283284
v -0.02770184 0.05440355 -0.008283282
v -0.02770184 0.05440355 0.008282993
v -0.02770184 0.05440355 -0.008283282
v -0.02770085 0.02193783 -0.008291712
v -0.02770084 0.02193783 0.00829171
v -0.02770184 0.05440355 0.008282993
v -0.02770084 0.02193783 0.00829171
v -0.02995431 0.02193652 0.006950722
v -0.0299543 0.02193652 -0.006947644
v -0.02770085 0.02193783 -0.008291712
vt 0.4696485 0.517748
vt 0.4696206 0.6378743
vt 0.4508415 0.5177115
vt 0.4506394 0.6409938
vt 0.4508023 0.6622018
vt 0.4501352 0.6946181
vt 0.5019157 0.6409866
vt 0.4623679 0.4705555
vt 0.3160568 0.5028139
vt 0.3087449 0.6377952
vt 0.3275571 0.5176708
vt 0.3277223 0.6409176
vt 0.3275307 0.6620977
vt 0.3282794 0.6947058
vt 0.2764487 0.6408972
vt 0.3160692 0.470511
vt 0.3112046 0.9566458
vt 0.4662574 0.9566459
vt 0.4537193 0.9777156
vt 0.3237716 0.9777156
vt 0.4623628 0.5028598
vt 0.4508415 0.5177115
vt 0.4681182 0.649159
vt 0.3275571 0.5176708
vt 0.5019596 0.5177845
vt 0.4731774 0.6937731
vt 0.4727171 0.660788
vt 0.3087594 0.5176976
vt 0.3102406 0.6490598
vt 0.2764481 0.5177209
vt 0.3056101 0.6608514
vt 0.3052887 0.6939753
vt 0.466176 0.5225565
vt 0.3112837 0.5225565
vt 0.3112837 0.653096
vt 0.4661759 0.653096
vt 0.3112837 0.653096
vt 0.3112046 0.9566458
vt 0.4662574 0.9566459
vt 0.4661759 0.653096
vt 0.3054987 0.9813768
vt 0.3286868 0.9814632
vt 0.4517377 0.9805822
vt 0.4748957 0.9803369
vn -0.0004024134 0.2404933 -0.9706507
vn -0.06011405 0.2373106 -0.9695721
vn -0.0001430195 0.9940717 -0.1087267
vn -0.1019155 0.9904806 -0.09252833
vn -0.9212727 0.3731026 -0.1097772
vn -0.9893788 0.01428076 -0.1446573
vn -0.3530815 0.004609569 -0.9355812
vn 1 8.373069E-05 0
vn 0.9999996 -0.0008500116 0
vn -0.05999482 0.2370369 0.9696464
vn 0.9999996 -0.0008500115 0
vn -0.1019657 0.9904766 0.0925153
vn -0.9212897 0.3730468 0.1098238
vn -0.9893745 0.01428095 0.1446862
vn -0.3523422 0.004544601 0.9358602
vn 1 8.37307E-05 0
vn 0.0005819049 -0.9999998 0
vn 0.0005819049 -0.9999998 0
vn 0.0005819049 -0.9999998 0
vn 0.0005819049 -0.9999998 0
vn 0.9999996 -0.0008500116 0
vn 0.9999996 -0.0008500116 0
vn -0.06011405 0.2373106 -0.9695721
vn -0.0001479834 0.9940699 0.1087431
vn 0 0.0001567017 -1
vn -0.3530815 0.004609569 -0.9355812
vn -0.06011405 0.2373106 -0.9695721
vn -0.0004162938 0.240207 0.9707216
vn -0.05999482 0.2370369 0.9696464
vn 0 0 1
vn -0.05999482 0.2370369 0.9696464
vn -0.3523422 0.004544601 0.9358602
vn -2.732268E-06 -1 0
vn -2.732268E-06 -1 0
vn -2.732268E-06 -1 0
vn -2.732268E-06 -1 0
vn 1 3.074364E-05 0
vn 1 3.074364E-05 0
vn 1 3.074363E-05 0
vn 1 3.074364E-05 0
vn -0.5102374 0.0001076441 0.8600336
vn -0.9892482 1.830454E-05 0.1462459
vn -0.9892527 1.764581E-05 -0.1462157
vn -0.5111467 0.0001037266 -0.8594935
g Box_Geo05_mBox_stoneBlue_0
f 4/4/4 3/3/3 1/1/1
f 2/2/2 4/4/4 1/1/1
f 4/4/4 12/12/12 3/3/3
f 13/13/13 12/12/12 4/4/4
f 5/5/5 13/13/13 4/4/4
f 23/23/23 5/5/5 4/4/4
f 12/12/12 24/24/24 3/3/3
f 2/2/2 1/1/1 25/25/25
f 7/7/7 2/2/2 25/25/25
f 14/14/14 13/13/13 5/5/5
f 6/6/6 14/14/14 5/5/5
f 6/6/6 5/5/5 26/26/26
f 5/5/5 27/27/27 26/26/26
f 24/24/24 12/12/12 28/28/28
f 12/12/12 10/10/10 28/28/28
f 13/13/13 29/29/29 12/12/12
f 28/28/28 10/10/10 15/15/15
f 30/30/30 28/28/28 15/15/15
f 31/31/31 13/13/13 14/14/14
f 32/32/32 31/31/31 14/14/14
f 14/14/14 42/42/42 32/32/32
f 42/42/42 41/41/41 32/32/32
f 43/43/43 42/42/42 14/14/14
f 6/6/6 43/43/43 14/14/14
f 44/44/44 43/43/43 6/6/6
f 26/26/26 44/44/44 6/6/6
f 11/11/11 9/9/9 21/21/21
f 22/22/22 11/11/11 21/21/21
f 21/21/21 9/9/9 16/16/16
f 8/8/8 21/21/21 16/16/16
f 19/19/19 20/20/20 17/17/17
f 18/18/18 19/19/19 17/17/17
f 35/35/35 34/34/34 33/33/33
f 36/36/36 35/35/35 33/33/33
f 39/39/39 38/38/38 37/37/37
f 40/40/40 39/39/39 37/37/37
