g Box_Geo05_mBox_centerHole_lid_red
v 0.02999999 0.05999942 -0.008182992
v 0.01378908 0.05999942 -0.008232993
v 0.01378908 0.0549 -0.008232993
v 0.02999999 0.0549 -0.008182992
v 0.01378908 0.05999942 0.008233281
v 0.01377241 0.0549 0.008216613
v 0.01378908 0.05999942 -0.008232993
v 0.01378908 0.0549 -0.008232993
vt 0.1917932 0.7046294
vt 0.1917933 0.8252041
vt 0.1527997 0.8252041
vt 0.1527996 0.7046295
vt 0.1917936 0.8258973
vt 0.1527997 0.8258974
vt 0.1917935 0.7030585
vt 0.1527998 0.7030585
vn 0 0 1
vn 0 0 1
vn 0 0 1
vn 0 0 1
vn 1 0 0
vn 1 0 0
vn 1 0 0
vn 1 0 0
g Box_Geo05_mBox_centerHole_lid_red_0
f 3/3/3 4/4/4 1/1/1
f 2/2/2 3/3/3 1/1/1
f 6/6/6 8/8/8 7/7/7
f 5/5/5 6/6/6 7/7/7
