g Box_Geo05_mBox_centerHole_lid_blue
v -0.01378979 0.0549 0.008233281
v -0.03 0.0549 0.008183281
v -0.03 0.05999942 0.008183281
v -0.01378979 0.05999942 0.008233281
v -0.01378979 0.05999942 -0.008232992
v -0.03 0.05999942 -0.008182993
v -0.03 0.0549 -0.008182993
v -0.01378979 0.0549 -0.008232992
v -0.01378979 0.05999942 0.008233281
v -0.01378979 0.0549 0.008233281
v -0.01378979 0.0549 -0.008232992
v -0.01378979 0.05999942 -0.008232992
vt 0.3578156 0.6738101
vt 0.3578156 0.5532411
vt 0.3968095 0.553241
vt 0.3968092 0.6738101
vt 0.3968095 0.5532408
vt 0.3968092 0.67381
vt 0.3578153 0.67381
vt 0.3578156 0.553241
vt 0.3968094 0.5535678
vt 0.3578156 0.5535678
vt 0.3578157 0.6764065
vt 0.3968095 0.6764065
vn 0 0 -1
vn 0 0 -1
vn 0 0 -1
vn 0 0 -1
vn 0 0 1
vn 0 0 1
vn 0 0 1
vn 0 0 1
vn -1 0 0
vn -1 0 0
vn -1 0 0
vn -1 0 0
g Box_Geo05_mBox_centerHole_lid_blue_0
f 3/3/3 4/4/4 1/1/1
f 2/2/2 3/3/3 1/1/1
f 7/7/7 8/8/8 5/5/5
f 6/6/6 7/7/7 5/5/5
f 11/11/11 10/10/10 9/9/9
f 12/12/12 11/11/11 9/9/9
