g Box_Geo05_mBox_base_blue
v -0.02999999 0.0549 0.007627396
v -0.02492066 0.0544035 0.007627396
v -0.02492066 0.02202781 0.007955194
v -0.02999999 0.02202781 0.007955194
v -0.02492066 0.02202782 -0.007955198
v -0.03 0.02202782 -0.007955197
v -0.02492066 0.0544035 -0.007627405
v -0.03 0.0549 -0.007627399
v -0.02999999 0.02202781 0.007955194
v -0.02492066 0.02202781 0.007955194
v -0.03 0.02202782 -0.007955197
v -0.02492066 0.02202782 -0.007955198
vt 0.3533829 0.5513994
vt 0.3923269 0.5550908
vt 0.3923269 0.7982354
vt 0.3533829 0.7982354
vt 0.3923272 0.9223638
vt 0.3533829 0.9223638
vt 0.3923269 0.7945439
vt 0.3533829 0.7982354
vt 0.3533829 0.800332
vt 0.3923272 0.800332
vt 0.3533829 0.5513995
vt 0.3923269 0.5513995
vn 0 0 -1
vn 0 0 -1
vn 0 0 -1
vn 0 0 -1
vn 0 1 0
vn 0 1 0
vn 7.078052E-07 0 1
vn 7.078052E-07 0 1
vn 0 1 0
vn 0 1 0
vn 7.078052E-07 0 1
vn 7.078052E-07 0 1
g Box_Geo05_mBox_base_blue_0
f 3/3/3 4/4/4 1/1/1
f 2/2/2 3/3/3 1/1/1
f 5/5/5 6/6/6 9/9/9
f 10/10/10 5/5/5 9/9/9
f 7/7/7 8/8/8 11/11/11
f 12/12/12 7/7/7 11/11/11
