g Box_Geo05_mBox_lid_geo
v -0.03 0.0549 0.03
v 0.03 0.0549 0.03
v -0.03 0.05999942 0.03
v 0.03 0.05999942 0.03
v -0.03 0.05999942 -0.03
v 0.03 0.05999942 -0.03
v -0.03 0.0549 -0.03
v 0.03 0.0549 -0.03
v 0.02999999 0.05999942 -0.008282993
v -0.03 0.05999942 -0.008282993
v -0.03 0.0549 -0.008282993
v 0.02999999 0.0549 -0.008282993
v 0.02985766 0.05980755 0.008490126
v -0.02999999 0.05999942 0.008283281
v -0.02999999 0.0549 0.008283281
v 0.03 0.0549 0.008283281
v -0.01373979 0.05999942 0.008283281
v -0.01373979 0.0549 0.008283281
v -0.01373979 0.0549 -0.008282993
v -0.01373979 0.05999942 -0.008282993
v 0.01373908 0.05999942 0.008283281
v 0.01373908 0.0549 0.008283281
v 0.01373908 0.0549 -0.008282993
v 0.01373908 0.05999942 -0.008282993
v 0.02999999 0.05999942 -0.008282993
v 0.03 0.05999942 -0.03
v -0.03 0.05999942 0.03
v -0.02999999 0.05999942 0.008283281
v -0.03 0.05999942 -0.008282993
v -0.03 0.05999942 -0.03
v -0.03 0.0549 0.03
v -0.03 0.05999942 0.03
v 0.03 0.05999942 0.03
v -0.03 0.05999942 -0.03
v -0.03 0.0549 -0.03
v 0.03 0.0549 -0.03
v 0.03 0.05999942 -0.03
v 0.02999999 0.05999942 -0.008282993
v 0.02999999 0.0549 -0.008282993
v 0.01373908 0.05999942 -0.008282993
v 0.01373908 0.05999942 -0.008282993
v 0.01373908 0.0549 -0.008282993
v 0.01373908 0.05999942 0.008283281
v -0.01373979 0.05999942 0.008283281
v -0.02999999 0.05999942 0.008283281
v -0.02999999 0.0549 0.008283281
v -0.01373979 0.05999942 -0.008282993
v -0.03 0.0549 -0.008282993
v -0.03 0.05999942 -0.008282993
v -0.01373979 0.05999942 0.008283281
v -0.01373979 0.0549 0.008283281
v -0.01373979 0.0549 -0.008282993
v -0.01373979 0.05999942 -0.008282993
v 0.03 0.0549 0.03
v 0.03 0.05999942 0.03
v 0.01373908 0.0549 0.008283281
v 0.03 0.0549 0.008283281
v 0.02985766 0.05980755 0.008490126
v 0.01373908 0.05999942 0.008283281
v 0.02985766 0.05980755 0.008490126
vt 0.00970006 0.3829976
vt 0.9729191 0.9424708
vt 0.04869366 0.3829976
vt 0.9847135 0.9001631
vt 0.04869378 0.5440279
vt 0.5259112 0.900163
vt 0.009699702 0.5440274
vt 0.00970006 0.3829964
vt 0.6919742 0.9001629
vt 0.04869366 0.3829963
vt 0.009699821 0.3829964
vt 0.009699702 0.544028
vt 0.04869366 0.3829975
vt 0.04869354 0.5440269
vt 0.009699702 0.5440269
vt 0.00970006 0.3829975
vt 0.818652 0.5656978
vt 0.009715557 0.3812353
vt 0.009715555 0.2606661
vt 0.6919744 0.565698
vt 0.8186515 0.7758206
vt 0.009715678 0.85366
vt 0.009715678 0.381238
vt 0.6919742 0.7758206
vt 0.04869378 0.5440276
vt 0.04869342 0.3829964
vt 0.9847133 0.4413611
vt 0.818652 0.441361
vt 0.6919744 0.441361
vt 0.5259112 0.441361
vt 0.52802 0.9424708
vt 0.52802 0.9743561
vt 0.972919 0.9743562
vt 0.972919 0.9761547
vt 0.972919 0.9424842
vt 0.5280204 0.942484
vt 0.52802 0.9761547
vt 0.04870915 0.2606633
vt 0.009715555 0.2606634
vt 0.04870927 0.381238
vt 0.04870939 0.7308211
vt 0.009715794 0.7308211
vt 0.04870951 0.8536599
vt 0.04870915 0.3812353
vt 0.04870951 0.2606662
vt 0.009715557 0.2606663
vt 0.04870951 0.260666
vt 0.009715321 0.3812352
vt 0.04870915 0.3812352
vt 0.04870939 0.7308211
vt 0.009715555 0.7308211
vt 0.009715678 0.8536599
vt 0.04870951 0.8536599
vt 0.009699941 0.5440268
vt 0.04869354 0.5440268
vt 0.009715557 0.2606634
vt 0.009715557 0.3812378
vt 0.04870939 0.3812377
vt 0.04870963 0.2606634
vt 0.818652 0.9001631
vn -0.3403381 0 0.9403031
vn 0.3335628 0.004767747 0.9427158
vn -0.1555035 0.8895135 0.4296328
vn 0.1524279 0.8903544 0.4289927
vn -0.1555033 0.8895167 -0.4296265
vn 0.1555047 0.8895145 -0.4296303
vn -0.3403421 0 -0.9403017
vn 0.3403421 0 -0.9403017
vn 0.4937008 0.787151 0.3696658
vn -0.493717 0.7871428 0.3696615
vn -0.800487 0 0.5993502
vn 0.8004743 0 0.5993671
vn 0.4999167 0.7821285 -0.3719655
vn -0.4937163 0.7871413 -0.369666
vn -0.800483 0 -0.5993555
vn 0.7977977 0.02380073 -0.6024552
vn -0.04442138 0.998061 -0.04360077
vn -0.7136684 0 -0.7004837
vn -0.7136684 0 0.7004837
vn -0.044421 0.998061 0.0436004
vn 0.04537366 0.9980536 -0.04278328
vn 0.7238919 0.01432142 -0.6897649
vn 0.7136531 0 0.7004993
vn 0.04442067 0.9980609 0.04360199
vn 0.4937008 0.787151 0.3696658
vn 0.1555047 0.8895145 -0.4296303
vn -0.1555035 0.8895135 0.4296328
vn -0.4937163 0.7871413 -0.369666
vn -0.493717 0.7871428 0.3696615
vn -0.1555033 0.8895167 -0.4296265
vn -0.3403381 0 0.9403031
vn -0.1555035 0.8895135 0.4296328
vn 0.1524279 0.8903544 0.4289927
vn -0.1555033 0.8895167 -0.4296265
vn -0.3403421 0 -0.9403017
vn 0.3403421 0 -0.9403017
vn 0.1555047 0.8895145 -0.4296303
vn 0.4937008 0.787151 0.3696658
vn 0.8004743 0 0.5993671
vn 0.04442067 0.9980609 0.04360199
vn 0.04442067 0.9980609 0.04360199
vn 0.7136531 0 0.7004993
vn 0.04537366 0.9980536 -0.04278328
vn -0.04442138 0.998061 -0.04360077
vn -0.4937163 0.7871413 -0.369666
vn -0.800483 0 -0.5993555
vn -0.044421 0.998061 0.0436004
vn -0.800487 0 0.5993502
vn -0.493717 0.7871428 0.3696615
vn -0.04442138 0.998061 -0.04360077
vn -0.7136684 0 -0.7004837
vn -0.7136684 0 0.7004837
vn -0.044421 0.998061 0.0436004
vn 0.3335628 0.004767747 0.9427158
vn 0.1524279 0.8903544 0.4289927
vn 0.7238919 0.01432142 -0.6897649
vn 0.7977977 0.02380073 -0.6024552
vn 0.4999167 0.7821285 -0.3719655
vn 0.04537366 0.9980536 -0.04278328
vn 0.4999167 0.7821285 -0.3719655
g Box_Geo05_mBox_lid_geo_0
f 3/3/3 14/14/14 15/15/15
f 1/1/1 3/3/3 15/15/15
f 9/9/9 6/6/6 24/24/24
f 24/24/24 6/6/6 20/20/20
f 6/6/6 30/30/30 20/20/20
f 20/20/20 30/30/30 29/29/29
f 21/21/21 24/24/24 20/20/20
f 17/17/17 21/21/21 20/20/20
f 21/21/21 17/17/17 27/27/27
f 17/17/17 28/28/28 27/27/27
f 4/4/4 21/21/21 27/27/27
f 4/4/4 60/60/60 21/21/21
f 10/10/10 5/5/5 7/7/7
f 11/11/11 10/10/10 7/7/7
f 8/8/8 26/26/26 25/25/25
f 12/12/12 8/8/8 25/25/25
f 33/33/33 32/32/32 31/31/31
f 2/2/2 33/33/33 31/31/31
f 36/36/36 35/35/35 34/34/34
f 37/37/37 36/36/36 34/34/34
f 23/23/23 39/39/39 38/38/38
f 40/40/40 23/23/23 38/38/38
f 22/22/22 42/42/42 41/41/41
f 43/43/43 22/22/22 41/41/41
f 45/45/45 44/44/44 18/18/18
f 46/46/46 45/45/45 18/18/18
f 48/48/48 19/19/19 47/47/47
f 49/49/49 48/48/48 47/47/47
f 52/52/52 51/51/51 50/50/50
f 53/53/53 52/52/52 50/50/50
f 13/13/13 55/55/55 54/54/54
f 16/16/16 13/13/13 54/54/54
f 58/58/58 57/57/57 56/56/56
f 59/59/59 58/58/58 56/56/56
