g Box_Geo05_mBox_base_red
v 0.02999999 0.0549 -0.007627396
v 0.02492066 0.0544035 -0.007627394
v 0.02492066 0.02202781 -0.007955194
v 0.02999999 0.02202781 -0.007955194
v 0.02492066 0.02202781 0.007955198
v 0.03 0.02202781 0.007955197
v 0.02492066 0.0544035 0.007627399
v 0.03 0.0549 0.007627399
v 0.02999999 0.02202781 -0.007955194
v 0.02492066 0.02202781 -0.007955194
v 0.03 0.02202781 0.007955197
v 0.02492066 0.02202781 0.007955198
vt 0.1711311 0.6913982
vt 0.2100751 0.6877067
vt 0.2100751 0.444562
vt 0.1711311 0.444562
vt 0.2100751 0.6934947
vt 0.1711311 0.6934947
vt 0.2100751 0.4482535
vt 0.1711311 0.4445622
vt 0.1711311 0.8155265
vt 0.2100751 0.8155265
vt 0.1711311 0.6913982
vt 0.2100751 0.6913982
vn 2.831221E-07 0 1
vn 2.756715E-07 0 1
vn 2.831221E-07 0 1
vn 2.831221E-07 0 1
vn 0 1 0
vn 0 1 0
vn 0 0 -1
vn 0 0 -1
vn 0 1 0
vn 0 1 0
vn 0 0 -1
vn 0 0 -1
g Box_Geo05_mBox_base_red_0
f 3/3/3 4/4/4 1/1/1
f 2/2/2 3/3/3 1/1/1
f 5/5/5 6/6/6 9/9/9
f 10/10/10 5/5/5 9/9/9
f 7/7/7 8/8/8 11/11/11
f 12/12/12 7/7/7 11/11/11
