g Box_Geo05_mBox_stoneRed
v 0.01374051 0.05806466 0.008282708
v 0.02735339 0.05806466 0.008282709
v 0.01373907 0.05974817 0.006977593
v 0.02770925 0.05974817 0.006941312
v 0.0294226 0.05806466 0.006947644
v 0.0299543 0.05440344 0.006947644
v 0.02770184 0.05440355 0.008283282
v 0.0137402 0.05440351 0.008283284
v 0.01374051 0.05806466 -0.008282993
v 0.02735339 0.05806466 -0.008282993
v 0.01373907 0.05974817 -0.006979596
v 0.02770925 0.05974817 -0.006942059
v 0.0294226 0.05806466 -0.00695072
v 0.02995431 0.05440344 -0.006950722
v 0.02770184 0.05440355 -0.008282993
v 0.0137402 0.05440351 -0.008282993
v 0.02770085 0.02193783 0.008291712
v 0.02770084 0.02193783 -0.00829171
v 0.02995431 0.02193652 -0.006950722
v 0.0299543 0.02193652 0.006947644
v 0.01374051 0.05806466 0.008282708
v 0.01373907 0.05974817 0.006977593
v 0.02735339 0.05806466 0.008282709
v 0.01373907 0.05974817 -0.006979596
v 0.0137402 0.05440351 0.008283284
v 0.02770184 0.05440355 0.008283282
v 0.02735339 0.05806466 0.008282709
v 0.01374051 0.05806466 -0.008282993
v 0.02735339 0.05806466 -0.008282993
v 0.0137402 0.05440351 -0.008282993
v 0.02735339 0.05806466 -0.008282993
v 0.02770184 0.05440355 -0.008282993
v 0.0137402 0.05440351 -0.008282993
v 0.0137402 0.05440351 0.008283284
v 0.02770184 0.05440355 0.008283282
v 0.02770184 0.05440355 -0.008282993
v 0.02770184 0.05440355 0.008283282
v 0.02770085 0.02193783 0.008291712
v 0.02770084 0.02193783 -0.00829171
v 0.02770184 0.05440355 -0.008282993
v 0.02770084 0.02193783 -0.00829171
v 0.02995431 0.02193652 -0.006950722
v 0.0299543 0.02193652 0.006947644
v 0.02770085 0.02193783 0.008291712
vt 0.09470911 0.9342264
vt 0.09473704 0.8141001
vt 0.1135162 0.9342629
vt 0.1137182 0.8109806
vt 0.1135554 0.7897726
vt 0.1142224 0.7573563
vt 0.06244196 0.8109878
vt 0.1019897 0.981419
vt 0.2483009 0.9491605
vt 0.2556128 0.8141792
vt 0.2368005 0.9343036
vt 0.2366353 0.8110568
vt 0.2368269 0.7898767
vt 0.2360782 0.7572686
vt 0.287909 0.8110772
vt 0.2482884 0.9814633
vt 0.2531531 0.4953285
vt 0.0981003 0.4953285
vt 0.1106384 0.4742588
vt 0.2405861 0.4742589
vt 0.1019948 0.9491146
vt 0.1135162 0.9342629
vt 0.09623946 0.8028154
vt 0.2368005 0.9343036
vt 0.06239804 0.9341899
vt 0.09118028 0.7582013
vt 0.09164052 0.7911864
vt 0.2555983 0.9342768
vt 0.2541171 0.8029146
vt 0.2879095 0.9342535
vt 0.2587476 0.791123
vt 0.259069 0.7579991
vt 0.09818166 0.9294178
vt 0.253074 0.9294178
vt 0.253074 0.7988784
vt 0.09818172 0.7988784
vt 0.253074 0.7988784
vt 0.2531531 0.4953285
vt 0.0981003 0.4953285
vt 0.09818172 0.7988784
vt 0.2588589 0.4705975
vt 0.2356709 0.4705111
vt 0.11262 0.471392
vt 0.08946197 0.4716375
vn 0.0004024134 0.2404933 0.9706507
vn 0.06011405 0.2373106 0.9695721
vn 0.0001430195 0.9940717 0.1087267
vn 0.1019155 0.9904806 0.09252833
vn 0.9212727 0.3731026 0.1097772
vn 0.9893788 0.01428076 0.1446573
vn 0.3530815 0.004609569 0.9355812
vn -1 8.373069E-05 0
vn -0.9999996 -0.0008500116 0
vn 0.05999482 0.2370369 -0.9696464
vn -0.9999996 -0.0008500115 0
vn 0.1019657 0.9904766 -0.0925153
vn 0.9212897 0.3730468 -0.1098238
vn 0.9893745 0.01428095 -0.1446862
vn 0.3523422 0.004544601 -0.9358602
vn -1 8.37307E-05 0
vn -0.0005819049 -0.9999998 0
vn -0.0005819049 -0.9999998 0
vn -0.0005819049 -0.9999998 0
vn -0.0005819049 -0.9999998 0
vn -0.9999996 -0.0008500116 0
vn -0.9999996 -0.0008500116 0
vn 0.06011405 0.2373106 0.9695721
vn 0.0001479834 0.9940699 -0.1087431
vn 0 0.0001567017 1
vn 0.3530815 0.004609569 0.9355812
vn 0.06011405 0.2373106 0.9695721
vn 0.0004162938 0.240207 -0.9707216
vn 0.05999482 0.2370369 -0.9696464
vn 0 0 -1
vn 0.05999482 0.2370369 -0.9696464
vn 0.3523422 0.004544601 -0.9358602
vn 2.732268E-06 -1 0
vn 2.732268E-06 -1 0
vn 2.732268E-06 -1 0
vn 2.732268E-06 -1 0
vn -1 3.074364E-05 0
vn -1 3.074364E-05 0
vn -1 3.074363E-05 0
vn -1 3.074364E-05 0
vn 0.5102374 0.0001076441 -0.8600336
vn 0.9892482 1.830454E-05 -0.1462459
vn 0.9892527 1.764581E-05 0.1462157
vn 0.5111467 0.0001037266 0.8594935
g Box_Geo05_mBox_stoneRed_0
f 4/4/4 3/3/3 1/1/1
f 2/2/2 4/4/4 1/1/1
f 4/4/4 12/12/12 3/3/3
f 13/13/13 12/12/12 4/4/4
f 5/5/5 13/13/13 4/4/4
f 23/23/23 5/5/5 4/4/4
f 12/12/12 24/24/24 3/3/3
f 2/2/2 1/1/1 25/25/25
f 7/7/7 2/2/2 25/25/25
f 14/14/14 13/13/13 5/5/5
f 6/6/6 14/14/14 5/5/5
f 6/6/6 5/5/5 26/26/26
f 5/5/5 27/27/27 26/26/26
f 24/24/24 12/12/12 28/28/28
f 12/12/12 10/10/10 28/28/28
f 13/13/13 29/29/29 12/12/12
f 28/28/28 10/10/10 15/15/15
f 30/30/30 28/28/28 15/15/15
f 31/31/31 13/13/13 14/14/14
f 32/32/32 31/31/31 14/14/14
f 14/14/14 42/42/42 32/32/32
f 42/42/42 41/41/41 32/32/32
f 43/43/43 42/42/42 14/14/14
f 6/6/6 43/43/43 14/14/14
f 44/44/44 43/43/43 6/6/6
f 26/26/26 44/44/44 6/6/6
f 11/11/11 9/9/9 21/21/21
f 22/22/22 11/11/11 21/21/21
f 21/21/21 9/9/9 16/16/16
f 8/8/8 21/21/21 16/16/16
f 19/19/19 20/20/20 17/17/17
f 18/18/18 19/19/19 17/17/17
f 35/35/35 34/34/34 33/33/33
f 36/36/36 35/35/35 33/33/33
f 39/39/39 38/38/38 37/37/37
f 40/40/40 39/39/39 37/37/37
