g hex12_3
v 0.5771828 0.0006623458 0.005920066
v 0.7216077 0.2505893 -0.001465189
v 0.5772897 0.5006292 -0.006836547
v 0.5723785 0.01003601 0.0336367
v 0.7118002 0.2513054 0.02650728
v 0.5724818 0.4926834 0.02132199
v 0.5404899 0.0006769561 0.006175985
v 0.5405152 0.001888809 0.009755735
v 0.5406866 0.01004852 0.03385774
v 0.5406985 0.06492359 0.03245759
v 0.5407245 0.1869439 0.02934425
v 0.5145531 0.2293288 0.02844565
v 0.5145578 0.2513825 0.02788295
v 0.514588 0.3924987 0.0242824
v 0.5146095 0.4927062 0.02172562
v 0.5145701 0.4943272 0.01598949
v 0.5144163 0.500654 -0.006398043
v 0.7118002 0.2513054 0.02650728
v 0.7216077 0.2505893 -0.001465189
v 0.5723785 0.01003601 0.0336367
v 0.5771828 0.0006623458 0.005920066
v 0.5723785 0.01003601 0.0336367
v 0.5406866 0.01004852 0.03385774
v 0.7118002 0.2513054 0.02650728
v 0.5724818 0.4926834 0.02132199
v 0.5772897 0.5006292 -0.006836547
v 0.5724818 0.4926834 0.02132199
v 0.5146095 0.4927062 0.02172562
vt 0.08611851 0.2755044
vt 0.08611851 0.2755044
vt 0.08611854 0.1635
vt 0.06306555 0.2716244
vt 0.06306562 0.2716244
vt 0.0630656 0.1634999
vt 0.08611853 0.2612711
vt 0.08313735 0.2610202
vt 0.06306554 0.2593311
vt 0.6781242 0.8491454
vt 0.5032655 0.7348972
vt 0.4641955 0.6527768
vt 0.432592 0.6321279
vt 0.2303685 0.5
vt 0.08676826 0.4061752
vt 0.06776751 0.1406553
vt 0.08611852 0.1391111
vt 0.06306562 0.2716244
vt 0.08611851 0.2755044
vt 0.06306555 0.2716244
vt 0.08611851 0.2755044
vt 0.7305493 0.9519051
vt 0.7567618 0.9005253
vt 0.2694507 0.9519054
vt 0.03890148 0.5
vt 0.08611854 0.1635
vt 0.0630656 0.1634999
vt 0.0630656 0.1410511
vn 0.8290567 -0.4701404 0.3027095
vn 0.8290567 -0.4701404 0.3027094
vn 0.8292621 0.4846124 0.2783435
vn 0.8290567 -0.4701404 0.3027095
vn 0.8290567 -0.4701404 0.3027095
vn 0.8292621 0.4846124 0.2783435
vn 0.001861617 -0.947193 0.3206586
vn 0.001861617 -0.947193 0.3206586
vn 0.001861617 -0.947193 0.3206586
vn 0.006982053 0.02550462 0.9996503
vn 0.006982053 0.02550462 0.9996503
vn 0.006982053 0.02550462 0.9996503
vn 0.006982047 0.0255045 0.9996503
vn 0.006982043 0.02550439 0.9996503
vn 0.006982045 0.02550446 0.9996503
vn 0.002275297 0.9623132 0.2719343
vn 0.002275298 0.9623132 0.2719343
vn 0.8292621 0.4846124 0.2783435
vn 0.8292621 0.4846124 0.2783435
vn 0.001861617 -0.947193 0.3206586
vn 0.001861617 -0.947193 0.3206586
vn 0.006982061 0.02550462 0.9996503
vn 0.006982306 0.02550472 0.9996503
vn 0.006982048 0.0255045 0.9996503
vn 0.006982044 0.0255044 0.9996503
vn 0.002275297 0.9623132 0.2719343
vn 0.002275298 0.9623132 0.2719343
vn 0.002275297 0.9623132 0.2719343
g hex12_3_0
f 2/2/2 5/5/5 4/4/4
f 1/1/1 2/2/2 4/4/4
f 3/3/3 6/6/6 18/18/18
f 19/19/19 3/3/3 18/18/18
f 7/7/7 21/21/21 20/20/20
f 20/20/20 8/8/8 7/7/7
f 20/20/20 9/9/9 8/8/8
f 23/23/23 22/22/22 10/10/10
f 22/22/22 11/11/11 10/10/10
f 11/11/11 22/22/22 24/24/24
f 24/24/24 13/13/13 11/11/11
f 13/13/13 12/12/12 11/11/11
f 13/13/13 24/24/24 14/14/14
f 24/24/24 25/25/25 14/14/14
f 14/14/14 25/25/25 15/15/15
f 27/27/27 26/26/26 17/17/17
f 17/17/17 16/16/16 27/27/27
f 16/16/16 28/28/28 27/27/27
