g hex19_3
v 0.7213553 0.2509646 0.0005438232
v 0.5769802 0.5010296 0.0005438232
v 0.2882304 0.5010295 0.0005438232
v 0.7113526 0.2509647 0.02845629
v 0.5719788 0.4923671 0.02845629
v 0.2932317 0.4923671 0.02845629
v 0.7030082 0.219187 0.0005438232
v 0.7020381 0.2197471 0.004153408
v 0.6955063 0.2235183 0.02845629
v 0.6479677 0.2509648 0.02845628
v 0.5422605 0.3119948 0.02845627
v 0.4924605 0.3105155 0.02845626
v 0.4733552 0.321546 0.02845626
v 0.3511053 0.3921271 0.02845627
v 0.2642947 0.4422471 0.02845628
v 0.2627648 0.4431305 0.02276322
v 0.2567928 0.4465784 0.0005438073
v 0.5719788 0.4923671 0.02845629
v 0.5769802 0.5010296 0.0005438232
v 0.7213553 0.2509646 0.0005438232
v 0.7113526 0.2509647 0.02845629
v 0.7113526 0.2509647 0.02845629
v 0.6955063 0.2235183 0.02845629
v 0.5719788 0.4923671 0.02845629
v 0.2932317 0.4923671 0.02845629
v 0.2932317 0.4923671 0.02845629
v 0.2642947 0.4422471 0.02845628
v 0.2882304 0.5010295 0.0005438232
vt 0.08611851 0.2755044
vt 0.08611851 0.2755044
vt 0.08611854 0.1635
vt 0.06306555 0.2716244
vt 0.06306562 0.2716244
vt 0.0630656 0.1634999
vt 0.08611853 0.2612711
vt 0.08313735 0.2610202
vt 0.06306554 0.2593311
vt 0.6781242 0.8491454
vt 0.5032655 0.7348972
vt 0.4641955 0.6527768
vt 0.432592 0.6321279
vt 0.2303685 0.5
vt 0.08676826 0.4061752
vt 0.06776751 0.1406553
vt 0.08611852 0.1391111
vt 0.06306562 0.2716244
vt 0.08611851 0.2755044
vt 0.08611851 0.2755044
vt 0.06306555 0.2716244
vt 0.7305493 0.9519051
vt 0.7567618 0.9005253
vt 0.2694507 0.9519054
vt 0.03890148 0.5
vt 0.0630656 0.1634999
vt 0.0630656 0.1410511
vt 0.08611854 0.1635
vn 0.8271098 0.4775321 0.2963991
vn 0.8271098 0.4775322 0.2963991
vn -2.559634E-07 0.9550649 0.2963968
vn 0.8271098 0.4775321 0.2963991
vn 0.8271098 0.4775321 0.2963991
vn -2.559634E-07 0.9550649 0.2963968
vn 0.8271071 -0.4775361 0.2964002
vn 0.8271071 -0.4775361 0.2964002
vn 0.8271071 -0.4775361 0.2964002
vn -1.693665E-07 -1.037142E-07 1
vn -1.696392E-07 -1.052073E-07 1
vn -1.696392E-07 -1.052073E-07 1
vn 0 -1.521304E-07 1
vn 0 -1.936722E-07 1
vn 0 -1.902783E-07 1
vn -0.8271092 0.4775334 0.2963988
vn -0.8271093 0.4775334 0.2963988
vn -2.559634E-07 0.9550649 0.2963968
vn -2.559634E-07 0.9550649 0.2963968
vn 0.8271071 -0.4775361 0.2964002
vn 0.8271071 -0.4775361 0.2964002
vn -1.683132E-07 0 1
vn -1.306064E-07 1.085835E-07 1
vn 0 -1.521304E-07 1
vn 0 -1.934164E-07 1
vn -0.8271092 0.4775334 0.2963988
vn -0.8271092 0.4775334 0.2963987
vn -0.8271092 0.4775334 0.2963987
g hex19_3_0
f 2/2/2 5/5/5 4/4/4
f 1/1/1 2/2/2 4/4/4
f 3/3/3 6/6/6 18/18/18
f 19/19/19 3/3/3 18/18/18
f 8/8/8 7/7/7 20/20/20
f 20/20/20 9/9/9 8/8/8
f 20/20/20 21/21/21 9/9/9
f 23/23/23 22/22/22 10/10/10
f 10/10/10 22/22/22 24/24/24
f 24/24/24 11/11/11 10/10/10
f 24/24/24 13/13/13 11/11/11
f 13/13/13 12/12/12 11/11/11
f 13/13/13 24/24/24 14/14/14
f 24/24/24 25/25/25 14/14/14
f 14/14/14 25/25/25 15/15/15
f 16/16/16 27/27/27 26/26/26
f 26/26/26 17/17/17 16/16/16
f 26/26/26 28/28/28 17/17/17
