g hex19_2
v 0.2509649 -0.1438553 0.00054375
v 0.0008999824 -0.2882304 0.00054375
v 0.2509648 -0.4326054 0.02845624
v 0.2509649 -0.1538579 0.02845625
v 0.009562549 -0.2932316 0.02845625
v 0.321546 -0.4733553 0.02845626
v 0.2509648 -0.6479675 0.02845628
v 0.3921271 -0.3511054 0.02845627
v 0.4422471 -0.2642948 0.02845628
v 0.009562511 -0.5274451 0.02845628
v 0.04813005 -0.5497121 0.02845628
v 0.4465784 -0.2567928 0.0005438073
v 0.0009001159 -0.5224437 0.0005438094
v 0.4431306 -0.2627647 0.02276322
v 0.002536163 -0.5233883 0.005815672
v 0.3119948 -0.5422605 0.02845627
v 0.3105154 -0.4924605 0.02845626
v 0.2433152 -0.6612173 0.02845628
v 0.2509649 -0.1538579 0.02845625
v 0.4422471 -0.2642948 0.02845628
v 0.2509649 -0.1538579 0.02845625
v 0.009562549 -0.2932316 0.02845625
v 0.2509649 -0.1438553 0.00054375
v 0.009562549 -0.2932316 0.02845625
v 0.009562511 -0.5274451 0.02845628
v 0.0008999824 -0.2882304 0.00054375
vt 0.08611851 0.05149529
vt 0.08611851 0.05149529
vt 0.4999999 0.5
vt 0.2694508 0.04809472
vt 0.7305496 0.04809493
vt 0.432592 0.6321279
vt 0.6781242 0.8491454
vt 0.2303685 0.5
vt 0.08676826 0.4061752
vt 0.924265 0.4278018
vt 0.8874314 0.5000002
vt 0.08611852 0.1391111
vt 0.08611854 0.1423455
vt 0.06776751 0.1406553
vt 0.0817645 0.1430783
vt 0.5032655 0.7348972
vt 0.4641955 0.6527768
vt 0.7000416 0.8634657
vt 0.0630656 0.05537532
vt 0.0630656 0.1410511
vt 0.0630656 0.05537532
vt 0.06306559 0.0553753
vt 0.08611851 0.05149529
vt 0.06306559 0.0553753
vt 0.06306556 0.1462255
vt 0.08611851 0.05149529
vn 0.477532 0.8271095 0.2964004
vn -0.4775324 0.8271105 0.2963969
vn 0 0 1
vn 0 0 1
vn 0 0 1
vn 0 0 1
vn 0 1.634194E-07 1
vn -1.859807E-07 0 1
vn -1.86116E-07 0 1
vn 1.163501E-07 1.467204E-07 1
vn 1.070236E-07 1.511225E-07 1
vn 0.477532 0.8271095 0.2964004
vn -0.9550643 0 0.2963987
vn 0.4775321 0.8271094 0.2964005
vn -0.9550643 0 0.2963987
vn 0 1.633083E-07 1
vn 0 1.633084E-07 1
vn 0 1.634278E-07 1
vn 0.477532 0.8271094 0.2964005
vn 0.477532 0.8271094 0.2964005
vn -0.4775324 0.8271105 0.2963969
vn -0.4775324 0.8271104 0.2963969
vn -0.4775324 0.8271105 0.2963969
vn -0.9550643 0 0.2963987
vn -0.9550643 0 0.2963987
vn -0.9550643 0 0.2963987
g hex19_2_0
f 17/17/17 6/6/6 3/3/3
f 17/17/17 3/3/3 7/7/7
f 7/7/7 16/16/16 17/17/17
f 8/8/8 3/3/3 6/6/6
f 4/4/4 3/3/3 8/8/8
f 9/9/9 4/4/4 8/8/8
f 5/5/5 3/3/3 4/4/4
f 3/3/3 5/5/5 10/10/10
f 11/11/11 3/3/3 10/10/10
f 7/7/7 3/3/3 11/11/11
f 18/18/18 7/7/7 11/11/11
f 12/12/12 1/1/1 19/19/19
f 19/19/19 14/14/14 12/12/12
f 19/19/19 20/20/20 14/14/14
f 2/2/2 22/22/22 21/21/21
f 23/23/23 2/2/2 21/21/21
f 15/15/15 25/25/25 24/24/24
f 24/24/24 13/13/13 15/15/15
f 24/24/24 26/26/26 13/13/13
