g hex16_1
v 0.790351 0.3973311 0.0005438232
v 0.7903509 0.3873286 0.02845629
v 0.5763953 0.2638011 0.02845629
v 0.5720642 0.271303 0.0005438232
v 0.5726242 0.2703329 0.004153408
v 0.837581 0.3700628 0.0005438094
v 0.835945 0.3691183 0.005815672
v 0.8289185 0.3650616 0.02845628
v 0.5961919 0.2295121 0.02845628
v 0.7903509 0.3427946 0.02845628
v 0.790351 0.3973311 0.0005438232
v 0.7903509 0.3873286 0.02845629
v 0.7903509 0.3873286 0.02845629
v 0.8289185 0.3650616 0.02845628
v 0.5763953 0.2638011 0.02845629
vt 0.08611854 0.1635
vt 0.06306557 0.1634999
vt 0.06306554 0.2593311
vt 0.08611853 0.2612711
vt 0.08313735 0.2610202
vt 0.08611854 0.1423455
vt 0.0817645 0.1430783
vt 0.06306556 0.1462255
vt 0.7000416 0.8634657
vt 0.8874314 0.5000002
vt 0.08611854 0.1635
vt 0.06306557 0.1634999
vt 0.9610986 0.5000002
vt 0.924265 0.4278018
vt 0.7567618 0.9005253
vn -0.477533 0.8271105 0.2963957
vn -0.477533 0.8271105 0.2963957
vn -0.477533 0.8271105 0.2963957
vn -0.477533 0.8271105 0.2963957
vn -0.477533 0.8271105 0.2963957
vn 0.4775324 0.8271105 0.2963966
vn 0.4775324 0.8271105 0.2963966
vn 0.4775325 0.8271105 0.2963966
vn 1.242002E-07 -1.860804E-07 1
vn 1.186816E-07 -1.849485E-07 1
vn 0.4775325 0.8271105 0.2963966
vn 0.4775324 0.8271105 0.2963966
vn 1.136114E-07 -1.839087E-07 1
vn 0 -1.606086E-07 1
vn 1.242002E-07 -1.860803E-07 1
g hex16_1_0
f 1/1/1 4/4/4 5/5/5
f 5/5/5 2/2/2 1/1/1
f 5/5/5 3/3/3 2/2/2
f 7/7/7 6/6/6 11/11/11
f 11/11/11 12/12/12 7/7/7
f 12/12/12 8/8/8 7/7/7
f 14/14/14 13/13/13 10/10/10
f 10/10/10 13/13/13 15/15/15
f 9/9/9 10/10/10 15/15/15
