g hex11_2
v 0.0006994438 -0.2884828 -0.004822732
v 0.0005872535 -0.5771383 0.002562523
v 0.2505154 -0.4321507 0.02845136
v 0.009172611 -0.2927704 0.02326608
v 0.009064312 -0.5714266 0.0303955
v 0.3211108 -0.3914295 0.02788295
v 0.4369783 -0.5398372 0.03245759
v 0.2505789 -0.2692041 0.0242824
v 0.2004935 -0.1824111 0.02172562
v 0.211849 -0.688539 0.0347524
v 0.2504244 -0.6662878 0.0344418
v 0.1963525 -0.1756247 -0.006398044
v 0.203372 -0.6942507 0.006919447
v 0.1996489 -0.1810269 0.01598948
v 0.204973 -0.693172 0.01217629
v 0.3759908 -0.4341516 0.02934425
v 0.3321335 -0.4105308 0.02844566
v 0.4446229 -0.5530843 0.03284784
v 0.009172611 -0.2927704 0.02326608
v 0.2004935 -0.1824111 0.02172562
v 0.009172611 -0.2927704 0.02326608
v 0.009064312 -0.5714266 0.0303955
v 0.0006994438 -0.2884828 -0.004822732
v 0.0005872535 -0.5771383 0.002562523
v 0.009064312 -0.5714266 0.0303955
v 0.211849 -0.688539 0.0347524
vt 0.08611851 0.05149529
vt 0.08611851 0.05149529
vt 0.4999999 0.5
vt 0.2694508 0.04809472
vt 0.7305496 0.04809493
vt 0.432592 0.6321279
vt 0.6781242 0.8491454
vt 0.2303685 0.5
vt 0.08676826 0.4061752
vt 0.924265 0.4278018
vt 0.8874314 0.5000002
vt 0.08611852 0.1391111
vt 0.08611854 0.1423455
vt 0.06776751 0.1406553
vt 0.0817645 0.1430783
vt 0.5032655 0.7348972
vt 0.4641955 0.6527768
vt 0.7000416 0.8634657
vt 0.0630656 0.05537532
vt 0.0630656 0.1410511
vt 0.0630656 0.05537532
vt 0.06306559 0.0553753
vt 0.08611851 0.05149529
vt 0.08611851 0.05149529
vt 0.06306559 0.0553753
vt 0.06306556 0.1462255
vn -0.4791875 0.8345243 0.271935
vn -0.9570304 0.007788622 0.2898833
vn -0.006705512 0.02557869 0.9996503
vn -0.006705497 0.0255786 0.9996503
vn -0.006705489 0.02557875 0.9996503
vn -0.006705573 0.0255786 0.9996503
vn -0.006705513 0.02557881 0.9996503
vn -0.006705534 0.02557852 0.9996503
vn -0.006705537 0.02557852 0.9996503
vn -0.006705519 0.02557883 0.9996503
vn -0.006705515 0.02557882 0.9996503
vn -0.4791875 0.8345242 0.271935
vn -0.4798309 -0.8191549 0.3142413
vn -0.4791875 0.8345242 0.271935
vn -0.4798309 -0.8191549 0.3142413
vn -0.006705637 0.02557867 0.9996503
vn -0.006705637 0.02557867 0.9996503
vn -0.006705504 0.02557882 0.9996503
vn -0.4791875 0.8345243 0.271935
vn -0.4791875 0.8345242 0.271935
vn -0.9570304 0.007788621 0.2898832
vn -0.9570304 0.007788621 0.2898833
vn -0.9570304 0.007788622 0.2898833
vn -0.4798308 -0.8191549 0.3142413
vn -0.4798309 -0.8191549 0.3142413
vn -0.4798309 -0.8191549 0.3142413
g hex11_2_0
f 3/3/3 7/7/7 16/16/16
f 16/16/16 17/17/17 3/3/3
f 17/17/17 6/6/6 3/3/3
f 8/8/8 3/3/3 6/6/6
f 4/4/4 3/3/3 8/8/8
f 9/9/9 4/4/4 8/8/8
f 5/5/5 3/3/3 4/4/4
f 3/3/3 5/5/5 10/10/10
f 11/11/11 3/3/3 10/10/10
f 7/7/7 3/3/3 11/11/11
f 18/18/18 7/7/7 11/11/11
f 14/14/14 12/12/12 1/1/1
f 1/1/1 19/19/19 14/14/14
f 19/19/19 20/20/20 14/14/14
f 2/2/2 22/22/22 21/21/21
f 23/23/23 2/2/2 21/21/21
f 25/25/25 24/24/24 13/13/13
f 13/13/13 15/15/15 25/25/25
f 15/15/15 26/26/26 25/25/25
