g hex3_2
v 0.5010297 -0.2882304 0.00054375
v 0.2509647 -0.1438554 0.00054375
v 0.2509648 -0.4326054 0.02845624
v 0.4923671 -0.2932317 0.02845625
v 0.2509648 -0.1538579 0.02845625
v 0.2509648 -0.5141054 0.02845626
v 0.06445556 -0.5402864 0.02845628
v 0.3921269 -0.5141054 0.02845627
v 0.492367 -0.5141053 0.02845628
v 0.04812994 -0.2709647 0.02845628
v 0.04812994 -0.3154987 0.02845628
v 0.5010297 -0.5141053 0.0005438073
v 0.04812999 -0.2609621 0.0005438094
v 0.4941339 -0.5141054 0.02276322
v 0.04812996 -0.2628513 0.005815672
v 0.1865155 -0.5402864 0.02845627
v 0.2289039 -0.5141053 0.02845626
v 0.04915607 -0.5402865 0.02845628
v 0.492367 -0.5141053 0.02845628
v 0.492367 -0.5141053 0.02845628
v 0.5010297 -0.5141053 0.0005438073
v 0.4923671 -0.2932317 0.02845625
v 0.4923671 -0.2932317 0.02845625
v 0.2509648 -0.1538579 0.02845625
v 0.5010297 -0.2882304 0.00054375
v 0.2509647 -0.1438554 0.00054375
v 0.2509648 -0.1538579 0.02845625
v 0.04812994 -0.2709647 0.02845628
vt 0.08611851 0.05149529
vt 0.08611851 0.05149529
vt 0.4999999 0.5
vt 0.2694508 0.04809472
vt 0.7305496 0.04809493
vt 0.432592 0.6321279
vt 0.6781242 0.8491454
vt 0.2303685 0.5
vt 0.08676826 0.4061752
vt 0.924265 0.4278018
vt 0.8874314 0.5000002
vt 0.08611852 0.1391111
vt 0.08611854 0.1423455
vt 0.06776751 0.1406553
vt 0.0817645 0.1430783
vt 0.5032655 0.7348972
vt 0.4641955 0.6527768
vt 0.7000416 0.8634657
vt 0.0630656 0.1410511
vt 0.0630656 0.1410511
vt 0.08611852 0.1391111
vt 0.0630656 0.05537532
vt 0.0630656 0.05537532
vt 0.06306559 0.0553753
vt 0.08611851 0.05149529
vt 0.08611851 0.05149529
vt 0.06306559 0.0553753
vt 0.06306556 0.1462255
vn 0.9550635 -2.045166E-07 0.2964014
vn 0.4775322 0.8271103 0.2963975
vn 0 0 1
vn 0 0 1
vn 0 0 1
vn 0 1.714135E-07 1
vn 1.74607E-07 0 1
vn -1.172099E-07 1.474788E-07 1
vn -1.178736E-07 1.464293E-07 1
vn 1.745251E-07 0 1
vn 1.754665E-07 0 1
vn 0.9550635 -2.045166E-07 0.2964014
vn -0.4775323 0.8271102 0.296398
vn 0.9550635 -2.045166E-07 0.2964014
vn -0.4775323 0.8271102 0.296398
vn 1.284512E-07 1.687602E-07 1
vn 1.284512E-07 1.687602E-07 1
vn 1.780976E-07 0 1
vn 0.9550635 -2.045166E-07 0.2964014
vn 0.9550635 -2.045166E-07 0.2964014
vn 0.9550635 -2.045166E-07 0.2964014
vn 0.9550635 -2.045166E-07 0.2964014
vn 0.4775322 0.8271103 0.2963975
vn 0.4775323 0.8271103 0.2963975
vn 0.4775323 0.8271103 0.2963975
vn -0.4775323 0.8271102 0.296398
vn -0.4775323 0.8271102 0.296398
vn -0.4775322 0.8271102 0.296398
g hex3_2_0
f 17/17/17 6/6/6 3/3/3
f 3/3/3 7/7/7 17/17/17
f 7/7/7 16/16/16 17/17/17
f 8/8/8 3/3/3 6/6/6
f 4/4/4 3/3/3 8/8/8
f 9/9/9 4/4/4 8/8/8
f 5/5/5 3/3/3 4/4/4
f 3/3/3 5/5/5 10/10/10
f 11/11/11 3/3/3 10/10/10
f 7/7/7 3/3/3 11/11/11
f 18/18/18 7/7/7 11/11/11
f 19/19/19 14/14/14 12/12/12
f 21/21/21 1/1/1 20/20/20
f 1/1/1 22/22/22 20/20/20
f 2/2/2 24/24/24 23/23/23
f 25/25/25 2/2/2 23/23/23
f 27/27/27 26/26/26 13/13/13
f 13/13/13 15/15/15 27/27/27
f 15/15/15 28/28/28 27/27/27
