g mesh_groundcrack02
v -1.753376E-08 0.4097041 -4.568226E-07
v 0.2408181 0.3314576 -4.568226E-07
v 0.1547952 0.2130573 0.03086708
v -1.140553E-08 0.2633534 0.03086707
v 0.2504639 0.08138067 0.03086709
v 0.3896518 0.1266055 -4.568226E-07
v 0.2504639 -0.08138066 0.03086707
v 0.3896518 -0.1266055 -4.568225E-07
v 0.1547952 -0.2130573 0.03086708
v 0.2408181 -0.3314576 -4.568225E-07
v -1.140553E-08 -0.2633534 0.03086709
v -1.753376E-08 -0.4097041 -4.568225E-07
v -0.1547952 -0.2130573 0.03086708
v -0.240818 -0.3314576 -4.568225E-07
v -0.2504639 -0.08138066 0.03086707
v -0.3896517 -0.1266055 -4.568225E-07
v -0.2504639 0.08138067 0.03086709
v -0.3896518 0.1266055 -4.568226E-07
v -0.1547953 0.2130572 0.03086708
v -0.2408181 0.3314575 -4.568226E-07
v -1.140553E-08 0.2633534 0.03086707
v 0.1547952 0.2130573 0.03086708
v 0.09718812 0.133768 0.05832171
v -8.474895E-09 0.1653463 0.0583217
v 0.1572537 0.05109483 0.05832169
v 0.2504639 0.08138067 0.03086709
v 0.1572537 -0.0510948 0.05832169
v 0.2504639 -0.08138066 0.03086707
v 0.09718812 -0.1337679 0.05832168
v 0.1547952 -0.2130573 0.03086708
v -8.474895E-09 -0.1653463 0.05832169
v -1.140553E-08 -0.2633534 0.03086709
v -0.09718813 -0.1337679 0.05832168
v -0.1547952 -0.2130573 0.03086708
v -0.1572537 -0.05109481 0.05832169
v -0.2504639 -0.08138066 0.03086707
v -0.1572537 0.05109482 0.05832169
v -0.2504639 0.08138067 0.03086709
v -0.09718815 0.1337679 0.05832171
v -0.1547953 0.2130572 0.03086708
v -6.055832E-09 0.05109482 0.05832169
v -8.474895E-09 0.1653463 0.0583217
v 0.09718812 0.133768 0.05832171
v 0.1572537 0.05109483 0.05832169
v 0.1572537 -0.0510948 0.05832169
v -6.055832E-09 -0.0510948 0.05832169
v 0.09718812 -0.1337679 0.05832168
v -8.474895E-09 -0.1653463 0.05832169
v -0.09718815 0.1337679 0.05832171
v -0.1572537 0.05109482 0.05832169
v -0.1572537 -0.05109481 0.05832169
v -0.09718813 -0.1337679 0.05832168
vt 0.5 0.9797123
vt 0.7819517 0.8865747
vt 0.6795324 0.7476972
vt 0.5 0.8075002
vt 0.7897478 0.5944251
vt 0.9534836 0.6467374
vt 0.7897478 0.4055716
vt 0.9534836 0.3532592
vt 0.6795324 0.2522992
vt 0.7819517 0.1134215
vt 0.5 0.1924959
vt 0.5 0.02028338
vt 0.3204675 0.2522992
vt 0.2180483 0.1134215
vt 0.2102523 0.4055715
vt 0.04651653 0.3532591
vt 0.2102523 0.594425
vt 0.0465165 0.6467373
vt 0.3204674 0.7476971
vt 0.2180482 0.8865746
vt 0.5 0.8075002
vt 0.6795324 0.7476972
vt 0.6105406 0.6533564
vt 0.5 0.6904606
vt 0.6797659 0.5585607
vt 0.7897478 0.5944251
vt 0.6797658 0.4414362
vt 0.7897478 0.4055716
vt 0.6105407 0.3466401
vt 0.6795324 0.2522992
vt 0.5 0.3095358
vt 0.5 0.1924959
vt 0.3894593 0.3466401
vt 0.3204675 0.2522992
vt 0.320234 0.4414361
vt 0.2102523 0.4055715
vt 0.3202341 0.5585607
vt 0.2102523 0.594425
vt 0.3894593 0.6533563
vt 0.3204674 0.7476971
vt 0.5 0.5587118
vt 0.5 0.6904606
vt 0.6105406 0.6533564
vt 0.6797659 0.5585607
vt 0.6797658 0.4414362
vt 0.5 0.4412851
vt 0.6105407 0.3466401
vt 0.5 0.3095358
vt 0.3894593 0.6533563
vt 0.3202341 0.5585607
vt 0.320234 0.4414361
vt 0.3894593 0.3466401
vn 0 0.2063744 0.9784731
vn 0.1213038 0.1669604 0.9784731
vn 0.1213038 0.1669604 0.9784731
vn 0 0.2063744 0.9784731
vn 0.1962737 0.06377321 0.9784731
vn 0.1962737 0.06377319 0.9784731
vn 0.1962737 -0.06377321 0.9784731
vn 0.1962737 -0.06377321 0.9784731
vn 0.1213039 -0.1669604 0.9784731
vn 0.1213039 -0.1669604 0.9784731
vn 0 -0.2063745 0.9784731
vn 0 -0.2063745 0.9784731
vn -0.1213039 -0.1669604 0.9784731
vn -0.1213039 -0.1669604 0.9784731
vn -0.1962737 -0.06377321 0.9784731
vn -0.1962737 -0.06377321 0.9784731
vn -0.1962737 0.0637732 0.9784731
vn -0.1962737 0.06377318 0.9784731
vn -0.1213039 0.1669604 0.9784731
vn -0.1213039 0.1669604 0.9784731
vn 0 0.2697451 0.9629318
vn 0.1585522 0.2182284 0.9629318
vn 0.1585522 0.2182284 0.9629318
vn 0 0.2697451 0.9629318
vn 0.2565428 0.08335577 0.9629318
vn 0.2565428 0.08335577 0.9629318
vn 0.2565428 -0.08335586 0.9629318
vn 0.2565428 -0.08335587 0.9629318
vn 0.1585522 -0.2182283 0.9629318
vn 0.1585522 -0.2182283 0.9629318
vn 0 -0.2697449 0.9629318
vn 0 -0.2697449 0.9629318
vn -0.1585523 -0.2182283 0.9629318
vn -0.1585522 -0.2182283 0.9629318
vn -0.2565429 -0.08335587 0.9629318
vn -0.2565429 -0.0833559 0.9629318
vn -0.2565429 0.08335578 0.9629318
vn -0.2565429 0.08335579 0.9629318
vn -0.1585522 0.2182284 0.9629318
vn -0.1585522 0.2182284 0.9629318
vn 0 0 1
vn 0 0 1
vn 0 0 1
vn 0 0 1
vn 0 0 1
vn 0 0 1
vn 0 0 1
vn 0 0 1
vn 0 0 1
vn 0 0 1
vn 0 0 1
vn 0 0 1
g mesh_groundcrack02_0
f 3/3/3 2/2/2 1/1/1
f 4/4/4 3/3/3 1/1/1
f 3/3/3 5/5/5 2/2/2
f 5/5/5 6/6/6 2/2/2
f 5/5/5 7/7/7 6/6/6
f 7/7/7 8/8/8 6/6/6
f 7/7/7 9/9/9 8/8/8
f 9/9/9 10/10/10 8/8/8
f 9/9/9 11/11/11 10/10/10
f 11/11/11 12/12/12 10/10/10
f 11/11/11 13/13/13 12/12/12
f 13/13/13 14/14/14 12/12/12
f 13/13/13 15/15/15 14/14/14
f 15/15/15 16/16/16 14/14/14
f 15/15/15 17/17/17 16/16/16
f 17/17/17 18/18/18 16/16/16
f 17/17/17 19/19/19 18/18/18
f 19/19/19 20/20/20 18/18/18
f 19/19/19 4/4/4 20/20/20
f 4/4/4 1/1/1 20/20/20
f 23/23/23 22/22/22 21/21/21
f 24/24/24 23/23/23 21/21/21
f 23/23/23 25/25/25 22/22/22
f 25/25/25 26/26/26 22/22/22
f 25/25/25 27/27/27 26/26/26
f 27/27/27 28/28/28 26/26/26
f 27/27/27 29/29/29 28/28/28
f 29/29/29 30/30/30 28/28/28
f 29/29/29 31/31/31 30/30/30
f 31/31/31 32/32/32 30/30/30
f 31/31/31 33/33/33 32/32/32
f 33/33/33 34/34/34 32/32/32
f 33/33/33 35/35/35 34/34/34
f 35/35/35 36/36/36 34/34/34
f 35/35/35 37/37/37 36/36/36
f 37/37/37 38/38/38 36/36/36
f 37/37/37 39/39/39 38/38/38
f 39/39/39 40/40/40 38/38/38
f 39/39/39 24/24/24 40/40/40
f 24/24/24 21/21/21 40/40/40
f 43/43/43 42/42/42 41/41/41
f 44/44/44 43/43/43 41/41/41
f 44/44/44 41/41/41 45/45/45
f 41/41/41 46/46/46 45/45/45
f 45/45/45 46/46/46 47/47/47
f 46/46/46 48/48/48 47/47/47
f 41/41/41 42/42/42 49/49/49
f 50/50/50 41/41/41 49/49/49
f 46/46/46 41/41/41 50/50/50
f 51/51/51 46/46/46 50/50/50
f 52/52/52 48/48/48 46/46/46
f 51/51/51 52/52/52 46/46/46
