g shield_level1_23
v 0.2198871 0.3940382 -0.3899443
v 0.1049277 0.1949227 -0.2568436
v -0.02366827 0.4413788 -0.2643514
v -0.147331 0.2271888 -0.1443342
v -0.01848818 -0.01883976 -0.1585962
v 0.2216494 -0.05237921 -0.2891024
v 0.3350914 0.144108 -0.3992002
v 0.2085633 0.3923581 -0.4171064
v 0.2198871 0.3940382 -0.3899443
v -0.02366827 0.4413788 -0.2643514
v -0.04010879 0.44089 -0.2890021
v -0.04010879 0.44089 -0.2890021
v -0.02366827 0.4413788 -0.2643514
v -0.147331 0.2271888 -0.1443342
v -0.1664574 0.2220478 -0.1663781
v -0.1664574 0.2220478 -0.1663781
v -0.147331 0.2271888 -0.1443342
v -0.01848818 -0.01883976 -0.1585962
v -0.03472 -0.0290208 -0.1809949
v -0.03472 -0.0290208 -0.1809949
v -0.01848818 -0.01883976 -0.1585962
v 0.2216494 -0.05237921 -0.2891024
v 0.2103382 -0.06295957 -0.3142901
v 0.2103382 -0.06295957 -0.3142901
v 0.2216494 -0.05237921 -0.2891024
v 0.3350914 0.144108 -0.3992002
v 0.3258812 0.1371669 -0.4264271
v 0.3258812 0.1371669 -0.4264271
v 0.3350914 0.144108 -0.3992002
v 0.2198871 0.3940382 -0.3899443
v 0.2085633 0.3923581 -0.4171064
vt 0.7305493 0.9519051
vt 0.4999999 0.5
vt 0.2694507 0.9519054
vt 0.03890148 0.5
vt 0.2694508 0.04809472
vt 0.7305496 0.04809493
vt 0.9610986 0.5000002
vt 0.0785901 0.1688888
vt 0.05553712 0.1667579
vt 0.05553716 0.1667579
vt 0.0785901 0.1688888
vt 0.0785901 0.1688888
vt 0.05553716 0.1667579
vt 0.05553715 0.1073744
vt 0.07859004 0.1073744
vt 0.07859004 0.1073744
vt 0.05553715 0.1073744
vt 0.05553714 0.04799093
vt 0.07859005 0.04586001
vt 0.07859005 0.04586001
vt 0.05553714 0.04799093
vt 0.0555371 0.04799092
vt 0.07859007 0.04586001
vt 0.07859007 0.04586001
vt 0.0555371 0.04799092
vt 0.0555371 0.1073744
vt 0.07859004 0.1073744
vt 0.07859004 0.1073744
vt 0.0555371 0.1073744
vt 0.05553712 0.1667579
vt 0.0785901 0.1688888
vn 0.515347 0.2503358 0.8196032
vn 0.4834403 0.1985965 0.8525521
vn 0.4507625 0.2612015 0.853573
vn 0.4205045 0.2087929 0.8829391
vn 0.4532256 0.1427383 0.8798934
vn 0.5162963 0.1333316 0.8459675
vn 0.5461614 0.1850597 0.8169826
vn 0.1336235 0.9845895 -0.1128194
vn 0.1336235 0.9845895 -0.1128194
vn 0.1336235 0.9845895 -0.1128194
vn 0.1336235 0.9845895 -0.1128194
vn -0.6586622 0.6195419 0.4270034
vn -0.6586622 0.6195419 0.4270034
vn -0.6586622 0.6195419 0.4270034
vn -0.6586622 0.6195419 0.4270034
vn -0.6549293 -0.3812222 0.6524854
vn -0.6549293 -0.3812222 0.6524854
vn -0.6549293 -0.3812222 0.6524853
vn -0.6549293 -0.3812222 0.6524853
vn 0.06930405 -0.928442 0.3649554
vn 0.06930405 -0.928442 0.3649554
vn 0.06930405 -0.928442 0.3649554
vn 0.06930405 -0.928442 0.3649554
vn 0.8224817 -0.5519165 -0.1375208
vn 0.8224818 -0.5519165 -0.1375208
vn 0.8224818 -0.5519165 -0.1375208
vn 0.8224817 -0.5519166 -0.1375208
vn 0.8354056 0.3984831 -0.3785612
vn 0.8354056 0.3984832 -0.3785613
vn 0.8354056 0.3984832 -0.3785613
vn 0.8354056 0.3984831 -0.3785612
g shield_level1_23_0
f 3/3/3 2/2/2 1/1/1
f 4/4/4 2/2/2 3/3/3
f 5/5/5 2/2/2 4/4/4
f 6/6/6 2/2/2 5/5/5
f 7/7/7 2/2/2 6/6/6
f 1/1/1 2/2/2 7/7/7
f 10/10/10 9/9/9 8/8/8
f 11/11/11 10/10/10 8/8/8
f 14/14/14 13/13/13 12/12/12
f 15/15/15 14/14/14 12/12/12
f 18/18/18 17/17/17 16/16/16
f 19/19/19 18/18/18 16/16/16
f 22/22/22 21/21/21 20/20/20
f 23/23/23 22/22/22 20/20/20
f 26/26/26 25/25/25 24/24/24
f 27/27/27 26/26/26 24/24/24
f 30/30/30 29/29/29 28/28/28
f 31/31/31 30/30/30 28/28/28
