g shield_level1_21
v 0.1463653 0.4682196 -0.4025772
v 0.07584166 0.2434789 -0.2599528
v -0.08009031 0.4682196 -0.2915837
v -0.1706066 0.243479 -0.1607323
v -0.02190887 0.008879585 -0.1470701
v 0.2249454 0.008879547 -0.2680615
v 0.3052396 0.2434789 -0.3939603
v 0.1356419 0.4637158 -0.4297624
v 0.1463653 0.4682196 -0.4025772
v -0.08009031 0.4682196 -0.2915837
v -0.09500808 0.4637158 -0.3167131
v -0.09500808 0.4637158 -0.3167131
v -0.08009031 0.4682196 -0.2915837
v -0.1706066 0.243479 -0.1607323
v -0.1876279 0.234514 -0.1830647
v -0.1876279 0.234514 -0.1830647
v -0.1706066 0.243479 -0.1607323
v -0.02190887 0.008879585 -0.1470701
v -0.03601131 -0.005112286 -0.1690594
v -0.03601131 -0.005112286 -0.1690594
v -0.02190887 0.008879585 -0.1470701
v 0.2249454 0.008879547 -0.2680615
v 0.2162044 -0.005112323 -0.2926787
v 0.2162044 -0.005112323 -0.2926787
v 0.2249454 0.008879547 -0.2680615
v 0.3052396 0.2434789 -0.3939603
v 0.2980156 0.2345139 -0.4210947
v 0.2980156 0.2345139 -0.4210947
v 0.3052396 0.2434789 -0.3939603
v 0.1463653 0.4682196 -0.4025772
v 0.1356419 0.4637158 -0.4297624
vt 0.7305493 0.9519051
vt 0.4999999 0.5
vt 0.2694507 0.9519054
vt 0.03890148 0.5
vt 0.2694508 0.04809472
vt 0.7305496 0.04809493
vt 0.9610986 0.5000002
vt 0.0785901 0.1688888
vt 0.05553712 0.1667579
vt 0.05553716 0.1667579
vt 0.0785901 0.1688888
vt 0.0785901 0.1688888
vt 0.05553716 0.1667579
vt 0.05553715 0.1073744
vt 0.07859004 0.1073744
vt 0.07859004 0.1073744
vt 0.05553715 0.1073744
vt 0.05553714 0.04799093
vt 0.07859005 0.04586001
vt 0.07859005 0.04586001
vt 0.05553714 0.04799093
vt 0.0555371 0.04799092
vt 0.07859007 0.04586001
vt 0.07859007 0.04586001
vt 0.0555371 0.04799092
vt 0.0555371 0.1073744
vt 0.07859004 0.1073744
vt 0.07859004 0.1073744
vt 0.0555371 0.1073744
vt 0.05553712 0.1667579
vt 0.0785901 0.1688888
vn 0.4365715 0.380402 0.8152912
vn 0.4170714 0.3193145 0.8509346
vn 0.3769533 0.380402 0.844512
vn 0.3536964 0.3210766 0.8785264
vn 0.394551 0.2597112 0.8814077
vn 0.4549533 0.2597112 0.8518026
vn 0.4777036 0.3210766 0.8177463
vn -0.06724685 0.9882578 -0.1372017
vn -0.06724685 0.9882578 -0.1372017
vn -0.06724685 0.9882578 -0.1372017
vn -0.06724684 0.9882578 -0.1372017
vn -0.767943 0.5242441 0.3680104
vn -0.767943 0.5242441 0.3680104
vn -0.767943 0.5242441 0.3680104
vn -0.767943 0.5242441 0.3680104
vn -0.6550411 -0.3766027 0.6550509
vn -0.655041 -0.3766027 0.6550509
vn -0.655041 -0.3766027 0.6550509
vn -0.655041 -0.3766027 0.6550509
vn 0.2088628 -0.8802188 0.4261353
vn 0.2088628 -0.8802188 0.4261353
vn 0.2088628 -0.8802187 0.4261353
vn 0.2088628 -0.8802187 0.4261353
vn 0.9190262 -0.3766029 -0.1164523
vn 0.9190262 -0.3766029 -0.1164523
vn 0.9190263 -0.3766029 -0.1164523
vn 0.9190262 -0.3766029 -0.1164523
vn 0.7613161 0.5242444 -0.3815306
vn 0.7613161 0.5242444 -0.3815306
vn 0.7613161 0.5242444 -0.3815305
vn 0.7613161 0.5242444 -0.3815306
g shield_level1_21_0
f 3/3/3 2/2/2 1/1/1
f 4/4/4 2/2/2 3/3/3
f 5/5/5 2/2/2 4/4/4
f 6/6/6 2/2/2 5/5/5
f 7/7/7 2/2/2 6/6/6
f 1/1/1 2/2/2 7/7/7
f 10/10/10 9/9/9 8/8/8
f 11/11/11 10/10/10 8/8/8
f 14/14/14 13/13/13 12/12/12
f 15/15/15 14/14/14 12/12/12
f 18/18/18 17/17/17 16/16/16
f 19/19/19 18/18/18 16/16/16
f 22/22/22 21/21/21 20/20/20
f 23/23/23 22/22/22 20/20/20
f 26/26/26 25/25/25 24/24/24
f 27/27/27 26/26/26 24/24/24
f 30/30/30 29/29/29 28/28/28
f 31/31/31 30/30/30 28/28/28
