g shield_level1_line
v -0.144375 -0.7501295 0.00054375
v -0.144375 -0.7501295 0.00054375
v -0.1732425 -0.8001295 0.00054375
v -0.1732425 -0.8001295 0.00054375
v 0.144375 0.7501295 0.00054375
v 0.1732388 0.8001295 0.00054375
v -0.6260598 0.08350822 0.00054375
v -0.683847 0.08341773 0.00054375
v -0.5778923 -0.4994496 0.00054375
v -0.6067953 -0.5493882 0.00054375
v -0.28875 -0.5000648 0.00054375
v -0.3176529 -0.5500034 0.00054375
v -0.1925 -0.6667746 0.00054375
v -0.240625 -0.5834197 0.00054375
v -0.2213793 -0.7167541 0.00054375
v -0.2695161 -0.6333787 0.00054375
v -0.3851308 -0.4998597 0.00054375
v -0.4815116 -0.4996547 0.00054375
v -0.4140337 -0.5497983 0.00054375
v -0.5104145 -0.5495933 0.00054375
v -0.7222673 -0.2493848 0.00054375
v -0.7800023 -0.2493848 0.00054375
v -0.6260173 -0.4160946 0.00054375
v -0.6741423 -0.3327397 0.00054375
v -0.6645309 -0.449387 0.00054375
v -0.7222666 -0.3493859 0.00054375
v -0.6260174 -0.08267493 0.00054375
v -0.6837873 -0.08273525 0.00054375
v -0.6741424 -0.1660299 0.00054375
v -0.7318947 -0.16606 0.00054375
v -0.5778925 0.0006799888 0.00054375
v -0.6356797 0.0005895036 0.00054375
v -0.3855196 0.4992295 0.00054375
v -0.4143846 0.5492296 0.00054375
v -0.6742695 0.3325196 0.00054375
v -0.7224168 0.3491259 0.00054375
v -0.6742271 0.1663364 0.00054375
v -0.7223945 0.2491647 0.00054375
v -0.7320144 0.166246 0.00054375
v -0.7801817 0.2490742 0.00054375
v -0.5780195 0.4992295 0.00054375
v -0.606887 0.5492295 0.00054375
v -0.6261445 0.4158745 0.00054375
v -0.6646519 0.4491777 0.00054375
v -0.4817696 0.4992295 0.00054375
v -0.5106358 0.5492295 0.00054375
v -0.1926732 0.6664962 0.00054375
v -0.221537 0.7164962 0.00054375
v -0.2892696 0.4992296 0.00054375
v -0.2409714 0.5828629 0.00054375
v -0.3181334 0.5492296 0.00054375
v -0.2698352 0.6328629 0.00054375
v -0.048125 0.7501295 0.00054375
v -0.05774626 0.8001295 0.00054375
v -0.144375 0.7501295 0.00054375
v -0.1732388 0.8001295 0.00054375
v 0.048125 0.7501295 0.00054375
v 0.05774625 0.8001295 0.00054375
v 0.6259487 -0.08279403 0.00054375
v 0.6836744 -0.08277775 0.00054375
v 0.5773589 0.5003734 0.00054375
v 0.6062264 0.5503734 0.00054375
v 0.2886091 0.5003735 0.00054375
v 0.3174728 0.5503735 0.00054375
v 0.192453 0.6668775 0.00054375
v 0.2405311 0.5836255 0.00054375
v 0.2213168 0.7168775 0.00054375
v 0.2693948 0.6336255 0.00054375
v 0.384859 0.5003735 0.00054375
v 0.481109 0.5003735 0.00054375
v 0.4137241 0.5503735 0.00054375
v 0.5099753 0.5503734 0.00054375
v 0.7217339 0.2503086 0.00054375
v 0.7794549 0.2503331 0.00054375
v 0.6254839 0.4170185 0.00054375
v 0.6736089 0.3336636 0.00054375
v 0.6639693 0.45036 0.00054375
v 0.721712 0.3503465 0.00054375
v 0.6257938 0.08381014 0.00054375
v 0.6835148 0.08383457 0.00054375
v 0.6737639 0.1670594 0.00054375
v 0.7314848 0.1670838 0.00054375
v 0.5778238 0.000560894 0.00054375
v 0.6355447 0.0005853184 0.00054375
v 0.3851079 -0.4998994 0.00054375
v 0.414004 -0.5498499 0.00054375
v 0.6740736 -0.3328588 0.00054375
v 0.7221956 -0.349509 0.00054375
v 0.6740737 -0.1661489 0.00054375
v 0.7221986 -0.2495039 0.00054375
v 0.731804 -0.1661408 0.00054375
v 0.7799336 -0.2495039 0.00054375
v 0.5778236 -0.4995687 0.00054375
v 0.6067198 -0.5495192 0.00054375
v 0.6259487 -0.4162138 0.00054375
v 0.6644577 -0.4495141 0.00054375
v 0.4814658 -0.4997341 0.00054375
v 0.5103619 -0.5496845 0.00054375
v 0.1925 -0.6667746 0.00054375
v 0.221377 -0.716758 0.00054375
v 0.28875 -0.5000648 0.00054375
v 0.240625 -0.5834197 0.00054375
v 0.3176461 -0.5500153 0.00054375
v 0.2695116 -0.6333866 0.00054375
v 0.048125 -0.7501295 0.00054375
v 0.0577475 -0.8001295 0.00054375
v 0.144375 -0.7501295 0.00054375
v 0.1732425 -0.8001295 0.00054375
v -0.048125 -0.7501295 0.00054375
v -0.0577475 -0.8001295 0.00054375
vt 0 0
vt 1 0
vt 1 1
vt 0 1
vt 0.5 0
vt 0.5 1
vt 0.2407407 0
vt 0.2407407 1
vt 0.1111111 0
vt 0.1111111 1
vt 0.05555556 0
vt 0.05555556 1
vt 0.01851852 0
vt 0.03703704 0
vt 0.01851852 1
vt 0.03703704 1
vt 0.07407407 0
vt 0.09259259 0
vt 0.07407407 1
vt 0.09259259 1
vt 0.1666667 0
vt 0.1666667 1
vt 0.1296296 0
vt 0.1481481 0
vt 0.1296296 1
vt 0.1481481 1
vt 0.2037037 0
vt 0.2037037 1
vt 0.1851852 0
vt 0.1851852 1
vt 0.2222222 0
vt 0.2222222 1
vt 0.3703704 0
vt 0.3703704 1
vt 0.2962963 0
vt 0.2962963 1
vt 0.2592593 0
vt 0.2777778 0
vt 0.2592593 1
vt 0.2777778 1
vt 0.3333333 0
vt 0.3333333 1
vt 0.3148148 0
vt 0.3148148 1
vt 0.3518519 0
vt 0.3518519 1
vt 0.4259259 0
vt 0.4259259 1
vt 0.3888889 0
vt 0.4074074 0
vt 0.3888889 1
vt 0.4074074 1
vt 0.462963 0
vt 0.462963 1
vt 0.4444444 0
vt 0.4444444 1
vt 0.4814815 0
vt 0.4814815 1
vt 0.7407407 0
vt 0.7407407 1
vt 0.6111111 0
vt 0.6111111 1
vt 0.5555556 0
vt 0.5555556 1
vt 0.5185185 0
vt 0.537037 0
vt 0.5185185 1
vt 0.537037 1
vt 0.5740741 0
vt 0.5925926 0
vt 0.5740741 1
vt 0.5925926 1
vt 0.6666667 0
vt 0.6666667 1
vt 0.6296296 0
vt 0.6481481 0
vt 0.6296296 1
vt 0.6481481 1
vt 0.7037037 0
vt 0.7037037 1
vt 0.6851852 0
vt 0.6851852 1
vt 0.7222222 0
vt 0.7222222 1
vt 0.8703704 0
vt 0.8703704 1
vt 0.7962963 0
vt 0.7962963 1
vt 0.7592593 0
vt 0.7777778 0
vt 0.7592593 1
vt 0.7777778 1
vt 0.8333333 0
vt 0.8333333 1
vt 0.8148148 0
vt 0.8148148 1
vt 0.8518519 0
vt 0.8518519 1
vt 0.9259259 0
vt 0.9259259 1
vt 0.8888889 0
vt 0.9074074 0
vt 0.8888889 1
vt 0.9074074 1
vt 0.962963 0
vt 0.962963 1
vt 0.9444444 0
vt 0.9444444 1
vt 0.9814815 0
vt 0.9814815 1
vn 0 0 1
vn 0 0 1
vn 0 0 1
vn 0 0 1
vn 0 0 1
vn 0 0 1
vn 0 0 1
vn 0 0 1
vn 0 0 1
vn 0 0 1
vn 0 0 1
vn 0 0 1
vn 0 0 1
vn 0 0 1
vn 0 0 1
vn 0 0 1
vn 0 0 1
vn 0 0 1
vn 0 0 1
vn 0 0 1
vn 0 0 1
vn 0 0 1
vn 0 0 1
vn 0 0 1
vn 0 0 1
vn 0 0 1
vn 0 0 1
vn 0 0 1
vn 0 0 1
vn 0 0 1
vn 0 0 1
vn 0 0 1
vn 0 0 1
vn 0 0 1
vn 0 0 1
vn 0 0 1
vn 0 0 1
vn 0 0 1
vn 0 0 1
vn 0 0 1
vn 0 0 1
vn 0 0 1
vn 0 0 1
vn 0 0 1
vn 0 0 1
vn 0 0 1
vn 0 0 1
vn 0 0 1
vn 0 0 1
vn 0 0 1
vn 0 0 1
vn 0 0 1
vn 0 0 1
vn 0 0 1
vn 0 0 1
vn 0 0 1
vn 0 0 1
vn 0 0 1
vn 0 0 1
vn 0 0 1
vn 0 0 1
vn 0 0 1
vn 0 0 1
vn 0 0 1
vn 0 0 1
vn 0 0 1
vn 0 0 1
vn 0 0 1
vn 0 0 1
vn 0 0 1
vn 0 0 1
vn 0 0 1
vn 0 0 1
vn 0 0 1
vn 0 0 1
vn 0 0 1
vn 0 0 1
vn 0 0 1
vn 0 0 1
vn 0 0 1
vn 0 0 1
vn 0 0 1
vn 0 0 1
vn 0 0 1
vn 0 0 1
vn 0 0 1
vn 0 0 1
vn 0 0 1
vn 0 0 1
vn 0 0 1
vn 0 0 1
vn 0 0 1
vn 0 0 1
vn 0 0 1
vn 0 0 1
vn 0 0 1
vn 0 0 1
vn 0 0 1
vn 0 0 1
vn 0 0 1
vn 0 0 1
vn 0 0 1
vn 0 0 1
vn 0 0 1
vn 0 0 1
vn 0 0 1
vn 0 0 1
vn 0 0 1
vn 0 0 1
vn 0 0 1
g shield_level1_line_0
f 12/12/12 16/16/16 14/14/14
f 11/11/11 12/12/12 14/14/14
f 14/14/14 16/16/16 15/15/15
f 13/13/13 14/14/14 15/15/15
f 1/1/1 13/13/13 15/15/15
f 4/4/4 1/1/1 15/15/15
f 12/12/12 11/11/11 19/19/19
f 11/11/11 17/17/17 19/19/19
f 17/17/17 18/18/18 19/19/19
f 18/18/18 20/20/20 19/19/19
f 10/10/10 20/20/20 18/18/18
f 9/9/9 10/10/10 18/18/18
f 10/10/10 9/9/9 25/25/25
f 9/9/9 23/23/23 25/25/25
f 23/23/23 24/24/24 25/25/25
f 24/24/24 26/26/26 25/25/25
f 22/22/22 26/26/26 24/24/24
f 21/21/21 22/22/22 24/24/24
f 21/21/21 29/29/29 22/22/22
f 29/29/29 30/30/30 22/22/22
f 28/28/28 30/30/30 29/29/29
f 27/27/27 28/28/28 29/29/29
f 27/27/27 31/31/31 28/28/28
f 31/31/31 32/32/32 28/28/28
f 8/8/8 32/32/32 31/31/31
f 7/7/7 8/8/8 31/31/31
f 8/8/8 7/7/7 39/39/39
f 7/7/7 37/37/37 39/39/39
f 37/37/37 38/38/38 39/39/39
f 38/38/38 40/40/40 39/39/39
f 36/36/36 40/40/40 38/38/38
f 35/35/35 36/36/36 38/38/38
f 35/35/35 43/43/43 36/36/36
f 43/43/43 44/44/44 36/36/36
f 42/42/42 44/44/44 43/43/43
f 41/41/41 42/42/42 43/43/43
f 41/41/41 45/45/45 42/42/42
f 45/45/45 46/46/46 42/42/42
f 34/34/34 46/46/46 45/45/45
f 33/33/33 34/34/34 45/45/45
f 34/34/34 33/33/33 51/51/51
f 33/33/33 49/49/49 51/51/51
f 49/49/49 50/50/50 51/51/51
f 50/50/50 52/52/52 51/51/51
f 48/48/48 52/52/52 50/50/50
f 47/47/47 48/48/48 50/50/50
f 47/47/47 55/55/55 48/48/48
f 55/55/55 56/56/56 48/48/48
f 54/54/54 56/56/56 55/55/55
f 53/53/53 54/54/54 55/55/55
f 53/53/53 57/57/57 54/54/54
f 57/57/57 58/58/58 54/54/54
f 6/6/6 58/58/58 57/57/57
f 5/5/5 6/6/6 57/57/57
f 6/6/6 5/5/5 67/67/67
f 5/5/5 65/65/65 67/67/67
f 65/65/65 66/66/66 67/67/67
f 66/66/66 68/68/68 67/67/67
f 64/64/64 68/68/68 66/66/66
f 63/63/63 64/64/64 66/66/66
f 64/64/64 63/63/63 71/71/71
f 63/63/63 69/69/69 71/71/71
f 69/69/69 70/70/70 71/71/71
f 70/70/70 72/72/72 71/71/71
f 62/62/62 72/72/72 70/70/70
f 61/61/61 62/62/62 70/70/70
f 62/62/62 61/61/61 77/77/77
f 61/61/61 75/75/75 77/77/77
f 75/75/75 76/76/76 77/77/77
f 76/76/76 78/78/78 77/77/77
f 74/74/74 78/78/78 76/76/76
f 73/73/73 74/74/74 76/76/76
f 73/73/73 81/81/81 74/74/74
f 81/81/81 82/82/82 74/74/74
f 80/80/80 82/82/82 81/81/81
f 79/79/79 80/80/80 81/81/81
f 79/79/79 83/83/83 80/80/80
f 83/83/83 84/84/84 80/80/80
f 60/60/60 84/84/84 83/83/83
f 59/59/59 60/60/60 83/83/83
f 60/60/60 59/59/59 91/91/91
f 59/59/59 89/89/89 91/91/91
f 89/89/89 90/90/90 91/91/91
f 90/90/90 92/92/92 91/91/91
f 88/88/88 92/92/92 90/90/90
f 87/87/87 88/88/88 90/90/90
f 87/87/87 95/95/95 88/88/88
f 95/95/95 96/96/96 88/88/88
f 94/94/94 96/96/96 95/95/95
f 93/93/93 94/94/94 95/95/95
f 93/93/93 97/97/97 94/94/94
f 97/97/97 98/98/98 94/94/94
f 86/86/86 98/98/98 97/97/97
f 85/85/85 86/86/86 97/97/97
f 86/86/86 85/85/85 103/103/103
f 85/85/85 101/101/101 103/103/103
f 101/101/101 102/102/102 103/103/103
f 102/102/102 104/104/104 103/103/103
f 100/100/100 104/104/104 102/102/102
f 99/99/99 100/100/100 102/102/102
f 99/99/99 107/107/107 100/100/100
f 107/107/107 108/108/108 100/100/100
f 106/106/106 108/108/108 107/107/107
f 105/105/105 106/106/106 107/107/107
f 105/105/105 109/109/109 106/106/106
f 109/109/109 110/110/110 106/106/106
f 3/3/3 110/110/110 109/109/109
f 2/2/2 3/3/3 109/109/109
