g shield_level1_19
v 0.1472552 0.4786704 -0.1066375
v 0.001492744 0.2491174 -0.0402258
v -0.1321448 0.4805843 -0.1234844
v -0.2765985 0.2447774 -0.07655994
v -0.1402504 0.008615562 -0.01299579
v 0.1397638 0.009625006 0.003276727
v 0.2813663 0.2463832 -0.04411622
v 0.1519621 0.4767753 -0.1358348
v 0.1472552 0.4786704 -0.1066375
v -0.1321448 0.4805843 -0.1234844
v -0.1332197 0.4788203 -0.1530557
v -0.1332197 0.4788203 -0.1530557
v -0.1321448 0.4805843 -0.1234844
v -0.2765985 0.2447774 -0.07655994
v -0.2806869 0.2381206 -0.1051611
v -0.2806869 0.2381206 -0.1051611
v -0.2765985 0.2447774 -0.07655994
v -0.1402504 0.008615562 -0.01299579
v -0.1415445 -0.002880887 -0.04029432
v -0.1415445 -0.002880887 -0.04029432
v -0.1402504 0.008615562 -0.01299579
v 0.1397638 0.009625006 0.003276727
v 0.1442873 -0.00183587 -0.02368468
v 0.1442873 -0.00183587 -0.02368468
v 0.1397638 0.009625006 0.003276727
v 0.2813663 0.2463832 -0.04411622
v 0.2887394 0.23987 -0.07207051
v 0.2887394 0.23987 -0.07207051
v 0.2813663 0.2463832 -0.04411622
v 0.1472552 0.4786704 -0.1066375
v 0.1519621 0.4767753 -0.1358348
vt 0.7305493 0.9519051
vt 0.4999999 0.5
vt 0.2694507 0.9519054
vt 0.03890148 0.5
vt 0.2694508 0.04809472
vt 0.7305496 0.04809493
vt 0.9610986 0.5000002
vt 0.07859007 0.3109502
vt 0.05553705 0.3088193
vt 0.0555371 0.3088193
vt 0.07859007 0.3109502
vt 0.07859007 0.3109502
vt 0.0555371 0.3088193
vt 0.05553713 0.2494359
vt 0.07859004 0.2494359
vt 0.07859004 0.2494359
vt 0.05553713 0.2494359
vt 0.05553713 0.1900524
vt 0.07859007 0.1879214
vt 0.07859007 0.1879214
vt 0.05553713 0.1900524
vt 0.0555371 0.1900524
vt 0.07859007 0.1879214
vt 0.07859007 0.1879214
vt 0.0555371 0.1900524
vt 0.05553707 0.2494359
vt 0.07859004 0.2494359
vt 0.07859004 0.2494359
vt 0.05553707 0.2494359
vt 0.05553705 0.3088193
vt 0.07859007 0.3109502
vn -0.01961027 0.2893292 0.9570288
vn -0.05737247 0.2284575 0.9718619
vn -0.09216517 0.2894867 0.9527345
vn -0.1296389 0.2280621 0.9649774
vn -0.0941705 0.1666292 0.9815124
vn -0.02130748 0.1667575 0.9857677
vn 0.01576067 0.2280648 0.9735184
vn 0.01070831 0.9980509 -0.06148043
vn 0.01070831 0.9980509 -0.06148044
vn 0.01070832 0.9980509 -0.06148044
vn 0.01070831 0.9980509 -0.06148043
vn -0.8527007 0.5223998 6.172415E-05
vn -0.8527007 0.5223998 6.172415E-05
vn -0.8527007 0.5223998 6.172414E-05
vn -0.8527007 0.5223998 6.172415E-05
vn -0.8686576 -0.4405046 0.2266929
vn -0.8686576 -0.4405046 0.2266929
vn -0.8686576 -0.4405046 0.2266929
vn -0.8686576 -0.4405046 0.2266929
vn -0.01923824 -0.9211999 0.3886137
vn -0.01923824 -0.9211999 0.3886137
vn -0.01923824 -0.9211999 0.3886137
vn -0.01923824 -0.9211999 0.3886136
vn 0.8390176 -0.4366232 0.3246684
vn 0.8390176 -0.4366232 0.3246684
vn 0.8390176 -0.4366232 0.3246685
vn 0.8390176 -0.4366232 0.3246685
vn 0.8491086 0.5180266 0.1032617
vn 0.8491086 0.5180266 0.1032617
vn 0.8491086 0.5180266 0.1032617
vn 0.8491086 0.5180266 0.1032617
g shield_level1_19_0
f 3/3/3 2/2/2 1/1/1
f 4/4/4 2/2/2 3/3/3
f 5/5/5 2/2/2 4/4/4
f 6/6/6 2/2/2 5/5/5
f 7/7/7 2/2/2 6/6/6
f 1/1/1 2/2/2 7/7/7
f 10/10/10 9/9/9 8/8/8
f 11/11/11 10/10/10 8/8/8
f 14/14/14 13/13/13 12/12/12
f 15/15/15 14/14/14 12/12/12
f 18/18/18 17/17/17 16/16/16
f 19/19/19 18/18/18 16/16/16
f 22/22/22 21/21/21 20/20/20
f 23/23/23 22/22/22 20/20/20
f 26/26/26 25/25/25 24/24/24
f 27/27/27 26/26/26 24/24/24
f 30/30/30 29/29/29 28/28/28
f 31/31/31 30/30/30 28/28/28
