g Shield_level1_lines4
v 0.2368283 0.0294265 -0.01689835
v 0.2851237 0.0294265 -0.023524
v 0.2846436 -0.02309797 -0.02671739
v 0.2539496 -0.02309796 -0.02236023
v 0.1065284 -0.1881271 -0.02895747
v 0.1333358 -0.2309355 -0.0381656
v 0.006212933 -0.189151 -0.02630182
v -0.02551099 -0.2305821 -0.03381043
v -0.02325984 -0.1533713 -0.02083097
v -0.05214322 -0.1927195 -0.02758173
v -0.09774014 -0.1528772 -0.02331113
v -0.1680946 -0.1925153 -0.03462768
v 0.09109948 0.1710429 -0.002651739
v 0.1060951 0.2592008 -0.007450485
v 0.1221369 0.1311445 -0.003789996
v 0.1739828 0.1231857 -0.007585651
v 0.09589706 0.09103439 -0.002625395
v 0.1484677 0.08390835 -0.00590465
v 0.1503204 0.000857024 -0.009839888
v 0.2020153 -0.004876165 -0.01480481
v 0.09231403 -0.1036676 -0.01601327
v 0.1120738 -0.1509725 -0.02325824
v -0.0665293 -0.1038153 -0.01525655
v -0.0925063 -0.1507717 -0.02256667
v -0.1033476 -0.04828637 -0.01105855
v -0.1332353 -0.08910024 -0.01704364
v -0.1234487 -0.04771271 -0.01225568
v -0.1525582 -0.08863232 -0.01849927
v -0.1772194 0.03401161 -0.01093163
v -0.2322838 0.0363871 -0.01676341
v -0.1044759 0.1622795 -0.003535192
v -0.1037708 0.2506043 -0.00714403
v -0.09146125 0.142213 -0.002547199
v -0.06241509 0.1840086 -0.001995135
v -0.00112586 0.1420914 -0.0001604515
v 0.02316746 0.1839481 -0.0009381556
v 0.09036848 0.01085706 -0.005504783
v 0.1431285 0.007335785 -0.008723491
v 0.08091088 -0.01421052 -0.006775982
v 0.07714743 -0.1023093 -0.01503873
v 0.01878746 0.0855982 -0.0005476262
v 0.01451703 -0.001331679 -0.0041702
v -0.05671206 -0.0440588 -0.008603146
v -0.05911012 -0.1282767 -0.01797633
v -0.1079984 0.02647781 -0.005941893
v -0.1633942 0.02425469 -0.009995772
v -0.09651801 0.0456611 -0.004395315
v -0.09512232 0.1439057 -0.002595821
v -0.0284937 0.029436 -0.002608959
v -0.05451437 -0.01358443 -0.006050749
vt 0.9736842 0
vt 1 0
vt 1 1
vt 0.9736842 1
vt 0.9473684 0
vt 0.9473685 1
vt 0.9210526 0
vt 0.9210527 1
vt 0.8947368 0
vt 0.8947369 1
vt 0.8684211 0
vt 0.8684211 1
vt 0.8421053 0
vt 0.8421053 1
vt 0.6578947 0
vt 0.6578947 1
vt 0.6315789 0
vt 0.6315789 1
vt 0.6052632 0
vt 0.6052632 1
vt 0.5789474 0
vt 0.5789474 1
vt 0.4736842 0
vt 0.4736843 1
vt 0.4473684 0
vt 0.4473684 1
vt 0.4210526 0
vt 0.4210527 1
vt 0.3947368 0
vt 0.3947369 1
vt 0.3157895 0
vt 0.3157895 1
vt 0.3078166 0
vt 0.3078166 1
vt 0.2894737 0
vt 0.2894737 1
vt 0.2631579 0
vt 0.2631579 1
vt 0.2368421 0
vt 0.2368421 1
vt 0.2105263 0
vt 0.2105263 1
vt 0.07894734 2.980232E-08
vt 0.0789474 1
vt 0.05263156 2.980232E-08
vt 0.05263162 1
vt 0.02631575 2.980232E-08
vt 0.02631581 1
vt 2.980232E-08 1
vt 0 2.980232E-08
vn -0.002369132 0.002017952 0.9999952
vn 0 0.002921861 0.9999957
vn 0 0.002921861 0.9999957
vn -0.002616203 0.001923684 0.9999948
vn -0.001970956 0.002407985 0.9999952
vn -0.002056603 0.002356119 0.9999951
vn 0.0006093651 0.003171334 0.9999948
vn 0.0008908254 0.00297813 0.9999952
vn 0.001140281 0.002942608 0.999995
vn 0.0008507441 0.003170621 0.9999946
vn 0.002914124 -0.001020556 0.9999952
vn 0.002920255 -0.00103081 0.9999952
vn 0.002342633 -0.002035341 0.9999952
vn 0.001490477 -0.001951876 0.999997
vn -0.00272322 -0.0006220501 0.9999961
vn -0.002719189 -0.0003690462 0.9999962
vn -0.002979011 -0.0004639408 0.9999955
vn -0.003017782 -0.0007567108 0.9999952
vn -0.003056565 0.0001593769 0.9999953
vn -0.003039997 0.0004559723 0.9999953
vn -0.001362357 0.002546649 0.9999958
vn -0.001122581 0.002667711 0.9999958
vn 0.0007409675 0.002825803 0.9999957
vn 0.0007637563 0.002813218 0.9999958
vn 0.002259111 0.00206712 0.9999953
vn 0.002115536 0.002173784 0.9999954
vn 0.002418413 0.002058214 0.9999949
vn 0.00251006 0.001994449 0.9999949
vn 0.002819212 -0.0002974586 0.999996
vn 0.002820716 -0.0004406203 0.9999959
vn 0.001703595 -0.001685431 0.9999971
vn 0.001633457 -0.001686232 0.9999973
vn -0.001232084 -0.002808807 0.9999953
vn -0.001031763 -0.002949794 0.9999951
vn -0.002002914 -0.002572858 0.9999947
vn -0.002076691 -0.002532246 0.9999946
vn -0.002989444 -0.001064739 0.999995
vn -0.002996349 -0.000767551 0.9999952
vn 0.0004086041 0.001661085 0.9999985
vn 0.0007723806 0.001657117 0.9999983
vn -1.476204E-05 0.001765058 0.9999985
vn -0.0004358404 0.001785492 0.9999983
vn -0.000297795 0.001860106 0.9999982
vn 0.0001451688 0.001850592 0.9999983
vn 0.002669072 0.0005549748 0.9999963
vn 0.002669021 0.0005558011 0.9999963
vn -0.0002493581 -0.001640812 0.9999986
vn -0.0003963407 -0.001641786 0.9999986
vn -0.002652013 -0.001656725 0.9999951
vn -0.002652013 -0.001656725 0.9999951
g Shield_level1_lines4_0
f 3/3/3 2/2/2 1/1/1
f 4/4/4 3/3/3 1/1/1
f 4/4/4 1/1/1 5/5/5
f 6/6/6 4/4/4 5/5/5
f 6/6/6 5/5/5 7/7/7
f 8/8/8 6/6/6 7/7/7
f 8/8/8 7/7/7 9/9/9
f 10/10/10 8/8/8 9/9/9
f 10/10/10 9/9/9 11/11/11
f 12/12/12 10/10/10 11/11/11
f 12/12/12 11/11/11 13/13/13
f 14/14/14 12/12/12 13/13/13
f 14/14/14 13/13/13 15/15/15
f 16/16/16 14/14/14 15/15/15
f 16/16/16 15/15/15 17/17/17
f 18/18/18 16/16/16 17/17/17
f 18/18/18 17/17/17 19/19/19
f 20/20/20 18/18/18 19/19/19
f 20/20/20 19/19/19 21/21/21
f 22/22/22 20/20/20 21/21/21
f 22/22/22 21/21/21 23/23/23
f 24/24/24 22/22/22 23/23/23
f 24/24/24 23/23/23 25/25/25
f 26/26/26 24/24/24 25/25/25
f 26/26/26 25/25/25 27/27/27
f 28/28/28 26/26/26 27/27/27
f 28/28/28 27/27/27 29/29/29
f 30/30/30 28/28/28 29/29/29
f 30/30/30 29/29/29 31/31/31
f 32/32/32 30/30/30 31/31/31
f 32/32/32 31/31/31 33/33/33
f 34/34/34 32/32/32 33/33/33
f 34/34/34 33/33/33 35/35/35
f 36/36/36 34/34/34 35/35/35
f 36/36/36 35/35/35 37/37/37
f 38/38/38 36/36/36 37/37/37
f 38/38/38 37/37/37 39/39/39
f 40/40/40 38/38/38 39/39/39
f 40/40/40 39/39/39 41/41/41
f 42/42/42 40/40/40 41/41/41
f 42/42/42 41/41/41 43/43/43
f 44/44/44 42/42/42 43/43/43
f 44/44/44 43/43/43 45/45/45
f 46/46/46 44/44/44 45/45/45
f 46/46/46 45/45/45 47/47/47
f 48/48/48 46/46/46 47/47/47
f 48/48/48 47/47/47 49/49/49
f 47/47/47 50/50/50 49/49/49
