g shield_level1_24
v 0.1941644 0.4852173 -0.3207763
v 0.1043593 0.2503743 -0.2017953
v -0.04469734 0.4852173 -0.2036824
v -0.1508516 0.2503744 -0.09902713
v -0.009287853 0.009532337 -0.1157477
v 0.2419862 0.009532299 -0.2389262
v 0.3419107 0.2503743 -0.3405871
v 0.183481 0.4845027 -0.3483797
v 0.1941644 0.4852173 -0.3207763
v -0.04469734 0.4852173 -0.2036824
v -0.05997352 0.4845027 -0.2290345
v -0.05997352 0.4845027 -0.2290345
v -0.04469734 0.4852173 -0.2036824
v -0.1508516 0.2503744 -0.09902713
v -0.1684801 0.2449191 -0.122153
v -0.1684801 0.2449191 -0.122153
v -0.1508516 0.2503744 -0.09902713
v -0.009287853 0.009532337 -0.1157477
v -0.02406776 -0.001007843 -0.139189
v -0.02406776 -0.001007843 -0.139189
v -0.009287853 0.009532337 -0.1157477
v 0.2419862 0.009532299 -0.2389262
v 0.2325091 -0.001007881 -0.2649671
v 0.2325091 -0.001007881 -0.2649671
v 0.2419862 0.009532299 -0.2389262
v 0.3419107 0.2503743 -0.3405871
v 0.3344278 0.2449191 -0.3686866
v 0.3344278 0.2449191 -0.3686866
v 0.3419107 0.2503743 -0.3405871
v 0.1941644 0.4852173 -0.3207763
v 0.183481 0.4845027 -0.3483797
vt 0.7305493 0.9519051
vt 0.4999999 0.5
vt 0.2694507 0.9519054
vt 0.03890148 0.5
vt 0.2694508 0.04809472
vt 0.7305496 0.04809493
vt 0.9610986 0.5000002
vt 0.0785901 0.1688888
vt 0.05553712 0.1667579
vt 0.05553716 0.1667579
vt 0.0785901 0.1688888
vt 0.0785901 0.1688888
vt 0.05553716 0.1667579
vt 0.05553715 0.1073744
vt 0.07859004 0.1073744
vt 0.07859004 0.1073744
vt 0.05553715 0.1073744
vt 0.05553714 0.04799093
vt 0.07859005 0.04586001
vt 0.07859005 0.04586001
vt 0.05553714 0.04799093
vt 0.0555371 0.04799092
vt 0.07859007 0.04586001
vt 0.07859007 0.04586001
vt 0.0555371 0.04799092
vt 0.0555371 0.1073744
vt 0.07859004 0.1073744
vt 0.07859004 0.1073744
vt 0.0555371 0.1073744
vt 0.05553712 0.1667579
vt 0.0785901 0.1688888
vn 0.4567467 0.2568492 0.8517106
vn 0.4317876 0.1942463 0.8808109
vn 0.3934973 0.2568492 0.8827165
vn 0.3663339 0.1953717 0.9097414
vn 0.4041168 0.1326575 0.9050367
vn 0.4678858 0.1326575 0.8737763
vn 0.4947464 0.1953716 0.8467916
vn -0.01066274 0.9997066 -0.02175048
vn -0.01066274 0.9997066 -0.02175048
vn -0.01066274 0.9997066 -0.02175048
vn -0.01066274 0.9997066 -0.02175048
vn -0.7340012 0.524487 0.4314576
vn -0.7340012 0.524487 0.4314576
vn -0.7340012 0.524487 0.4314576
vn -0.7340012 0.524487 0.4314576
vn -0.6637335 -0.4322733 0.6104077
vn -0.6637335 -0.4322734 0.6104077
vn -0.6637335 -0.4322734 0.6104077
vn -0.6637335 -0.4322734 0.6104077
vn 0.1572644 -0.9339972 0.320807
vn 0.1572644 -0.9339972 0.320807
vn 0.1572644 -0.9339972 0.320807
vn 0.1572644 -0.9339972 0.320807
vn 0.8890458 -0.4322731 -0.1507896
vn 0.8890458 -0.4322731 -0.1507896
vn 0.8890458 -0.4322731 -0.1507896
vn 0.8890458 -0.4322731 -0.1507895
vn 0.79063 0.5244861 -0.3159407
vn 0.79063 0.5244861 -0.3159407
vn 0.79063 0.5244861 -0.3159407
vn 0.79063 0.5244861 -0.3159407
g shield_level1_24_0
f 3/3/3 2/2/2 1/1/1
f 4/4/4 2/2/2 3/3/3
f 5/5/5 2/2/2 4/4/4
f 6/6/6 2/2/2 5/5/5
f 7/7/7 2/2/2 6/6/6
f 1/1/1 2/2/2 7/7/7
f 10/10/10 9/9/9 8/8/8
f 11/11/11 10/10/10 8/8/8
f 14/14/14 13/13/13 12/12/12
f 15/15/15 14/14/14 12/12/12
f 18/18/18 17/17/17 16/16/16
f 19/19/19 18/18/18 16/16/16
f 22/22/22 21/21/21 20/20/20
f 23/23/23 22/22/22 20/20/20
f 26/26/26 25/25/25 24/24/24
f 27/27/27 26/26/26 24/24/24
f 30/30/30 29/29/29 28/28/28
f 31/31/31 30/30/30 28/28/28
