g shield_level1_3
v 0.1323851 0.4810124 -0.120585
v -0.001422779 0.2492504 -0.03846533
v -0.1470524 0.4789961 -0.1044784
v -0.2812795 0.246508 -0.04310374
v -0.1397795 0.009609529 0.003860817
v 0.1402766 0.008673325 -0.01167622
v 0.2767635 0.2450755 -0.07408407
v 0.1335372 0.4793486 -0.150159
v 0.1323851 0.4810124 -0.120585
v -0.1470524 0.4789961 -0.1044784
v -0.1516828 0.4771986 -0.1336939
v -0.1516828 0.4771986 -0.1336939
v -0.1470524 0.4789961 -0.1044784
v -0.2812795 0.246508 -0.04310374
v -0.288578 0.2400893 -0.07109931
v -0.288578 0.2400893 -0.07109931
v -0.2812795 0.246508 -0.04310374
v -0.1397795 0.009609529 0.003860817
v -0.1442311 -0.001760005 -0.02315105
v -0.1442311 -0.001760005 -0.02315105
v -0.1397795 0.009609529 0.003860817
v 0.1402766 0.008673325 -0.01167622
v 0.1416437 -0.002730788 -0.03900992
v 0.1416437 -0.002730788 -0.03900992
v 0.1402766 0.008673325 -0.01167622
v 0.2767635 0.2450755 -0.07408407
v 0.280928 0.2385166 -0.1026969
v 0.280928 0.2385166 -0.1026969
v 0.2767635 0.2450755 -0.07408407
v 0.1323851 0.4810124 -0.120585
v 0.1335372 0.4793486 -0.150159
vt 0.7305493 0.9519051
vt 0.4999999 0.5
vt 0.2694507 0.9519054
vt 0.03890148 0.5
vt 0.2694508 0.04809472
vt 0.7305496 0.04809493
vt 0.9610986 0.5000002
vt 0.07859007 0.3109502
vt 0.05553705 0.3088193
vt 0.0555371 0.3088193
vt 0.07859007 0.3109502
vt 0.07859007 0.3109502
vt 0.0555371 0.3088193
vt 0.05553713 0.2494359
vt 0.07859004 0.2494359
vt 0.07859004 0.2494359
vt 0.05553713 0.2494359
vt 0.05553713 0.1900524
vt 0.07859007 0.1879214
vt 0.07859007 0.1879214
vt 0.05553713 0.1900524
vt 0.0555371 0.1900524
vt 0.07859007 0.1879214
vt 0.07859007 0.1879214
vt 0.0555371 0.1900524
vt 0.05553707 0.2494359
vt 0.07859004 0.2494359
vt 0.07859004 0.2494359
vt 0.05553707 0.2494359
vt 0.05553705 0.3088193
vt 0.07859007 0.3109502
vn 0.08961771 0.2862695 0.9539489
vn 0.05478923 0.2251713 0.9727775
vn 0.0170531 0.2860873 0.9580518
vn -0.01834981 0.2247676 0.9742396
vn 0.01869337 0.1634248 0.9863787
vn 0.09156889 0.1633181 0.9823148
vn 0.1270702 0.2248083 0.966082
vn -0.01071944 0.9982509 -0.05813992
vn -0.01071944 0.9982509 -0.05813993
vn -0.01071944 0.9982509 -0.05813992
vn -0.01071944 0.9982509 -0.05813994
vn -0.8494482 0.5175641 0.1027875
vn -0.8494482 0.5175641 0.1027875
vn -0.8494482 0.5175641 0.1027875
vn -0.8494482 0.5175641 0.1027875
vn -0.8398256 -0.4378034 0.3209692
vn -0.8398256 -0.4378033 0.3209692
vn -0.8398256 -0.4378033 0.3209692
vn -0.8398256 -0.4378033 0.3209692
vn 0.01828003 -0.9225091 0.3855422
vn 0.01828003 -0.9225091 0.3855421
vn 0.01828003 -0.9225091 0.3855421
vn 0.01828003 -0.9225091 0.3855421
vn 0.8681207 -0.4411579 0.2274776
vn 0.8681207 -0.4411579 0.2274776
vn 0.8681207 -0.4411579 0.2274776
vn 0.8681207 -0.4411579 0.2274776
vn 0.8525919 0.5225615 0.004055291
vn 0.8525919 0.5225615 0.004055291
vn 0.8525919 0.5225616 0.004055291
vn 0.8525919 0.5225616 0.004055291
g shield_level1_3_0
f 3/3/3 2/2/2 1/1/1
f 4/4/4 2/2/2 3/3/3
f 5/5/5 2/2/2 4/4/4
f 6/6/6 2/2/2 5/5/5
f 7/7/7 2/2/2 6/6/6
f 1/1/1 2/2/2 7/7/7
f 10/10/10 9/9/9 8/8/8
f 11/11/11 10/10/10 8/8/8
f 14/14/14 13/13/13 12/12/12
f 15/15/15 14/14/14 12/12/12
f 18/18/18 17/17/17 16/16/16
f 19/19/19 18/18/18 16/16/16
f 22/22/22 21/21/21 20/20/20
f 23/23/23 22/22/22 20/20/20
f 26/26/26 25/25/25 24/24/24
f 27/27/27 26/26/26 24/24/24
f 30/30/30 29/29/29 28/28/28
f 31/31/31 30/30/30 28/28/28
