g shield_level1_9
v 0.2531988 0.4369117 -0.3133694
v 0.1323445 0.227586 -0.1721487
v -0.01626703 0.4561913 -0.2379358
v -0.1419791 0.2384516 -0.1146837
v 0.002505999 0.002699127 -0.06758218
v 0.2712867 -0.01376984 -0.1439805
v 0.3949312 0.2003886 -0.2652055
v 0.2478179 0.4312266 -0.3419605
v 0.2531988 0.4369117 -0.3133694
v -0.01626703 0.4561913 -0.2379358
v -0.02724762 0.4509196 -0.2649671
v -0.02724762 0.4509196 -0.2649671
v -0.01626703 0.4561913 -0.2379358
v -0.1419791 0.2384516 -0.1146837
v -0.1555361 0.2287176 -0.139189
v -0.1555361 0.2287176 -0.139189
v -0.1419791 0.2384516 -0.1146837
v 0.002505999 0.002699127 -0.06758218
v -0.008036537 -0.0119261 -0.09111273
v -0.008036537 -0.0119261 -0.09111273
v 0.002505999 0.002699127 -0.06758218
v 0.2712867 -0.01376984 -0.1439805
v 0.2663053 -0.02864584 -0.1691224
v 0.2663053 -0.02864584 -0.1691224
v 0.2712867 -0.01376984 -0.1439805
v 0.3949312 0.2003886 -0.2652055
v 0.3924077 0.1897701 -0.2927574
v 0.3924077 0.1897701 -0.2927574
v 0.3949312 0.2003886 -0.2652055
v 0.2531988 0.4369117 -0.3133694
v 0.2478179 0.4312266 -0.3419605
vt 0.7305493 0.9519051
vt 0.4999999 0.5
vt 0.2694507 0.9519054
vt 0.03890148 0.5
vt 0.2694508 0.04809472
vt 0.7305496 0.04809493
vt 0.9610986 0.5000002
vt 0.0785901 0.1688888
vt 0.05553712 0.1667579
vt 0.05553716 0.1667579
vt 0.0785901 0.1688888
vt 0.0785901 0.1688888
vt 0.05553716 0.1667579
vt 0.05553715 0.1073744
vt 0.07859004 0.1073744
vt 0.07859004 0.1073744
vt 0.05553715 0.1073744
vt 0.05553714 0.04799093
vt 0.07859005 0.04586001
vt 0.07859005 0.04586001
vt 0.05553714 0.04799093
vt 0.0555371 0.04799092
vt 0.07859007 0.04586001
vt 0.07859007 0.04586001
vt 0.0555371 0.04799092
vt 0.0555371 0.1073744
vt 0.07859004 0.1073744
vt 0.07859004 0.1073744
vt 0.0555371 0.1073744
vt 0.05553712 0.1667579
vt 0.0785901 0.1688888
vn 0.3080689 0.4034104 0.8615994
vn 0.2756618 0.3480479 0.896032
vn 0.2379569 0.4083036 0.8812858
vn 0.205256 0.351664 0.9133468
vn 0.2427399 0.2902573 0.92565
vn 0.3125451 0.2856539 0.9059346
vn 0.3451558 0.3421375 0.8739619
vn 0.0148803 0.9801981 -0.1974597
vn 0.0148803 0.9801981 -0.1974597
vn 0.0148803 0.9801981 -0.1974597
vn 0.0148803 0.9801981 -0.1974597
vn -0.7909402 0.5750392 0.2091494
vn -0.7909402 0.5750392 0.2091494
vn -0.7909402 0.5750391 0.2091494
vn -0.7909402 0.5750392 0.2091494
vn -0.7535675 -0.3507919 0.5559506
vn -0.7535675 -0.3507919 0.5559506
vn -0.7535675 -0.3507919 0.5559506
vn -0.7535674 -0.3507919 0.5559507
vn 0.08810318 -0.8640589 0.4956208
vn 0.0881032 -0.8640589 0.4956208
vn 0.08810318 -0.8640589 0.4956208
vn 0.08810318 -0.8640589 0.4956208
vn 0.8844587 -0.4568332 0.0950592
vn 0.8844587 -0.4568332 0.09505921
vn 0.8844587 -0.4568332 0.0950592
vn 0.8844586 -0.4568332 0.0950592
vn 0.8517877 0.4586806 -0.2531203
vn 0.8517877 0.4586806 -0.2531203
vn 0.8517877 0.4586806 -0.2531203
vn 0.8517876 0.4586806 -0.2531203
g shield_level1_9_0
f 3/3/3 2/2/2 1/1/1
f 4/4/4 2/2/2 3/3/3
f 5/5/5 2/2/2 4/4/4
f 6/6/6 2/2/2 5/5/5
f 7/7/7 2/2/2 6/6/6
f 1/1/1 2/2/2 7/7/7
f 10/10/10 9/9/9 8/8/8
f 11/11/11 10/10/10 8/8/8
f 14/14/14 13/13/13 12/12/12
f 15/15/15 14/14/14 12/12/12
f 18/18/18 17/17/17 16/16/16
f 19/19/19 18/18/18 16/16/16
f 22/22/22 21/21/21 20/20/20
f 23/23/23 22/22/22 20/20/20
f 26/26/26 25/25/25 24/24/24
f 27/27/27 26/26/26 24/24/24
f 30/30/30 29/29/29 28/28/28
f 31/31/31 30/30/30 28/28/28
