g shield_level1_18
v 0.1265738 0.4699465 -0.1539494
v -0.004784001 0.2424282 -0.0721303
v -0.1510358 0.4588813 -0.1677211
v -0.2806033 0.2344639 -0.1073362
v -0.1406948 0.007023827 -0.02938889
v 0.1387443 0.009299828 -0.0140018
v 0.2750208 0.2453376 -0.07751343
v 0.1307967 0.4663865 -0.1830156
v 0.1265738 0.4699465 -0.1539494
v -0.1510358 0.4588813 -0.1677211
v -0.152534 0.4548959 -0.1970208
v -0.152534 0.4548959 -0.1970208
v -0.1510358 0.4588813 -0.1677211
v -0.2806033 0.2344639 -0.1073362
v -0.2845933 0.2261627 -0.1354747
v -0.2845933 0.2261627 -0.1354747
v -0.2806033 0.2344639 -0.1073362
v -0.1406948 0.007023827 -0.02938889
v -0.1419748 -0.006067337 -0.0558906
v -0.1419748 -0.006067337 -0.0558906
v -0.1406948 0.007023827 -0.02938889
v 0.1387443 0.009299828 -0.0140018
v 0.1432916 -0.003868354 -0.04017358
v 0.1432916 -0.003868354 -0.04017358
v 0.1387443 0.009299828 -0.0140018
v 0.2750208 0.2453376 -0.07751343
v 0.2824436 0.23715 -0.1050253
v 0.2824436 0.23715 -0.1050253
v 0.2750208 0.2453376 -0.07751343
v 0.1265738 0.4699465 -0.1539494
v 0.1307967 0.4663865 -0.1830156
vt 0.7305493 0.9519051
vt 0.4999999 0.5
vt 0.2694507 0.9519054
vt 0.03890148 0.5
vt 0.2694508 0.04809472
vt 0.7305496 0.04809493
vt 0.9610986 0.5000002
vt 0.07859007 0.3109502
vt 0.05553705 0.3088193
vt 0.0555371 0.3088193
vt 0.07859007 0.3109502
vt 0.07859007 0.3109502
vt 0.0555371 0.3088193
vt 0.05553713 0.2494359
vt 0.07859004 0.2494359
vt 0.07859004 0.2494359
vt 0.05553713 0.2494359
vt 0.05553713 0.1900524
vt 0.07859007 0.1879214
vt 0.07859007 0.1879214
vt 0.05553713 0.1900524
vt 0.0555371 0.1900524
vt 0.07859007 0.1879214
vt 0.07859007 0.1879214
vt 0.0555371 0.1900524
vt 0.05553707 0.2494359
vt 0.07859004 0.2494359
vt 0.07859004 0.2494359
vt 0.05553707 0.2494359
vt 0.05553705 0.3088193
vt 0.07859007 0.3109502
vn -0.02280534 0.3499439 0.936493
vn -0.05633712 0.2896216 0.9554818
vn -0.09511621 0.3476701 0.93278
vn -0.129425 0.2882452 0.9487696
vn -0.09245469 0.2293076 0.9689531
vn -0.01920601 0.2307411 0.9728256
vn 0.01538375 0.2906523 0.9567051
vn -0.03342732 0.9909931 -0.129674
vn -0.03342733 0.9909931 -0.129674
vn -0.03342732 0.990993 -0.129674
vn -0.03342733 0.9909931 -0.129674
vn -0.8684591 0.4952291 -0.0229538
vn -0.8684591 0.4952292 -0.0229538
vn -0.8684591 0.4952292 -0.0229538
vn -0.8684591 0.4952291 -0.0229538
vn -0.8602583 -0.4411198 0.2556736
vn -0.8602582 -0.4411199 0.2556736
vn -0.8602582 -0.4411199 0.2556736
vn -0.8602582 -0.4411199 0.2556736
vn -0.01742887 -0.8952477 0.4452277
vn -0.01742886 -0.8952477 0.4452277
vn -0.01742887 -0.8952477 0.4452277
vn -0.01742886 -0.8952477 0.4452277
vn 0.8495401 -0.3970164 0.347361
vn 0.8495401 -0.3970164 0.3473609
vn 0.8495401 -0.3970164 0.3473609
vn 0.8495401 -0.3970164 0.3473609
vn 0.8246184 0.5632209 0.05278967
vn 0.8246183 0.5632209 0.05278967
vn 0.8246184 0.5632209 0.05278967
vn 0.8246184 0.5632209 0.05278967
g shield_level1_18_0
f 3/3/3 2/2/2 1/1/1
f 4/4/4 2/2/2 3/3/3
f 5/5/5 2/2/2 4/4/4
f 6/6/6 2/2/2 5/5/5
f 7/7/7 2/2/2 6/6/6
f 1/1/1 2/2/2 7/7/7
f 10/10/10 9/9/9 8/8/8
f 11/11/11 10/10/10 8/8/8
f 14/14/14 13/13/13 12/12/12
f 15/15/15 14/14/14 12/12/12
f 18/18/18 17/17/17 16/16/16
f 19/19/19 18/18/18 16/16/16
f 22/22/22 21/21/21 20/20/20
f 23/23/23 22/22/22 20/20/20
f 26/26/26 25/25/25 24/24/24
f 27/27/27 26/26/26 24/24/24
f 30/30/30 29/29/29 28/28/28
f 31/31/31 30/30/30 28/28/28
