g shield_level1_2
v 0.1332002 0.4852463 -0.08998528
v 4.489023E-05 0.2503822 -0.02301929
v -0.1328482 0.4852463 -0.09050415
v -0.274327 0.2503822 -0.04361545
v -0.1399322 0.00952919 0.003864698
v 0.139916 0.00952919 0.00441049
v 0.274495 0.2503822 -0.04254507
v 0.1358157 0.4845417 -0.1194686
v 0.1332002 0.4852463 -0.08998528
v -0.1328482 0.4852463 -0.09050415
v -0.1353487 0.4845417 -0.1199974
v -0.1353487 0.4845417 -0.1199974
v -0.1328482 0.4852463 -0.09050415
v -0.274327 0.2503822 -0.04361545
v -0.2799213 0.2449363 -0.07215295
v -0.2799213 0.2449363 -0.07215295
v -0.274327 0.2503822 -0.04361545
v -0.1399322 0.00952919 0.003864698
v -0.1428312 -0.001001701 -0.02369861
v -0.1428312 -0.001001701 -0.02369861
v -0.1399322 0.00952919 0.003864698
v 0.139916 0.00952919 0.00441049
v 0.1429225 -0.001001701 -0.0231413
v 0.1429225 -0.001001701 -0.0231413
v 0.139916 0.00952919 0.00441049
v 0.274495 0.2503822 -0.04254507
v 0.2802006 0.2449363 -0.07106054
v 0.2802006 0.2449363 -0.07106054
v 0.274495 0.2503822 -0.04254507
v 0.1332002 0.4852463 -0.08998528
v 0.1358157 0.4845417 -0.1194686
vt 0.7305493 0.9519051
vt 0.4999999 0.5
vt 0.2694507 0.9519054
vt 0.03890148 0.5
vt 0.2694508 0.04809472
vt 0.7305496 0.04809493
vt 0.9610986 0.5000002
vt 0.07859007 0.3109502
vt 0.05553705 0.3088193
vt 0.0555371 0.3088193
vt 0.07859007 0.3109502
vt 0.07859007 0.3109502
vt 0.0555371 0.3088193
vt 0.05553713 0.2494359
vt 0.07859004 0.2494359
vt 0.07859004 0.2494359
vt 0.05553713 0.2494359
vt 0.05553713 0.1900524
vt 0.07859007 0.1879214
vt 0.07859007 0.1879214
vt 0.05553713 0.1900524
vt 0.0555371 0.1900524
vt 0.07859007 0.1879214
vt 0.07859007 0.1879214
vt 0.0555371 0.1900524
vt 0.05553707 0.2494359
vt 0.07859004 0.2494359
vt 0.07859004 0.2494359
vt 0.05553707 0.2494359
vt 0.05553705 0.3088193
vt 0.07859007 0.3109502
vn 0.03334031 0.2565196 0.9659638
vn -0.001913295 0.1939143 0.9810166
vn -0.03710794 0.2565196 0.9658264
vn -0.07341839 0.1950378 0.978044
vn -0.03744488 0.1323214 0.9904994
vn 0.03358104 0.1323214 0.9906379
vn 0.06960284 0.1950378 0.9783229
vn 4.659119E-05 0.9997146 -0.02388849
vn 4.65912E-05 0.9997146 -0.02388849
vn 4.65912E-05 0.9997146 -0.02388849
vn 4.659119E-05 0.9997146 -0.02388849
vn -0.8491081 0.5244659 0.06285635
vn -0.8491081 0.524466 0.06285635
vn -0.8491081 0.5244659 0.06285635
vn -0.8491081 0.5244659 0.06285635
vn -0.8651297 -0.4324052 0.2541186
vn -0.8651297 -0.4324052 0.2541186
vn -0.8651297 -0.4324053 0.2541186
vn -0.8651297 -0.4324053 0.2541186
vn -0.0006961918 -0.9341177 0.3569645
vn -0.0006961919 -0.9341177 0.3569644
vn -0.0006961918 -0.9341177 0.3569645
vn -0.0006961917 -0.9341177 0.3569645
vn 0.864132 -0.4324051 0.2574911
vn 0.864132 -0.4324051 0.2574911
vn 0.864132 -0.4324051 0.2574911
vn 0.864132 -0.4324052 0.2574911
vn 0.8488566 0.5244659 0.06616758
vn 0.8488566 0.5244658 0.06616758
vn 0.8488566 0.5244658 0.06616757
vn 0.8488566 0.5244657 0.06616757
g shield_level1_2_0
f 3/3/3 2/2/2 1/1/1
f 4/4/4 2/2/2 3/3/3
f 5/5/5 2/2/2 4/4/4
f 6/6/6 2/2/2 5/5/5
f 7/7/7 2/2/2 6/6/6
f 1/1/1 2/2/2 7/7/7
f 10/10/10 9/9/9 8/8/8
f 11/11/11 10/10/10 8/8/8
f 14/14/14 13/13/13 12/12/12
f 15/15/15 14/14/14 12/12/12
f 18/18/18 17/17/17 16/16/16
f 19/19/19 18/18/18 16/16/16
f 22/22/22 21/21/21 20/20/20
f 23/23/23 22/22/22 20/20/20
f 26/26/26 25/25/25 24/24/24
f 27/27/27 26/26/26 24/24/24
f 30/30/30 29/29/29 28/28/28
f 31/31/31 30/30/30 28/28/28
