g shield_level3_line
v -0.1438553 -0.7517352 0.00163123
v -0.1438553 -0.7517352 0.00163123
v -0.05700991 -0.9013144 0.001426725
v -0.05700991 -0.9013144 0.001426725
v 0.1430407 1.251094 0.002175126
v 0.2296434 1.401094 0.002289195
v 1.012998 -0.2495537 0.002175053
v 1.185915 -0.2490539 0.002084979
v 0.5793539 -1.000389 0.001631303
v 0.6659117 -1.150388 0.001426502
v 0.146229 -0.750324 0.001631303
v 0.05987005 -0.9007458 0.001516658
v 0.290604 -1.000389 0.001631303
v 0.2040014 -1.150389 0.001517234
v 1.012998 -0.7496832 0.002175126
v 1.099601 -0.8996831 0.001970301
v 0.7242485 -0.7496832 0.002175126
v 0.8108064 -0.8996832 0.001970325
v 1.157373 -0.4996186 0.002175053
v 1.330578 -0.4996186 0.002084297
v 1.010625 0.7517352 0.002175126
v 1.097227 0.9017352 0.002289195
v 1.011664 0.2516055 0.001631303
v 1.184713 0.2518759 0.001540916
v 1.156039 0.001540947 0.001631303
v 1.328956 0.002040759 0.001541229
v 1.155 0.5016704 0.002175126
v 1.328049 0.5019408 0.002084739
v 0.5769802 1.0009 0.001631303
v 0.6632935 1.150862 0.001745483
v 0.721875 0.7517352 0.002175053
v 0.8081653 0.9017351 0.002289285
v 0.2874155 1.00103 0.002175126
v 0.3740407 1.150991 0.002289142
v -1.011959 0.2492944 0.002175053
v -1.184952 0.2489263 0.002265307
v -0.5779537 0.9999176 -0.0003777088
v -0.6672573 1.150001 -0.00017138
v -0.1457094 1.251094 0.002175126
v -0.2327488 1.401094 0.00238018
v -0.2892981 0.9998055 0.007007546
v -0.3763469 1.14985 0.007212652
v -1.011959 0.749424 0.002175126
v -1.098951 0.899679 0.002380426
v -0.7130504 0.7497238 0.02240947
v -0.8028347 0.9001664 0.02261643
v -1.156334 0.4993592 0.002175126
v -1.329539 0.4993593 0.002265883
v -1.010625 -0.7517352 0.002175053
v -1.097228 -0.9017352 0.002060984
v -1.010657 -0.2506789 0.003650003
v -1.18383 -0.2507755 0.00374064
v -1.154888 -0.0006397628 -0.003735252
v -1.327897 -0.0009567805 -0.003644936
v -1.155 -0.5016705 0.002175126
v -1.328122 -0.5018184 0.002265682
v -0.5769804 -1.0018 0.001631156
v -0.6634274 -1.1518 0.001517006
v -0.7218748 -0.7517352 0.002175053
v -0.8083218 -0.9017351 0.002060903
v -0.2882303 -1.0018 0.001631156
v -0.2016278 -1.1518 0.001426332
vt 0 0
vt 1 0
vt 1 1
vt 0 1
vt 0.5 0
vt 0.5 1
vt 0.2333333 0
vt 0.2333333 1
vt 0.1 0
vt 0.1 1
vt 0.03333334 0
vt 0.03333334 1
vt 0.06666667 0
vt 0.06666667 1
vt 0.1666667 0
vt 0.1666667 1
vt 0.1333333 0
vt 0.1333333 1
vt 0.2 0
vt 0.2 1
vt 0.3666667 0
vt 0.3666667 1
vt 0.3 0
vt 0.3 1
vt 0.2666667 0
vt 0.2666667 1
vt 0.3333333 0
vt 0.3333333 1
vt 0.4333333 0
vt 0.4333333 1
vt 0.4 0
vt 0.4 1
vt 0.4666667 0
vt 0.4666667 1
vt 0.7333333 0
vt 0.7333333 1
vt 0.6 0
vt 0.6 1
vt 0.5333334 0
vt 0.5333334 1
vt 0.5666667 0
vt 0.5666667 1
vt 0.6666667 0
vt 0.6666667 1
vt 0.6333333 0
vt 0.6333333 1
vt 0.7 0
vt 0.7 1
vt 0.8666667 0
vt 0.8666667 1
vt 0.8 0
vt 0.8 1
vt 0.7666667 0
vt 0.7666667 1
vt 0.8333333 0
vt 0.8333333 1
vt 0.9333333 0
vt 0.9333333 1
vt 0.9 0
vt 0.9 1
vt 0.9666666 0
vt 0.9666666 1
vn -0.0002159885 -0.001064178 0.9999994
vn 0.001180826 -0.0006826827 0.999999
vn 0.001180826 -0.0006826827 0.999999
vn -0.0002159885 -0.001064178 0.9999994
vn -0.0002176803 -0.0007665219 0.9999997
vn -0.0002176804 -0.0007665219 0.9999997
vn 0.0005187563 0.001085857 0.9999993
vn 0.0005187563 0.001085858 0.9999993
vn -0.0002348606 -0.001369525 0.999999
vn -0.0002348606 -0.001369525 0.999999
vn -0.0004770859 -0.0006633316 0.9999996
vn -0.000477086 -0.0006633315 0.9999996
vn -0.0002190374 -0.0007663852 0.9999997
vn -0.0002190373 -0.0007663853 0.9999997
vn 0.0004393865 -0.0009464042 0.9999995
vn 0.0004393864 -0.0009464042 0.9999995
vn -0.0003484343 -0.001566446 0.9999987
vn -0.0003484342 -0.001566446 0.9999987
vn 0.000666291 -0.0002220437 0.9999998
vn 0.000666291 -0.0002220435 0.9999998
vn 3.849624E-05 -0.0004865974 0.9999999
vn 3.849626E-05 -0.0004865973 0.9999999
vn 0.0005235666 -0.001086541 0.9999993
vn 0.0005235667 -0.00108654 0.9999993
vn 0.0005182207 0.001087116 0.9999993
vn 0.0005182207 0.001087116 0.9999993
vn 0.0002671302 -0.00123155 0.9999992
vn 0.0002671302 -0.001231551 0.9999992
vn -0.0003287572 -0.0005731051 0.9999998
vn -0.0003287563 -0.0005731059 0.9999998
vn -0.001270787 -3.000203E-05 0.9999992
vn -0.001270787 -3.000178E-05 0.9999992
vn 0.0006112201 -0.001112754 0.9999992
vn 0.000611221 -0.001112754 0.9999992
vn 0.0005458615 -0.01181437 0.99993
vn 0.0005458622 -0.01181476 0.99993
vn 0.0274534 0.01509452 0.9995091
vn 0.02751051 0.01512844 0.999507
vn 0.007852698 0.003320926 0.9999636
vn 0.007853133 0.003321173 0.9999636
vn -0.003817402 -0.003677965 0.9999859
vn -0.003818635 -0.003678685 0.9999859
vn -0.02962295 -0.01862368 0.9993876
vn -0.02964997 -0.01863967 0.9993865
vn 0.004955146 0.001858976 0.999986
vn 0.004930068 0.001844125 0.9999862
vn 0.000666594 -0.0002224209 0.9999998
vn 0.0006666541 -0.000222639 0.9999998
vn 3.886678E-05 -0.0004865088 0.9999999
vn 3.886684E-05 -0.0004865083 0.9999999
vn 0.0005073313 0.01179291 0.9999303
vn 0.0005073306 0.01179346 0.9999303
vn 0.0005281582 0.002960384 0.9999955
vn 0.0005281533 0.002963562 0.9999955
vn 0.0002685798 -0.002847053 0.9999959
vn 0.0002686061 -0.002847392 0.9999959
vn 0.000600547 -0.001238484 0.999999
vn 0.0006005469 -0.001238484 0.999999
vn 0.0006120009 -0.001113568 0.9999992
vn 0.000612001 -0.001113569 0.9999992
vn 0.0005819758 -0.0008976467 0.9999994
vn 0.0005819757 -0.0008976469 0.9999994
g shield_level3_line_0
f 3/3/3 2/2/2 61/61/61
f 62/62/62 3/3/3 61/61/61
f 62/62/62 61/61/61 57/57/57
f 58/58/58 62/62/62 57/57/57
f 58/58/58 57/57/57 59/59/59
f 60/60/60 58/58/58 59/59/59
f 60/60/60 59/59/59 49/49/49
f 50/50/50 60/60/60 49/49/49
f 50/50/50 49/49/49 55/55/55
f 56/56/56 50/50/50 55/55/55
f 56/56/56 55/55/55 51/51/51
f 52/52/52 56/56/56 51/51/51
f 52/52/52 51/51/51 53/53/53
f 54/54/54 52/52/52 53/53/53
f 54/54/54 53/53/53 35/35/35
f 36/36/36 54/54/54 35/35/35
f 36/36/36 35/35/35 47/47/47
f 48/48/48 36/36/36 47/47/47
f 48/48/48 47/47/47 43/43/43
f 44/44/44 48/48/48 43/43/43
f 44/44/44 43/43/43 45/45/45
f 46/46/46 44/44/44 45/45/45
f 46/46/46 45/45/45 37/37/37
f 38/38/38 46/46/46 37/37/37
f 38/38/38 37/37/37 41/41/41
f 42/42/42 38/38/38 41/41/41
f 42/42/42 41/41/41 39/39/39
f 40/40/40 42/42/42 39/39/39
f 40/40/40 39/39/39 5/5/5
f 6/6/6 40/40/40 5/5/5
f 6/6/6 5/5/5 33/33/33
f 34/34/34 6/6/6 33/33/33
f 34/34/34 33/33/33 29/29/29
f 30/30/30 34/34/34 29/29/29
f 30/30/30 29/29/29 31/31/31
f 32/32/32 30/30/30 31/31/31
f 32/32/32 31/31/31 21/21/21
f 22/22/22 32/32/32 21/21/21
f 22/22/22 21/21/21 27/27/27
f 28/28/28 22/22/22 27/27/27
f 28/28/28 27/27/27 23/23/23
f 24/24/24 28/28/28 23/23/23
f 24/24/24 23/23/23 25/25/25
f 26/26/26 24/24/24 25/25/25
f 26/26/26 25/25/25 7/7/7
f 8/8/8 26/26/26 7/7/7
f 8/8/8 7/7/7 19/19/19
f 20/20/20 8/8/8 19/19/19
f 20/20/20 19/19/19 15/15/15
f 16/16/16 20/20/20 15/15/15
f 16/16/16 15/15/15 17/17/17
f 18/18/18 16/16/16 17/17/17
f 18/18/18 17/17/17 9/9/9
f 10/10/10 18/18/18 9/9/9
f 10/10/10 9/9/9 13/13/13
f 14/14/14 10/10/10 13/13/13
f 14/14/14 13/13/13 11/11/11
f 12/12/12 14/14/14 11/11/11
f 12/12/12 11/11/11 1/1/1
f 4/4/4 12/12/12 1/1/1
