g Shield_level1_lines3
v 0.2683245 -0.2106203 -0.01343143
v 0.1988805 -0.2508074 -0.01205397
v 0.3691949 0.04419254 -0.0225369
v 0.4090002 0.03343135 -0.02824079
v 0.409696 -0.2105669 -0.03177776
v 0.386791 -0.250197 -0.03161985
v 0.5452499 -0.4432844 -0.09470559
v 0.4778445 -0.4059575 -0.07134098
v 0.3262413 -0.4468044 -0.05425429
v 0.4778445 -0.4059575 -0.07134098
v 0.3489049 -0.4076318 -0.04920798
v 0.2505978 -0.3201846 -0.02402721
v 0.2736281 -0.2803676 -0.02079798
v -0.02315952 -0.3209936 -0.02240375
v -0.0925576 -0.2805818 -0.02315144
v 0.08810102 -0.5083718 -0.05453702
v 0.01813976 -0.469627 -0.0471864
v -0.08861036 -0.5084245 -0.06467102
v -0.06596943 -0.469411 -0.05303659
v -0.2162919 -0.2887354 -0.04171142
v -0.1933819 -0.249259 -0.03326094
v -0.5706886 -0.271797 -0.139602
v -0.5485358 -0.234451 -0.1268321
v -0.5944018 -0.2241331 -0.143955
v -0.551872 -0.2278042 -0.127448
v -0.4741418 -0.01355709 -0.09290018
v -0.4302072 -0.01477439 -0.07896481
v -0.5208179 0.07149366 -0.1134351
v -0.477354 0.070264 -0.09825909
v -0.3915794 0.2939458 -0.1033858
v -0.3694055 0.2560709 -0.08988246
v -0.3420644 0.2944518 -0.09022479
v -0.3640831 0.2561008 -0.08846851
v -0.3046689 0.2319002 -0.06967515
v -0.3043926 0.1545413 -0.05841851
v -0.1791317 0.4494236 -0.09496399
v -0.1556497 0.4122739 -0.08086179
v -0.03982065 0.453108 -0.07929312
v 0.0304655 0.4161989 -0.06464157
v -0.09069286 0.5313725 -0.1089394
v -0.04472043 0.5329573 -0.1049183
v -0.04472841 0.6117394 -0.1339677
v -0.02022995 0.5757778 -0.118251
v 0.1287327 0.6166376 -0.1298208
v 0.1070165 0.5790212 -0.1151321
v 0.2326345 0.4565412 -0.07941536
v 0.2103012 0.4178422 -0.06692584
v 0.3084299 0.4561462 -0.08653264
v 0.2862211 0.4175917 -0.07309942
v 0.4155015 0.2780873 -0.05904326
v 0.3929662 0.2389531 -0.04815707
v 0.4880707 0.2760138 -0.07289045
v 0.4658648 0.2371671 -0.06116491
v 0.5778568 0.1193658 -0.07166801
v 0.5327584 0.120911 -0.06027961
v 0.4554193 -0.0912948 -0.03433062
v 0.43279 -0.0510904 -0.02981486
v 0.3846942 -0.0905816 -0.02196061
v 0.3629109 -0.05034861 -0.01848648
v 0.3591504 -0.130715 -0.01923296
v 0.2917097 -0.1736728 -0.01302678
v 0.4950551 -0.131847 -0.04359465
v 0.4723685 -0.171247 -0.04065573
v 0.5791262 -0.2799219 -0.07587633
v 0.5345401 -0.2799049 -0.06439226
v 0.5241739 -0.3766299 -0.0764088
v 0.5014578 -0.3381249 -0.06470616
v 0.127901 -0.3804581 -0.02766353
v 0.05963404 -0.3410323 -0.021466
v 0.1559607 -0.4296314 -0.03754389
v 0.1098493 -0.4296128 -0.03668256
v 0.08881055 -0.5471737 -0.06461646
v 0.06474667 -0.5085622 -0.05484464
v -0.1635952 -0.5464069 -0.08427141
v -0.1413092 -0.5078025 -0.07086895
v -0.2837497 -0.3413448 -0.06232537
v -0.2843694 -0.2613568 -0.05174006
v -0.3415577 -0.4431584 -0.09482705
v -0.3644539 -0.4023894 -0.09233173
v -0.4395709 -0.4359773 -0.1210347
v -0.417575 -0.3985988 -0.1065871
v -0.4949609 -0.3359129 -0.120591
v -0.4508957 -0.3387411 -0.1063468
v -0.4176071 -0.2026817 -0.08014122
v -0.3731292 -0.2047965 -0.06775616
v -0.4539035 -0.1343094 -0.08712471
v -0.4098278 -0.1363429 -0.07381158
v -0.3296701 0.0813239 -0.05700761
v -0.2846324 0.08095942 -0.04663783
v -0.379676 0.1694925 -0.0791866
v -0.3573983 0.2080951 -0.07868005
v -0.486523 0.1705414 -0.111971
v -0.4647485 0.2084438 -0.1101621
v -0.5732781 0.3225005 -0.1717054
v -0.5307559 0.3225701 -0.1551239
v -0.542219 0.3758874 -0.1726099
v -0.5208659 0.3395698 -0.1554137
v -0.2861073 0.3807426 -0.09665904
v -0.263203 0.3433409 -0.08262711
v -0.1445471 0.6258843 -0.1511465
v -0.1207537 0.5900225 -0.1336772
v -0.06953268 0.6270217 -0.142381
v -0.09155662 0.5903432 -0.1302541
v 0.09795712 0.3683445 -0.05110886
v 0.09964359 0.2901135 -0.03402626
v 0.1270572 0.4170761 -0.0636863
v 0.1506224 0.3784114 -0.05413236
v 0.5047251 0.412532 -0.1082834
v 0.4824868 0.3744223 -0.09326074
v 0.5783409 0.2820914 -0.09614284
v 0.5334644 0.2843196 -0.08491535
v 0.472294 0.09765542 -0.04463365
v 0.426843 0.09888661 -0.03593143
v 0.5740314 -0.08962589 -0.06150018
v 0.5292633 -0.08826963 -0.05017361
v 0.4457614 -0.3091044 -0.04900398
v 0.4231185 -0.2698907 -0.03983263
v 0.3463067 -0.3096351 -0.03289616
v 0.3231529 -0.2702035 -0.02494287
v 0.1611402 -0.6322224 -0.09085735
v 0.1369242 -0.5946379 -0.07840361
v 0.06917826 -0.6337471 -0.09067041
v 0.09140407 -0.5952967 -0.0782923
v -0.09789964 -0.3598818 -0.03501879
v -0.07502382 -0.3202146 -0.02652289
v -0.413497 -0.3510624 -0.09696566
v -0.3456914 -0.3146157 -0.07277955
v -0.3222937 -0.196638 -0.05440085
v -0.2768418 -0.1980246 -0.04427554
v -0.5261102 0.1704309 -0.1258913
v -0.4829104 0.1698227 -0.1105761
v -0.4393377 0.3216626 -0.1235708
v -0.4171316 0.2844655 -0.1088231
v -0.07195623 0.3308966 -0.05093662
v -0.04817973 0.2924711 -0.04072796
v 0.03626707 0.5211822 -0.09608576
v 0.06063011 0.4837807 -0.08323108
v 0.118184 0.5227067 -0.09542979
v 0.0959832 0.484359 -0.08293286
v 0.3691949 0.04419254 -0.0225369
v 0.4090002 0.03343135 -0.02824079
vt 0.9852941 0
vt 0.9852941 1
vt 1 1
vt 1 0
vt 0.9705882 0
vt 0.9705882 1
vt 0.9558823 0
vt 0.9558824 1
vt 0.9411764 0
vt 0.9558824 1
vt 0.9411765 1
vt 0.9264705 0
vt 0.9264706 1
vt 0.9117646 0
vt 0.9117647 1
vt 0.8970588 0
vt 0.8970588 1
vt 0.8823529 0
vt 0.8823529 1
vt 0.8676471 0
vt 0.8676471 1
vt 0.8529412 0
vt 0.8529412 1
vt 0.8382353 0
vt 0.8382354 1
vt 0.8235294 0
vt 0.8235295 1
vt 0.8088235 0
vt 0.8088236 1
vt 0.7941176 0
vt 0.7941177 1
vt 0.7794118 0
vt 0.7794118 1
vt 0.7647059 0
vt 0.7647059 1
vt 0.75 0
vt 0.75 1
vt 0.7352941 0
vt 0.7352941 1
vt 0.7205882 0
vt 0.7205882 1
vt 0.7058824 0
vt 0.7058824 1
vt 0.6911765 0
vt 0.6911765 1
vt 0.6764706 0
vt 0.6764706 1
vt 0.6617647 0
vt 0.6617647 1
vt 0.6470588 0
vt 0.6470588 1
vt 0.6323529 0
vt 0.6323529 1
vt 0.6176471 0
vt 0.6176471 1
vt 0.6029412 0
vt 0.6029412 1
vt 0.5882353 0
vt 0.5882353 1
vt 0.5735294 0
vt 0.5735294 1
vt 0.5588235 0
vt 0.5588235 1
vt 0.5441176 0
vt 0.5441176 1
vt 0.5294118 0
vt 0.5294118 1
vt 0.5147059 0
vt 0.5147059 1
vt 0.5 0
vt 0.5 1
vt 0.4852941 0
vt 0.4852941 1
vt 0.4705882 0
vt 0.4705883 1
vt 0.4558823 0
vt 0.4558824 1
vt 0.4411764 0
vt 0.4411765 1
vt 0.4264705 0
vt 0.4264706 1
vt 0.4117647 0
vt 0.4117647 1
vt 0.3970588 0
vt 0.3970588 1
vt 0.3823529 0
vt 0.382353 1
vt 0.3676471 0
vt 0.3676471 1
vt 0.3529412 0
vt 0.3529412 1
vt 0.3382353 0
vt 0.3382353 1
vt 0.3235294 0
vt 0.3235294 1
vt 0.3088235 0
vt 0.3088235 1
vt 0.2941176 0
vt 0.2941177 1
vt 0.2794117 0
vt 0.2794118 1
vt 0.2647059 0
vt 0.2647059 1
vt 0.25 0
vt 0.25 1
vt 0.2352941 0
vt 0.2352941 1
vt 0.2205882 0
vt 0.2205883 1
vt 0.2058823 0
vt 0.2058824 1
vt 0.1911764 0
vt 0.1911765 1
vt 0.1764705 0
vt 0.1764706 1
vt 0.1617647 0
vt 0.1617647 1
vt 0.1470588 2.980232E-08
vt 0.1470589 1
vt 0.1323529 2.980232E-08
vt 0.132353 1
vt 0.117647 2.980232E-08
vt 0.1176471 1
vt 0.1029412 2.980232E-08
vt 0.1029412 1
vt 0.08823526 2.980232E-08
vt 0.08823532 1
vt 0.07352939 2.980232E-08
vt 0.07352945 1
vt 0.0588235 2.980232E-08
vt 0.05882356 1
vt 0.04411763 2.980232E-08
vt 0.04411769 1
vt 0.02941173 2.980232E-08
vt 0.02941179 1
vt 0.01470587 2.980232E-08
vt 0.01470593 1
vt 0.01348293 2.980232E-08
vt 0.01348299 1
vt 2.980232E-08 1
vt 0 2.980232E-08
vn 0.001031944 2.70464E-05 0.9999995
vn 0.001032066 2.683571E-05 0.9999995
vn 0.0015793 0.0002864287 0.9999987
vn 0.001579212 0.0002731382 0.9999987
vn 0.0009788797 0.00124584 0.9999987
vn 0.0009788803 0.00124584 0.9999987
vn 0.0008784211 -0.0002931822 0.9999996
vn 0.0008784225 -0.0002931797 0.9999996
vn -0.0006729827 -0.001422916 0.9999987
vn 0.0008784225 -0.0002931797 0.9999996
vn -0.0006729832 -0.001422916 0.9999987
vn -0.0005291488 -0.00150607 0.9999987
vn -0.0005291491 -0.00150607 0.9999987
vn 0.00066984 -0.0006577533 0.9999996
vn 0.0006698404 -0.0006577529 0.9999996
vn 0.0009264215 -0.0002156253 0.9999995
vn 0.0009264231 -0.000215623 0.9999995
vn -0.0009813709 -0.001242616 0.9999987
vn -0.0009813717 -0.001242616 0.9999987
vn -0.0006428221 -0.00143932 0.9999987
vn -0.0006428215 -0.00143932 0.9999987
vn -0.0001639687 -0.001715222 0.9999985
vn -0.0001639686 -0.001715222 0.9999985
vn -0.001575632 0.0006500753 0.9999986
vn -0.001575632 0.0006500756 0.9999986
vn -0.001571026 0.0003926053 0.9999987
vn -0.001571026 0.0003926052 0.9999987
vn -0.001566284 0.0004041916 0.9999987
vn -0.001566284 0.0004041916 0.9999987
vn -0.001357252 0.001030822 0.9999986
vn -0.001357252 0.001030822 0.9999986
vn 0.001072855 0.001196734 0.9999987
vn 0.001072856 0.001196733 0.9999987
vn -0.0008071095 0.0009080053 0.9999993
vn -0.0008071095 0.0009080055 0.9999993
vn -0.001007074 0.00123043 0.9999987
vn -0.001007075 0.001230429 0.9999987
vn -0.0006568512 0.000672285 0.9999996
vn -0.0006568499 0.0006722871 0.9999996
vn -0.001570024 -0.0001086816 0.9999987
vn -0.001570025 -0.0001086816 0.9999987
vn -0.0005492144 0.001493444 0.9999987
vn -0.0005492151 0.001493443 0.9999987
vn 0.0008602349 0.001315665 0.9999987
vn 0.0008602356 0.001315665 0.9999987
vn 0.001132653 0.001158494 0.9999987
vn 0.001132652 0.001158495 0.9999987
vn 0.001149715 0.001149733 0.9999987
vn 0.001149715 0.001149732 0.9999987
vn 0.001158552 0.001144643 0.9999987
vn 0.001158552 0.001144644 0.9999987
vn 0.001086962 0.001190238 0.9999987
vn 0.001086961 0.001190239 0.9999987
vn 0.001564616 -0.0001514934 0.9999987
vn 0.001564616 -0.0001514938 0.9999987
vn 0.001204565 -0.001118782 0.9999986
vn 0.001204565 -0.001118782 0.9999986
vn 0.0007656688 -0.001391668 0.9999987
vn 0.0007656689 -0.001391668 0.9999987
vn 0.0004932373 0.0009134459 0.9999995
vn 0.0004932378 0.0009134449 0.9999995
vn 0.0008135707 0.001343182 0.9999987
vn 0.0008135714 0.001343181 0.9999987
vn 0.001570742 0.0002048758 0.9999987
vn 0.001570742 0.0002048752 0.9999987
vn 0.0003175761 -0.00162717 0.9999986
vn 0.0003175769 -0.00162717 0.9999986
vn 0.0002272659 -0.001428449 0.9999989
vn 0.0002272652 -0.00142845 0.9999989
vn 0.001578885 -0.0002786277 0.9999987
vn 0.001578885 -0.0002786267 0.9999987
vn 0.0005435384 -0.001496537 0.9999987
vn 0.0005435389 -0.001496537 0.9999987
vn -0.0007986391 -0.001350926 0.9999987
vn -0.0007986397 -0.001350926 0.9999987
vn -0.0004748556 -0.0009022962 0.9999995
vn -0.0004748564 -0.0009022964 0.9999995
vn 0.0009268828 -0.001264286 0.9999987
vn 0.0009268832 -0.001264286 0.9999987
vn -0.0008523334 -0.001330684 0.9999987
vn -0.0008523335 -0.001330684 0.9999987
vn -0.00156687 0.0002027601 0.9999987
vn -0.00156687 0.0002027597 0.9999987
vn -0.001570953 0.0003255963 0.9999987
vn -0.001570953 0.0003255956 0.9999987
vn -0.001572026 0.0004878976 0.9999986
vn -0.001572026 0.0004878976 0.9999986
vn -0.00156987 0.0003430627 0.9999987
vn -0.001569869 0.0003430626 0.9999987
vn -0.0007955412 -0.001352386 0.9999987
vn -0.0007955422 -0.001352385 0.9999987
vn -0.0009546874 -0.001262786 0.9999987
vn -0.0009546863 -0.001262786 0.9999987
vn -0.001566278 -0.0004698927 0.9999987
vn -0.001566278 -0.0004698925 0.9999987
vn -0.0002694298 0.001657179 0.9999986
vn -0.0002694295 0.001657179 0.9999986
vn -0.0008264245 0.00133498 0.9999987
vn -0.0008264249 0.00133498 0.9999987
vn -0.001283127 0.001065331 0.9999986
vn -0.001283127 0.001065332 0.9999986
vn 0.001325365 0.001051166 0.9999986
vn 0.001325365 0.001051166 0.9999986
vn 0.001029541 0.0009087632 0.999999
vn 0.00102954 0.0009087632 0.999999
vn -0.0002492449 0.001671243 0.9999986
vn -0.0002492452 0.001671243 0.9999986
vn 0.0004298269 0.001560291 0.9999987
vn 0.0004298267 0.001560292 0.9999987
vn 0.001573617 -0.000210891 0.9999987
vn 0.001573617 -0.0002108906 0.9999987
vn 0.001575072 -2.013928E-05 0.9999987
vn 0.001575072 -2.013906E-05 0.9999987
vn 0.001571338 -8.14788E-05 0.9999987
vn 0.001571338 -8.147884E-05 0.9999987
vn 0.001113178 -0.001173174 0.9999987
vn 0.001113177 -0.001173175 0.9999987
vn 0.001243083 -0.001092298 0.9999986
vn 0.001243084 -0.001092297 0.9999986
vn 0.001298591 -0.00106016 0.9999986
vn 0.001298591 -0.00106016 0.9999986
vn -0.001258823 -0.001084805 0.9999986
vn -0.001258823 -0.001084804 0.9999986
vn -0.0008028207 -0.001347459 0.9999987
vn -0.000802821 -0.001347459 0.9999987
vn -0.0005607734 -0.0008267642 0.9999995
vn -0.0005607723 -0.0008267662 0.9999995
vn -0.001564753 -0.0003813208 0.9999987
vn -0.001564753 -0.0003813207 0.9999987
vn -0.001567997 -0.0003867008 0.9999987
vn -0.001567997 -0.0003867011 0.9999987
vn -0.0005087645 0.001524216 0.9999987
vn -0.0005087648 0.001524216 0.9999987
vn -0.0006018881 0.00146825 0.9999987
vn -0.0006018883 0.00146825 0.9999987
vn -0.001202374 0.001112695 0.9999986
vn -0.001202374 0.001112694 0.9999986
vn 0.001406151 0.001010748 0.9999985
vn 0.00140624 0.001010697 0.9999985
vn 0.0015793 0.0002864287 0.9999987
vn 0.001579212 0.0002731382 0.9999987
g Shield_level1_lines3_0
f 3/3/3 2/2/2 1/1/1
f 4/4/4 3/3/3 1/1/1
f 1/1/1 2/2/2 5/5/5
f 2/2/2 6/6/6 5/5/5
f 5/5/5 6/6/6 7/7/7
f 6/6/6 8/8/8 7/7/7
f 7/7/7 10/10/10 9/9/9
f 10/10/10 11/11/11 9/9/9
f 9/9/9 11/11/11 12/12/12
f 11/11/11 13/13/13 12/12/12
f 12/12/12 13/13/13 14/14/14
f 13/13/13 15/15/15 14/14/14
f 14/14/14 15/15/15 16/16/16
f 15/15/15 17/17/17 16/16/16
f 16/16/16 17/17/17 18/18/18
f 17/17/17 19/19/19 18/18/18
f 18/18/18 19/19/19 20/20/20
f 19/19/19 21/21/21 20/20/20
f 20/20/20 21/21/21 22/22/22
f 21/21/21 23/23/23 22/22/22
f 22/22/22 23/23/23 24/24/24
f 23/23/23 25/25/25 24/24/24
f 24/24/24 25/25/25 26/26/26
f 25/25/25 27/27/27 26/26/26
f 26/26/26 27/27/27 28/28/28
f 27/27/27 29/29/29 28/28/28
f 28/28/28 29/29/29 30/30/30
f 29/29/29 31/31/31 30/30/30
f 30/30/30 31/31/31 32/32/32
f 31/31/31 33/33/33 32/32/32
f 32/32/32 33/33/33 34/34/34
f 33/33/33 35/35/35 34/34/34
f 34/34/34 35/35/35 36/36/36
f 35/35/35 37/37/37 36/36/36
f 36/36/36 37/37/37 38/38/38
f 37/37/37 39/39/39 38/38/38
f 38/38/38 39/39/39 40/40/40
f 39/39/39 41/41/41 40/40/40
f 40/40/40 41/41/41 42/42/42
f 41/41/41 43/43/43 42/42/42
f 42/42/42 43/43/43 44/44/44
f 43/43/43 45/45/45 44/44/44
f 44/44/44 45/45/45 46/46/46
f 45/45/45 47/47/47 46/46/46
f 46/46/46 47/47/47 48/48/48
f 47/47/47 49/49/49 48/48/48
f 48/48/48 49/49/49 50/50/50
f 49/49/49 51/51/51 50/50/50
f 50/50/50 51/51/51 52/52/52
f 51/51/51 53/53/53 52/52/52
f 52/52/52 53/53/53 54/54/54
f 53/53/53 55/55/55 54/54/54
f 54/54/54 55/55/55 56/56/56
f 55/55/55 57/57/57 56/56/56
f 56/56/56 57/57/57 58/58/58
f 57/57/57 59/59/59 58/58/58
f 58/58/58 59/59/59 60/60/60
f 59/59/59 61/61/61 60/60/60
f 60/60/60 61/61/61 62/62/62
f 61/61/61 63/63/63 62/62/62
f 62/62/62 63/63/63 64/64/64
f 63/63/63 65/65/65 64/64/64
f 64/64/64 65/65/65 66/66/66
f 65/65/65 67/67/67 66/66/66
f 66/66/66 67/67/67 68/68/68
f 67/67/67 69/69/69 68/68/68
f 68/68/68 69/69/69 70/70/70
f 69/69/69 71/71/71 70/70/70
f 70/70/70 71/71/71 72/72/72
f 71/71/71 73/73/73 72/72/72
f 72/72/72 73/73/73 74/74/74
f 73/73/73 75/75/75 74/74/74
f 74/74/74 75/75/75 76/76/76
f 75/75/75 77/77/77 76/76/76
f 76/76/76 77/77/77 78/78/78
f 77/77/77 79/79/79 78/78/78
f 78/78/78 79/79/79 80/80/80
f 79/79/79 81/81/81 80/80/80
f 80/80/80 81/81/81 82/82/82
f 81/81/81 83/83/83 82/82/82
f 82/82/82 83/83/83 84/84/84
f 83/83/83 85/85/85 84/84/84
f 84/84/84 85/85/85 86/86/86
f 85/85/85 87/87/87 86/86/86
f 86/86/86 87/87/87 88/88/88
f 87/87/87 89/89/89 88/88/88
f 88/88/88 89/89/89 90/90/90
f 89/89/89 91/91/91 90/90/90
f 90/90/90 91/91/91 92/92/92
f 91/91/91 93/93/93 92/92/92
f 92/92/92 93/93/93 94/94/94
f 93/93/93 95/95/95 94/94/94
f 94/94/94 95/95/95 96/96/96
f 95/95/95 97/97/97 96/96/96
f 96/96/96 97/97/97 98/98/98
f 97/97/97 99/99/99 98/98/98
f 98/98/98 99/99/99 100/100/100
f 99/99/99 101/101/101 100/100/100
f 100/100/100 101/101/101 102/102/102
f 101/101/101 103/103/103 102/102/102
f 102/102/102 103/103/103 104/104/104
f 103/103/103 105/105/105 104/104/104
f 104/104/104 105/105/105 106/106/106
f 105/105/105 107/107/107 106/106/106
f 106/106/106 107/107/107 108/108/108
f 107/107/107 109/109/109 108/108/108
f 108/108/108 109/109/109 110/110/110
f 109/109/109 111/111/111 110/110/110
f 110/110/110 111/111/111 112/112/112
f 111/111/111 113/113/113 112/112/112
f 112/112/112 113/113/113 114/114/114
f 113/113/113 115/115/115 114/114/114
f 114/114/114 115/115/115 116/116/116
f 115/115/115 117/117/117 116/116/116
f 116/116/116 117/117/117 118/118/118
f 117/117/117 119/119/119 118/118/118
f 118/118/118 119/119/119 120/120/120
f 119/119/119 121/121/121 120/120/120
f 120/120/120 121/121/121 122/122/122
f 121/121/121 123/123/123 122/122/122
f 122/122/122 123/123/123 124/124/124
f 123/123/123 125/125/125 124/124/124
f 124/124/124 125/125/125 126/126/126
f 125/125/125 127/127/127 126/126/126
f 126/126/126 127/127/127 128/128/128
f 127/127/127 129/129/129 128/128/128
f 128/128/128 129/129/129 130/130/130
f 129/129/129 131/131/131 130/130/130
f 130/130/130 131/131/131 132/132/132
f 131/131/131 133/133/133 132/132/132
f 132/132/132 133/133/133 134/134/134
f 133/133/133 135/135/135 134/134/134
f 134/134/134 135/135/135 136/136/136
f 135/135/135 137/137/137 136/136/136
f 136/136/136 137/137/137 138/138/138
f 137/137/137 139/139/139 138/138/138
f 138/138/138 139/139/139 140/140/140
f 141/141/141 138/138/138 140/140/140
