g Shield_level1_lines2
v 0.2678807 -0.211169 -0.02313291
v 0.1979707 -0.2512266 -0.0250187
v 0.364144 0.03588881 -0.01401557
v 0.4094298 0.03500955 -0.01974272
v 0.4100999 -0.2099057 -0.03767555
v 0.386775 -0.2501209 -0.04020232
v 0.5447641 -0.4439958 -0.1055897
v 0.4769046 -0.4067937 -0.08356905
v 0.3225323 -0.448328 -0.07272156
v 0.3463568 -0.4089542 -0.06566029
v 0.2490431 -0.3206984 -0.0392105
v 0.272645 -0.2809388 -0.03374388
v -0.02552855 -0.319725 -0.04035938
v -0.09340218 -0.2792241 -0.03909984
v 0.08176341 -0.5055602 -0.07842836
v 0.01328293 -0.4659496 -0.07020492
v -0.09428681 -0.5021344 -0.08849877
v -0.06954753 -0.4639083 -0.07571927
v -0.2168439 -0.2877489 -0.05702904
v -0.1937103 -0.2488521 -0.04706116
v -0.5712494 -0.2861466 -0.1469206
v -0.5491198 -0.2481619 -0.1329055
v -0.5953601 -0.2420757 -0.1481674
v -0.5525098 -0.2419654 -0.1330835
v -0.4761078 -0.02477256 -0.08768957
v -0.431703 -0.0235514 -0.07507887
v -0.5244629 0.05805913 -0.1004761
v -0.4802751 0.05965316 -0.08684753
v -0.3939484 0.2944171 -0.07613575
v -0.3715402 0.255458 -0.06660523
v -0.3435883 0.2961126 -0.06432748
v -0.3661339 0.2556298 -0.06533556
v -0.3059825 0.2318597 -0.05007271
v -0.3057281 0.1524156 -0.04511838
v -0.1757833 0.459084 -0.05795575
v -0.15309 0.4197818 -0.04767901
v -0.03547357 0.4604412 -0.0428618
v 0.03410928 0.4210111 -0.03164403
v -0.08353816 0.5436915 -0.06456361
v -0.03720948 0.5440918 -0.06049724
v -0.03303562 0.6272587 -0.08126214
v -0.01048232 0.588388 -0.0693512
v 0.1411998 0.6262454 -0.07522768
v 0.1172777 0.5877859 -0.0649574
v 0.2376499 0.4594254 -0.03995206
v 0.2141583 0.4202209 -0.03170459
v 0.3133908 0.4585763 -0.04536804
v 0.2900475 0.4195477 -0.03630671
v 0.4168058 0.2802925 -0.03149403
v 0.3938551 0.2405867 -0.02464417
v 0.4895406 0.2801977 -0.04300038
v 0.4669334 0.2406017 -0.03538324
v 0.5793442 0.1275065 -0.05065362
v 0.5338636 0.1268014 -0.04107065
v 0.4563555 -0.08891328 -0.03213201
v 0.433484 -0.04915216 -0.02599291
v 0.3851084 -0.08980981 -0.02207124
v 0.3609346 -0.0459507 -0.01634751
v 0.3593943 -0.1304591 -0.02240588
v 0.2883921 -0.1718664 -0.01978675
v 0.4964405 -0.1285066 -0.0422215
v 0.4734972 -0.1689193 -0.04230581
v 0.5815991 -0.2754262 -0.07838356
v 0.536177 -0.2770576 -0.06892531
v 0.5245779 -0.3760166 -0.08559875
v 0.5020018 -0.3372244 -0.07322505
v 0.1251161 -0.3795844 -0.04707032
v 0.05614195 -0.3371714 -0.03941067
v 0.1531841 -0.4281997 -0.05829275
v 0.1079728 -0.4269452 -0.05772956
v 0.08092582 -0.5439281 -0.08951681
v 0.05844843 -0.505225 -0.0788482
v -0.1702586 -0.5379944 -0.1083429
v -0.1466626 -0.5008674 -0.09429765
v -0.2846256 -0.3399518 -0.07888605
v -0.28458 -0.262044 -0.06492283
v -0.3439102 -0.4393675 -0.1138608
v -0.3659097 -0.4007636 -0.1096912
v -0.4413569 -0.4355094 -0.1379125
v -0.4187917 -0.3988807 -0.1227612
v -0.4954234 -0.3424912 -0.1327114
v -0.4513801 -0.3428142 -0.1196147
v -0.4177787 -0.2090517 -0.08791256
v -0.3732073 -0.2092575 -0.07660236
v -0.4545636 -0.1437089 -0.09022339
v -0.4102431 -0.1434695 -0.07811423
v -0.3309738 0.07728474 -0.04875197
v -0.2855926 0.07805427 -0.03932303
v -0.3819143 0.1656336 -0.06288
v -0.3594064 0.2060735 -0.05979682
v -0.4905415 0.1618609 -0.09224118
v -0.4685557 0.2023055 -0.08799231
v -0.5802663 0.3161043 -0.1347542
v -0.5359977 0.3191186 -0.1200228
v -0.5479115 0.375524 -0.1319772
v -0.5261128 0.3375955 -0.1192272
v -0.2857247 0.387299 -0.06428773
v -0.2631097 0.3481195 -0.05416809
v -0.1327293 0.6461514 -0.09655106
v -0.1108818 0.6068423 -0.08305734
v -0.05702342 0.6444615 -0.08801658
v -0.08143057 0.6061958 -0.07975181
v 0.1005653 0.3709571 -0.02212999
v 0.09961206 0.2919883 -0.01212859
v 0.1308752 0.4204124 -0.02980093
v 0.1534881 0.380637 -0.02361143
v 0.5084924 0.4173208 -0.0651499
v 0.4853709 0.3784993 -0.05465293
v 0.5802695 0.2901181 -0.06208976
v 0.5351865 0.2902169 -0.05254441
v 0.4730139 0.1011512 -0.02946639
v 0.4273232 0.1010221 -0.02226103
v 0.5763308 -0.08263934 -0.05435942
v 0.5309594 -0.08333058 -0.04491665
v 0.4458425 -0.3087903 -0.05836688
v 0.4232998 -0.2694936 -0.04818428
v 0.3454071 -0.3102248 -0.04539361
v 0.3225184 -0.2706955 -0.03625785
v 0.1488728 -0.6305368 -0.1171856
v 0.1267405 -0.5923387 -0.1041258
v 0.05695239 -0.6288031 -0.1174525
v 0.08124349 -0.5915698 -0.1042777
v -0.099756 -0.357017 -0.05417029
v -0.07637182 -0.3182116 -0.04421593
v -0.4141368 -0.3530137 -0.1115299
v -0.346133 -0.3154323 -0.08723924
v -0.3223309 -0.1995727 -0.06380613
v -0.2768756 -0.1998042 -0.05450867
v -0.5309687 0.1592515 -0.10471
v -0.4868495 0.1613205 -0.09103394
v -0.4425322 0.3221087 -0.09224895
v -0.420031 0.2836773 -0.08161635
v -0.07049648 0.3345021 -0.02583804
v -0.04717301 0.2948474 -0.01907772
v 0.0435798 0.5296027 -0.0526532
v 0.0664988 0.4902119 -0.04343591
v 0.1245097 0.5285056 -0.05093531
v 0.1019323 0.4900595 -0.04276548
v 0.364144 0.03588881 -0.01401557
v 0.4094298 0.03500955 -0.01974272
vt 0.9852941 0
vt 0.9852941 1
vt 1 1
vt 1 0
vt 0.9705882 0
vt 0.9705882 1
vt 0.9558823 0
vt 0.9558824 1
vt 0.9411764 0
vt 0.9411765 1
vt 0.9264705 0
vt 0.9264706 1
vt 0.9117646 0
vt 0.9117647 1
vt 0.8970588 0
vt 0.8970588 1
vt 0.8823529 0
vt 0.8823529 1
vt 0.8676471 0
vt 0.8676471 1
vt 0.8529412 0
vt 0.8529412 1
vt 0.8382353 0
vt 0.8382354 1
vt 0.8235294 0
vt 0.8235295 1
vt 0.8088235 0
vt 0.8088236 1
vt 0.7941176 0
vt 0.7941177 1
vt 0.7794118 0
vt 0.7794118 1
vt 0.7647059 0
vt 0.7647059 1
vt 0.75 0
vt 0.75 1
vt 0.7352941 0
vt 0.7352941 1
vt 0.7205882 0
vt 0.7205882 1
vt 0.7058824 0
vt 0.7058824 1
vt 0.6911765 0
vt 0.6911765 1
vt 0.6764706 0
vt 0.6764706 1
vt 0.6617647 0
vt 0.6617647 1
vt 0.6470588 0
vt 0.6470588 1
vt 0.6323529 0
vt 0.6323529 1
vt 0.6176471 0
vt 0.6176471 1
vt 0.6029412 0
vt 0.6029412 1
vt 0.5882353 0
vt 0.5882353 1
vt 0.5735294 0
vt 0.5735294 1
vt 0.5588235 0
vt 0.5588235 1
vt 0.5441176 0
vt 0.5441176 1
vt 0.5294118 0
vt 0.5294118 1
vt 0.5147059 0
vt 0.5147059 1
vt 0.5 0
vt 0.5 1
vt 0.4852941 0
vt 0.4852941 1
vt 0.4705882 0
vt 0.4705883 1
vt 0.4558823 0
vt 0.4558824 1
vt 0.4411764 0
vt 0.4411765 1
vt 0.4264705 0
vt 0.4264706 1
vt 0.4117647 0
vt 0.4117647 1
vt 0.3970588 0
vt 0.3970588 1
vt 0.3823529 0
vt 0.382353 1
vt 0.3676471 0
vt 0.3676471 1
vt 0.3529412 0
vt 0.3529412 1
vt 0.3382353 0
vt 0.3382353 1
vt 0.3235294 0
vt 0.3235294 1
vt 0.3088235 0
vt 0.3088235 1
vt 0.2941176 0
vt 0.2941177 1
vt 0.2794117 0
vt 0.2794118 1
vt 0.2647059 0
vt 0.2647059 1
vt 0.25 0
vt 0.25 1
vt 0.2352941 0
vt 0.2352941 1
vt 0.2205882 0
vt 0.2205883 1
vt 0.2058823 0
vt 0.2058824 1
vt 0.1911764 0
vt 0.1911765 1
vt 0.1764705 0
vt 0.1764706 1
vt 0.1617647 0
vt 0.1617647 1
vt 0.1470588 2.980232E-08
vt 0.1470589 1
vt 0.1323529 2.980232E-08
vt 0.132353 1
vt 0.117647 2.980232E-08
vt 0.1176471 1
vt 0.1029412 2.980232E-08
vt 0.1029412 1
vt 0.08823526 2.980232E-08
vt 0.08823532 1
vt 0.07352939 2.980232E-08
vt 0.07352945 1
vt 0.0588235 2.980232E-08
vt 0.05882356 1
vt 0.04411763 2.980232E-08
vt 0.04411769 1
vt 0.02941173 2.980232E-08
vt 0.02941179 1
vt 0.01470587 2.980232E-08
vt 0.01470593 1
vt 0.01348293 2.980232E-08
vt 0.01348299 1
vt 2.980232E-08 1
vt 0 2.980232E-08
vn 0.001031944 2.70464E-05 0.9999995
vn 0.001032066 2.683571E-05 0.9999995
vn 0.0015793 0.0002864287 0.9999987
vn 0.001579212 0.0002731382 0.9999987
vn 0.0009788797 0.00124584 0.9999987
vn 0.0009788803 0.00124584 0.9999987
vn 0.0008784211 -0.0002931822 0.9999996
vn 0.0008784225 -0.0002931797 0.9999996
vn -0.0006729827 -0.001422916 0.9999987
vn -0.0006729832 -0.001422916 0.9999987
vn -0.0005291488 -0.00150607 0.9999987
vn -0.0005291491 -0.00150607 0.9999987
vn 0.00066984 -0.0006577533 0.9999996
vn 0.0006698404 -0.0006577529 0.9999996
vn 0.0009264215 -0.0002156253 0.9999995
vn 0.0009264231 -0.000215623 0.9999995
vn -0.0009813709 -0.001242616 0.9999987
vn -0.0009813717 -0.001242616 0.9999987
vn -0.0006428221 -0.00143932 0.9999987
vn -0.0006428215 -0.00143932 0.9999987
vn -0.0001639687 -0.001715222 0.9999985
vn -0.0001639686 -0.001715222 0.9999985
vn -0.001575632 0.0006500753 0.9999986
vn -0.001575632 0.0006500756 0.9999986
vn -0.001571026 0.0003926053 0.9999987
vn -0.001571026 0.0003926052 0.9999987
vn -0.001566284 0.0004041916 0.9999987
vn -0.001566284 0.0004041916 0.9999987
vn -0.001357252 0.001030822 0.9999986
vn -0.001357252 0.001030822 0.9999986
vn 0.001072855 0.001196734 0.9999987
vn 0.001072856 0.001196733 0.9999987
vn -0.0008071095 0.0009080053 0.9999993
vn -0.0008071095 0.0009080055 0.9999993
vn -0.001007074 0.00123043 0.9999987
vn -0.001007075 0.001230429 0.9999987
vn -0.0006568512 0.000672285 0.9999996
vn -0.0006568499 0.0006722871 0.9999996
vn -0.001570024 -0.0001086816 0.9999987
vn -0.001570025 -0.0001086816 0.9999987
vn -0.0005492144 0.001493444 0.9999987
vn -0.0005492151 0.001493443 0.9999987
vn 0.0008602349 0.001315665 0.9999987
vn 0.0008602356 0.001315665 0.9999987
vn 0.001132653 0.001158494 0.9999987
vn 0.001132652 0.001158495 0.9999987
vn 0.001149715 0.001149733 0.9999987
vn 0.001149715 0.001149732 0.9999987
vn 0.001158552 0.001144643 0.9999987
vn 0.001158552 0.001144644 0.9999987
vn 0.001086962 0.001190238 0.9999987
vn 0.001086961 0.001190239 0.9999987
vn 0.001564616 -0.0001514934 0.9999987
vn 0.001564616 -0.0001514938 0.9999987
vn 0.001204565 -0.001118782 0.9999986
vn 0.001204565 -0.001118782 0.9999986
vn 0.0007656688 -0.001391668 0.9999987
vn 0.0007656689 -0.001391668 0.9999987
vn 0.0004932373 0.0009134459 0.9999995
vn 0.0004932378 0.0009134449 0.9999995
vn 0.0008135707 0.001343182 0.9999987
vn 0.0008135714 0.001343181 0.9999987
vn 0.001570742 0.0002048758 0.9999987
vn 0.001570742 0.0002048752 0.9999987
vn 0.0003175761 -0.00162717 0.9999986
vn 0.0003175769 -0.00162717 0.9999986
vn 0.0002272659 -0.001428449 0.9999989
vn 0.0002272652 -0.00142845 0.9999989
vn 0.001578885 -0.0002786277 0.9999987
vn 0.001578885 -0.0002786267 0.9999987
vn 0.0005435384 -0.001496537 0.9999987
vn 0.0005435389 -0.001496537 0.9999987
vn -0.0007986391 -0.001350926 0.9999987
vn -0.0007986397 -0.001350926 0.9999987
vn -0.0004748556 -0.0009022962 0.9999995
vn -0.0004748564 -0.0009022964 0.9999995
vn 0.0009268828 -0.001264286 0.9999987
vn 0.0009268832 -0.001264286 0.9999987
vn -0.0008523334 -0.001330684 0.9999987
vn -0.0008523335 -0.001330684 0.9999987
vn -0.00156687 0.0002027601 0.9999987
vn -0.00156687 0.0002027597 0.9999987
vn -0.001570953 0.0003255963 0.9999987
vn -0.001570953 0.0003255956 0.9999987
vn -0.001572026 0.0004878976 0.9999986
vn -0.001572026 0.0004878976 0.9999986
vn -0.00156987 0.0003430627 0.9999987
vn -0.001569869 0.0003430626 0.9999987
vn -0.0007955412 -0.001352386 0.9999987
vn -0.0007955422 -0.001352385 0.9999987
vn -0.0009546874 -0.001262786 0.9999987
vn -0.0009546863 -0.001262786 0.9999987
vn -0.001566278 -0.0004698927 0.9999987
vn -0.001566278 -0.0004698925 0.9999987
vn -0.0002694298 0.001657179 0.9999986
vn -0.0002694295 0.001657179 0.9999986
vn -0.0008264245 0.00133498 0.9999987
vn -0.0008264249 0.00133498 0.9999987
vn -0.001283127 0.001065331 0.9999986
vn -0.001283127 0.001065332 0.9999986
vn 0.001325365 0.001051166 0.9999986
vn 0.001325365 0.001051166 0.9999986
vn 0.001029541 0.0009087632 0.999999
vn 0.00102954 0.0009087632 0.999999
vn -0.0002492449 0.001671243 0.9999986
vn -0.0002492452 0.001671243 0.9999986
vn 0.0004298269 0.001560291 0.9999987
vn 0.0004298267 0.001560292 0.9999987
vn 0.001573617 -0.000210891 0.9999987
vn 0.001573617 -0.0002108906 0.9999987
vn 0.001575072 -2.013928E-05 0.9999987
vn 0.001575072 -2.013906E-05 0.9999987
vn 0.001571338 -8.14788E-05 0.9999987
vn 0.001571338 -8.147884E-05 0.9999987
vn 0.001113178 -0.001173174 0.9999987
vn 0.001113177 -0.001173175 0.9999987
vn 0.001243083 -0.001092298 0.9999986
vn 0.001243084 -0.001092297 0.9999986
vn 0.001298591 -0.00106016 0.9999986
vn 0.001298591 -0.00106016 0.9999986
vn -0.001258823 -0.001084805 0.9999986
vn -0.001258823 -0.001084804 0.9999986
vn -0.0008028207 -0.001347459 0.9999987
vn -0.000802821 -0.001347459 0.9999987
vn -0.0005607734 -0.0008267642 0.9999995
vn -0.0005607723 -0.0008267662 0.9999995
vn -0.001564753 -0.0003813208 0.9999987
vn -0.001564753 -0.0003813207 0.9999987
vn -0.001567997 -0.0003867008 0.9999987
vn -0.001567997 -0.0003867011 0.9999987
vn -0.0005087645 0.001524216 0.9999987
vn -0.0005087648 0.001524216 0.9999987
vn -0.0006018881 0.00146825 0.9999987
vn -0.0006018883 0.00146825 0.9999987
vn -0.001202374 0.001112695 0.9999986
vn -0.001202374 0.001112694 0.9999986
vn 0.001406151 0.001010748 0.9999985
vn 0.00140624 0.001010697 0.9999985
vn 0.0015793 0.0002864287 0.9999987
vn 0.001579212 0.0002731382 0.9999987
g Shield_level1_lines2_0
f 3/3/3 2/2/2 1/1/1
f 4/4/4 3/3/3 1/1/1
f 1/1/1 2/2/2 5/5/5
f 2/2/2 6/6/6 5/5/5
f 5/5/5 6/6/6 7/7/7
f 6/6/6 8/8/8 7/7/7
f 7/7/7 8/8/8 9/9/9
f 8/8/8 10/10/10 9/9/9
f 9/9/9 10/10/10 11/11/11
f 10/10/10 12/12/12 11/11/11
f 11/11/11 12/12/12 13/13/13
f 12/12/12 14/14/14 13/13/13
f 13/13/13 14/14/14 15/15/15
f 14/14/14 16/16/16 15/15/15
f 15/15/15 16/16/16 17/17/17
f 16/16/16 18/18/18 17/17/17
f 17/17/17 18/18/18 19/19/19
f 18/18/18 20/20/20 19/19/19
f 19/19/19 20/20/20 21/21/21
f 20/20/20 22/22/22 21/21/21
f 21/21/21 22/22/22 23/23/23
f 22/22/22 24/24/24 23/23/23
f 23/23/23 24/24/24 25/25/25
f 24/24/24 26/26/26 25/25/25
f 25/25/25 26/26/26 27/27/27
f 26/26/26 28/28/28 27/27/27
f 27/27/27 28/28/28 29/29/29
f 28/28/28 30/30/30 29/29/29
f 29/29/29 30/30/30 31/31/31
f 30/30/30 32/32/32 31/31/31
f 31/31/31 32/32/32 33/33/33
f 32/32/32 34/34/34 33/33/33
f 33/33/33 34/34/34 35/35/35
f 34/34/34 36/36/36 35/35/35
f 35/35/35 36/36/36 37/37/37
f 36/36/36 38/38/38 37/37/37
f 37/37/37 38/38/38 39/39/39
f 38/38/38 40/40/40 39/39/39
f 39/39/39 40/40/40 41/41/41
f 40/40/40 42/42/42 41/41/41
f 41/41/41 42/42/42 43/43/43
f 42/42/42 44/44/44 43/43/43
f 43/43/43 44/44/44 45/45/45
f 44/44/44 46/46/46 45/45/45
f 45/45/45 46/46/46 47/47/47
f 46/46/46 48/48/48 47/47/47
f 47/47/47 48/48/48 49/49/49
f 48/48/48 50/50/50 49/49/49
f 49/49/49 50/50/50 51/51/51
f 50/50/50 52/52/52 51/51/51
f 51/51/51 52/52/52 53/53/53
f 52/52/52 54/54/54 53/53/53
f 53/53/53 54/54/54 55/55/55
f 54/54/54 56/56/56 55/55/55
f 55/55/55 56/56/56 57/57/57
f 56/56/56 58/58/58 57/57/57
f 57/57/57 58/58/58 59/59/59
f 58/58/58 60/60/60 59/59/59
f 59/59/59 60/60/60 61/61/61
f 60/60/60 62/62/62 61/61/61
f 61/61/61 62/62/62 63/63/63
f 62/62/62 64/64/64 63/63/63
f 63/63/63 64/64/64 65/65/65
f 64/64/64 66/66/66 65/65/65
f 65/65/65 66/66/66 67/67/67
f 66/66/66 68/68/68 67/67/67
f 67/67/67 68/68/68 69/69/69
f 68/68/68 70/70/70 69/69/69
f 69/69/69 70/70/70 71/71/71
f 70/70/70 72/72/72 71/71/71
f 71/71/71 72/72/72 73/73/73
f 72/72/72 74/74/74 73/73/73
f 73/73/73 74/74/74 75/75/75
f 74/74/74 76/76/76 75/75/75
f 75/75/75 76/76/76 77/77/77
f 76/76/76 78/78/78 77/77/77
f 77/77/77 78/78/78 79/79/79
f 78/78/78 80/80/80 79/79/79
f 79/79/79 80/80/80 81/81/81
f 80/80/80 82/82/82 81/81/81
f 81/81/81 82/82/82 83/83/83
f 82/82/82 84/84/84 83/83/83
f 83/83/83 84/84/84 85/85/85
f 84/84/84 86/86/86 85/85/85
f 85/85/85 86/86/86 87/87/87
f 86/86/86 88/88/88 87/87/87
f 87/87/87 88/88/88 89/89/89
f 88/88/88 90/90/90 89/89/89
f 89/89/89 90/90/90 91/91/91
f 90/90/90 92/92/92 91/91/91
f 91/91/91 92/92/92 93/93/93
f 92/92/92 94/94/94 93/93/93
f 93/93/93 94/94/94 95/95/95
f 94/94/94 96/96/96 95/95/95
f 95/95/95 96/96/96 97/97/97
f 96/96/96 98/98/98 97/97/97
f 97/97/97 98/98/98 99/99/99
f 98/98/98 100/100/100 99/99/99
f 99/99/99 100/100/100 101/101/101
f 100/100/100 102/102/102 101/101/101
f 101/101/101 102/102/102 103/103/103
f 102/102/102 104/104/104 103/103/103
f 103/103/103 104/104/104 105/105/105
f 104/104/104 106/106/106 105/105/105
f 105/105/105 106/106/106 107/107/107
f 106/106/106 108/108/108 107/107/107
f 107/107/107 108/108/108 109/109/109
f 108/108/108 110/110/110 109/109/109
f 109/109/109 110/110/110 111/111/111
f 110/110/110 112/112/112 111/111/111
f 111/111/111 112/112/112 113/113/113
f 112/112/112 114/114/114 113/113/113
f 113/113/113 114/114/114 115/115/115
f 114/114/114 116/116/116 115/115/115
f 115/115/115 116/116/116 117/117/117
f 116/116/116 118/118/118 117/117/117
f 117/117/117 118/118/118 119/119/119
f 118/118/118 120/120/120 119/119/119
f 119/119/119 120/120/120 121/121/121
f 120/120/120 122/122/122 121/121/121
f 121/121/121 122/122/122 123/123/123
f 122/122/122 124/124/124 123/123/123
f 123/123/123 124/124/124 125/125/125
f 124/124/124 126/126/126 125/125/125
f 125/125/125 126/126/126 127/127/127
f 126/126/126 128/128/128 127/127/127
f 127/127/127 128/128/128 129/129/129
f 128/128/128 130/130/130 129/129/129
f 129/129/129 130/130/130 131/131/131
f 130/130/130 132/132/132 131/131/131
f 131/131/131 132/132/132 133/133/133
f 132/132/132 134/134/134 133/133/133
f 133/133/133 134/134/134 135/135/135
f 134/134/134 136/136/136 135/135/135
f 135/135/135 136/136/136 137/137/137
f 136/136/136 138/138/138 137/137/137
f 137/137/137 138/138/138 139/139/139
f 140/140/140 137/137/137 139/139/139
