g shield_level2_line
v 0.7229142 -0.2485239 0.001087585
v 0.7229142 -0.2485239 0.001087585
v 0.7810042 -0.3485239 0.001087582
v 0.7810042 -0.3485239 0.001087582
v -0.5780622 0.4997994 0.001087531
v -0.6934239 0.4996569 0.001087527
v 0.5769802 1.0009 0.001087585
v 0.6347152 1.1009 0.001087593
v 1.011664 0.2516055 0.001087585
v 1.069399 0.3516054 0.001087593
v 1.011664 -0.248524 0.001087585
v 1.069399 -0.348524 0.001087582
v 1.156039 0.001540947 0.001087585
v 1.271509 0.00154097 0.00108759
v 0.5769801 0.5007704 0.001087585
v 0.6926584 0.5011311 0.00108759
v 0.7229141 0.2516057 0.001087585
v 0.7802343 0.3516057 0.001087593
v 0.721355 0.7508354 0.001087585
v 0.8368251 0.7508354 0.00108759
v -0.1450247 0.7496904 0.001087659
v -0.08739576 0.8499196 0.001087666
v 0.2882304 1.0009 0.001087585
v 0.2304953 1.1009 0.001087588
v 0.1438554 0.7508352 0.001087585
v 0.08598839 0.8506067 0.001087588
v -0.5779537 0.9999176 0.001087565
v -0.6356673 1.09994 0.001087568
v -0.2892981 0.9998055 0.001087639
v -0.2315239 1.099783 0.001087646
v -0.7223356 0.7499147 0.001087511
v -0.8377969 0.7499447 0.001087506
v -0.2877109 -0.500132 0.0010873
v -0.3453431 -0.6003113 0.001087293
v -1.154888 -0.0006397628 0.001087531
v -1.270358 -0.0005946556 0.001087527
v -0.7217187 0.2493253 0.001087565
v -0.7796405 0.3493327 0.001087568
v -1.010419 0.2493621 0.001087511
v -1.068123 0.3493695 0.001087514
v -0.7219574 -0.2507158 0.001087659
v -0.7796052 -0.3507085 0.001087651
v -1.010657 -0.2506789 0.001087605
v -1.068423 -0.3506715 0.001087598
v -0.5769801 -0.5010295 0.0010873
v -0.63452 -0.6012085 0.001087293
v 0.290604 -1.000389 0.001087585
v 0.232869 -1.100389 0.001087577
v -0.1433382 -0.7501987 0.0010873
v -0.2010883 -0.8501738 0.001087293
v 0.146229 -0.750324 0.001087585
v 0.08847955 -0.850299 0.001087577
v 0.7237288 -0.7503241 0.001087585
v 0.8391989 -0.7503241 0.00108759
v 0.5793539 -1.000389 0.001087585
v 0.6370889 -1.100389 0.001087582
v 0.5793537 -0.5002592 0.001087585
v 0.6946469 -0.4999527 0.00108759
vt 0 0
vt 1 0
vt 1 1
vt 0 1
vt 0.5 0
vt 0.5 1
vt 0.25 0
vt 0.25 1
vt 0.1071429 0
vt 0.1071429 1
vt 0.03571429 0
vt 0.03571429 1
vt 0.07142857 0
vt 0.07142857 1
vt 0.1785714 0
vt 0.1785714 1
vt 0.1428571 0
vt 0.1428571 1
vt 0.2142857 0
vt 0.2142857 1
vt 0.3571429 0
vt 0.3571429 1
vt 0.2857143 0
vt 0.2857143 1
vt 0.3214286 0
vt 0.3214286 1
vt 0.4285714 0
vt 0.4285714 1
vt 0.3928571 0
vt 0.3928571 1
vt 0.4642857 0
vt 0.4642857 1
vt 0.75 0
vt 0.75 1
vt 0.6071429 0
vt 0.6071429 1
vt 0.5357143 0
vt 0.5357143 1
vt 0.5714286 0
vt 0.5714286 1
vt 0.6785714 0
vt 0.6785714 1
vt 0.6428571 0
vt 0.6428571 1
vt 0.7142857 0
vt 0.7142857 1
vt 0.8571429 0
vt 0.8571429 1
vt 0.7857143 0
vt 0.7857143 1
vt 0.8214286 0
vt 0.8214286 1
vt 0.9285714 0
vt 0.9285714 1
vt 0.8928571 0
vt 0.8928571 1
vt 0.9642857 0
vt 0.9642857 1
vn 0 0 1
vn 0 0 1
vn 0 0 1
vn 0 0 1
vn 0 0 1
vn 0 0 1
vn 0 0 1
vn 0 0 1
vn 0 0 1
vn 0 0 1
vn 0 0 1
vn 0 0 1
vn 0 0 1
vn 0 0 1
vn 0 0 1
vn 0 0 1
vn 0 0 1
vn 0 0 1
vn 0 0 1
vn 0 0 1
vn 0 0 1
vn 0 0 1
vn 0 0 1
vn 0 0 1
vn 1.596704E-07 0 1
vn 1.596704E-07 0 1
vn -1.565476E-07 0 1
vn -1.565476E-07 0 1
vn -1.816949E-07 0 1
vn -1.816949E-07 0 1
vn 0 0 1
vn 0 0 1
vn 0 0 1
vn 0 0 1
vn 0 0 1
vn 0 0 1
vn 0 0 1
vn 0 0 1
vn 0 0 1
vn 0 0 1
vn 4.948621E-07 -3.60302E-07 1
vn 4.948624E-07 -3.603022E-07 1
vn -1.715528E-07 0 1
vn -1.715528E-07 0 1
vn 5.874812E-07 -4.129047E-07 1
vn 5.874812E-07 -4.129047E-07 1
vn 0 0 1
vn 0 0 1
vn -5.240422E-07 2.279097E-07 1
vn -5.240422E-07 2.279098E-07 1
vn -5.239228E-07 2.27477E-07 1
vn -5.239228E-07 2.27477E-07 1
vn 0 0 1
vn 0 0 1
vn 0 0 1
vn 0 0 1
vn 0 0 1
vn 0 0 1
g shield_level2_line_0
f 3/3/3 2/2/2 57/57/57
f 58/58/58 3/3/3 57/57/57
f 58/58/58 57/57/57 53/53/53
f 54/54/54 58/58/58 53/53/53
f 54/54/54 53/53/53 55/55/55
f 56/56/56 54/54/54 55/55/55
f 56/56/56 55/55/55 47/47/47
f 48/48/48 56/56/56 47/47/47
f 48/48/48 47/47/47 51/51/51
f 52/52/52 48/48/48 51/51/51
f 52/52/52 51/51/51 49/49/49
f 50/50/50 52/52/52 49/49/49
f 50/50/50 49/49/49 33/33/33
f 34/34/34 50/50/50 33/33/33
f 34/34/34 33/33/33 45/45/45
f 46/46/46 34/34/34 45/45/45
f 46/46/46 45/45/45 41/41/41
f 42/42/42 46/46/46 41/41/41
f 42/42/42 41/41/41 43/43/43
f 44/44/44 42/42/42 43/43/43
f 44/44/44 43/43/43 35/35/35
f 36/36/36 44/44/44 35/35/35
f 36/36/36 35/35/35 39/39/39
f 40/40/40 36/36/36 39/39/39
f 40/40/40 39/39/39 37/37/37
f 38/38/38 40/40/40 37/37/37
f 38/38/38 37/37/37 5/5/5
f 6/6/6 38/38/38 5/5/5
f 6/6/6 5/5/5 31/31/31
f 32/32/32 6/6/6 31/31/31
f 32/32/32 31/31/31 27/27/27
f 28/28/28 32/32/32 27/27/27
f 28/28/28 27/27/27 29/29/29
f 30/30/30 28/28/28 29/29/29
f 30/30/30 29/29/29 21/21/21
f 22/22/22 30/30/30 21/21/21
f 22/22/22 21/21/21 25/25/25
f 26/26/26 22/22/22 25/25/25
f 26/26/26 25/25/25 23/23/23
f 24/24/24 26/26/26 23/23/23
f 24/24/24 23/23/23 7/7/7
f 8/8/8 24/24/24 7/7/7
f 8/8/8 7/7/7 19/19/19
f 20/20/20 8/8/8 19/19/19
f 20/20/20 19/19/19 15/15/15
f 16/16/16 20/20/20 15/15/15
f 16/16/16 15/15/15 17/17/17
f 18/18/18 16/16/16 17/17/17
f 18/18/18 17/17/17 9/9/9
f 10/10/10 18/18/18 9/9/9
f 10/10/10 9/9/9 13/13/13
f 14/14/14 10/10/10 13/13/13
f 14/14/14 13/13/13 11/11/11
f 12/12/12 14/14/14 11/11/11
f 12/12/12 11/11/11 1/1/1
f 4/4/4 12/12/12 1/1/1
