g WonderBox_SmokeTop
v -0.06054323 0.004897625 -0.03731479
v -0.05879058 0.004637236 -0.06837951
v -0.03547442 0.002491596 -0.06352987
v -0.04803511 0.002500269 -0.03275532
v -0.07302307 0.005820612 -0.03962094
v -0.0788459 0.005312506 -0.06994427
v -0.08358271 0.005955294 -0.04138808
v -0.09555678 0.00520299 -0.06822538
v -0.09299409 0.005879393 -0.04070279
v -0.1094044 0.004885742 -0.06360789
v -0.1030702 0.00573725 -0.03888211
v -0.1214216 0.004503695 -0.05586201
v -0.1114029 0.005564865 -0.03416038
v -0.1311936 0.004091253 -0.04674528
v -0.1187492 0.005390982 -0.02626338
v -0.1385058 0.003676013 -0.0342822
v -0.1231909 0.005215337 -0.01756688
v -0.1424409 0.003258352 -0.01995979
v -0.1252481 0.005030414 -0.006604598
v -0.1431477 0.002831839 -0.005251897
v -0.1255009 0.00483662 0.00426565
v -0.1416541 0.002397681 0.008014874
v -0.1237514 0.004666057 0.0142967
v -0.1382259 0.001987612 0.01986188
v -0.1269093 0.001384294 0.04031559
v -0.1145344 0.004541391 0.03096811
v -0.1123959 0.001026795 0.0559538
v -0.1027977 0.004656235 0.04380794
v -0.09114395 0.004832217 0.05129097
v -0.09766202 0.0007496387 0.06527577
v -0.08270802 0.000861225 0.07039177
v -0.07932569 0.005372567 0.05541401
v -0.06737688 0.001333092 0.07252036
v -0.067126 0.0062392 0.05728661
v -0.05533506 0.007062485 0.05656267
v -0.05244156 0.001816669 0.07140827
v -0.03995403 0.002514076 0.06818015
v -0.04571411 0.008002105 0.05423992
v -0.0306775 0.003698805 0.06405306
v -0.0389109 0.009246965 0.0514195
v -0.03418095 0.01091578 0.04874189
v -0.02375086 0.005624506 0.05975855
v -0.01825466 0.008744547 0.05519931
v -0.03062858 0.01328284 0.04603143
v -0.02915243 0.01484651 0.04464644
v -0.01593457 0.01087399 0.05286987
v -0.02791249 0.01674211 0.04330929
v -0.01397859 0.01342027 0.05064382
v -0.02693311 0.01901899 0.042073
v -0.01243527 0.01639445 0.04861941
v -0.02620219 0.02168506 0.0409821
v -0.01128008 0.01974653 0.04685295
v -0.0256985 0.02473786 0.04007899
v -0.0104702 0.02341119 0.04539029
v -0.02539586 0.02815141 0.03939491
v -0.009957323 0.02730707 0.04426099
v -0.02524821 0.03180564 0.03891646
v -0.009670958 0.03128835 0.04342954
v -0.0252045 0.03555699 0.03861907
v -0.009535107 0.03519314 0.04284419
v -0.02521547 0.03925258 0.0384712
v -0.0094782 0.03886949 0.04244709
v -0.02523879 0.04270231 0.03841335
v -0.009446423 0.04220519 0.04215613
v -0.02523393 0.04570678 0.03837902
v -0.00939039 0.04509797 0.04188311
v -0.02516829 0.04813779 0.03827021
v -0.009269674 0.04749947 0.04150318
v -0.02504116 0.05015179 0.03786274
v -0.009079653 0.0495768 0.04074483
v -0.02485979 0.05197643 0.03690096
v -0.008824653 0.05155098 0.03929988
v -0.02463958 0.0537695 0.03491841
v -0.008521035 0.05355535 0.03666959
v -0.02442855 0.05540936 0.03060572
v -0.0082333 0.05537247 0.03159309
v -0.008037978 0.05669723 0.02261896
v -0.02428285 0.05670456 0.02244274
v 0.008142326 0.05668994 0.02279449
v 0.007897576 0.05533573 0.03257654
v 0.02380606 0.05668288 0.02296441
v 0.02351347 0.05530015 0.03352859
v 0.02307537 0.05313556 0.04010233
v 0.007533443 0.05334205 0.0384138
v 0.007146747 0.05112722 0.04168926
v 0.02260825 0.05071699 0.04400236
v 0.00681841 0.04900408 0.04361546
v 0.02220892 0.04844966 0.04639445
v 0.02189561 0.04624819 0.04784064
v 0.006565746 0.04686368 0.04472331
v 0.006390174 0.04449159 0.04537327
v 0.02166693 0.04390456 0.048752
v 0.006283175 0.04171005 0.04588403
v 0.0215106 0.04123072 0.04949291
v 0.0213708 0.03811854 0.05024083
v 0.00619651 0.03848793 0.04640717
v 0.006072006 0.03483074 0.04705251
v 0.02118085 0.0344799 0.05112648
v 0.005844374 0.03077311 0.04792469
v 0.02086437 0.03027432 0.05227632
v 0.0203061 0.02565195 0.05379972
v 0.005419851 0.02646608 0.04910772
v 0.00469756 0.0220898 0.05068048
v 0.01938109 0.02081059 0.05580179
v 0.00358272 0.0178157 0.05270047
v 0.01797101 0.01594651 0.0583613
v 0.01598413 0.0112497 0.06145201
v 0.002004937 0.01378035 0.05513979
v -0.0001000858 0.01011163 0.05794919
v 0.01333534 0.00690863 0.06502134
v -0.002769255 0.006917257 0.0610606
v 0.009975754 0.003086844 0.06898985
v 0.006001347 -0.0001516471 0.07317065
v -0.005929918 0.004224294 0.06433074
v -0.003305254 -0.004747718 0.08135397
v -0.01336223 0.0003542668 0.07073142
v -0.02247683 -0.001827302 0.0766364
v -0.01453797 -0.007176985 0.08881801
v -0.0286628 -0.008243841 0.0955065
v -0.03421683 -0.002952138 0.08206496
v -0.04676957 -0.008466451 0.1005094
v -0.04955955 -0.003408295 0.08619487
v -0.06762677 -0.003553515 0.08769356
v -0.06786867 -0.008284115 0.1023824
v -0.08933827 -0.00798214 0.09975193
v -0.08607692 -0.003632185 0.08530999
v -0.1104391 -0.007253241 0.09268951
v -0.1041542 -0.003316711 0.07920499
v -0.1219559 -0.002588218 0.06805138
v -0.1312108 -0.006087821 0.07976275
v -0.1511674 -0.004804409 0.058639
v -0.1392351 -0.001760253 0.04962591
v -0.1665998 -0.003262816 0.03077104
v -0.152643 -0.0006801877 0.02540494
v -0.1713219 -0.002383252 0.0145657
v -0.1567286 -3.156275E-05 0.01134342
v -0.1585414 0.0006420043 -0.004310349
v -0.1734437 -0.00147792 -0.003398859
v -0.1577594 0.001309144 -0.02153165
v -0.172589 -0.0005778332 -0.02305332
v -0.1686692 0.0003142416 -0.04322921
v -0.1543332 0.00196786 -0.03922906
v -0.1474663 0.002623498 -0.0556371
v -0.1616679 0.001202602 -0.0624833
v -0.137458 0.003275043 -0.06844494
v -0.1514424 0.002085616 -0.07964431
v -0.1373461 0.002937935 -0.09462892
v -0.1245079 0.00389604 -0.08008616
v -0.1070594 0.004453676 -0.08939349
v -0.1186065 0.003728284 -0.1076257
v -0.08482214 0.00480642 -0.09468595
v -0.09393009 0.004316491 -0.1182898
v -0.05994048 0.004126808 -0.1241412
v -0.05861365 0.004377882 -0.09613944
v -0.02396927 0.002482958 -0.09039994
v -0.01274041 0.002474595 -0.1221666
vt 1 0.9791667
vt 0.6666667 0.9791667
vt 0.6666667 1
vt 1 1
vt 1 0.9583333
vt 0.6666667 0.9583333
vt 1 0.9375
vt 0.6666667 0.9375
vt 1 0.9166667
vt 0.6666667 0.9166667
vt 1 0.8958333
vt 0.6666667 0.8958333
vt 1 0.875
vt 0.6666667 0.875
vt 1 0.8541667
vt 0.6666667 0.8541667
vt 1 0.8333333
vt 0.6666667 0.8333333
vt 1 0.8125
vt 0.6666667 0.8125
vt 1 0.7916667
vt 0.6666667 0.7916667
vt 1 0.7708333
vt 0.6666667 0.7708333
vt 0.6666667 0.7291667
vt 1 0.7291667
vt 0.6666667 0.6875
vt 1 0.6875
vt 1 0.6458333
vt 0.6666667 0.6458333
vt 0.6666667 0.6041667
vt 1 0.6041667
vt 0.6666667 0.5625
vt 1 0.5625
vt 1 0.5208333
vt 0.6666667 0.5208333
vt 0.6666667 0.4791667
vt 1 0.4791667
vt 0.6666667 0.4375
vt 1 0.4375
vt 1 0.3958333
vt 0.6666667 0.3958333
vt 0.6666667 0.3541667
vt 1 0.3541667
vt 1 0.3333333
vt 0.6666667 0.3333333
vt 1 0.3125
vt 0.6666667 0.3125
vt 1 0.2916667
vt 0.6666667 0.2916667
vt 1 0.2708333
vt 0.6666667 0.2708333
vt 1 0.25
vt 0.6666667 0.25
vt 1 0.2291667
vt 0.6666667 0.2291667
vt 1 0.2083333
vt 0.6666667 0.2083333
vt 1 0.1875
vt 0.6666667 0.1875
vt 1 0.1666667
vt 0.6666667 0.1666667
vt 1 0.1458333
vt 0.6666667 0.1458333
vt 1 0.125
vt 0.6666667 0.125
vt 1 0.1041667
vt 0.6666667 0.1041667
vt 1 0.08333334
vt 0.6666667 0.08333334
vt 1 0.0625
vt 0.6666667 0.0625
vt 1 0.04166667
vt 0.6666667 0.04166667
vt 1 0.02083333
vt 0.6666667 0.02083333
vt 0.6666667 0
vt 1 0
vt 0.3333333 0
vt 0.3333333 0.02083333
vt 0 0
vt 0 0.02083333
vt 0 0.04166667
vt 0.3333333 0.04166667
vt 0.3333333 0.0625
vt 0 0.0625
vt 0.3333333 0.08333334
vt 0 0.08333334
vt 0 0.1041667
vt 0.3333333 0.1041667
vt 0.3333333 0.125
vt 0 0.125
vt 0.3333333 0.1458333
vt 0 0.1458333
vt 0 0.1666667
vt 0.3333333 0.1666667
vt 0.3333333 0.1875
vt 0 0.1875
vt 0.3333333 0.2083333
vt 0 0.2083333
vt 0 0.2291667
vt 0.3333333 0.2291667
vt 0.3333333 0.25
vt 0 0.25
vt 0.3333333 0.2708333
vt 0 0.2708333
vt 0 0.2916667
vt 0.3333333 0.2916667
vt 0.3333333 0.3125
vt 0 0.3125
vt 0.3333333 0.3333333
vt 0 0.3333333
vt 0 0.3541667
vt 0.3333333 0.3541667
vt 0 0.3958333
vt 0.3333333 0.3958333
vt 0.3333333 0.4375
vt 0 0.4375
vt 0 0.4791667
vt 0.3333333 0.4791667
vt 0 0.5208333
vt 0.3333333 0.5208333
vt 0.3333333 0.5625
vt 0 0.5625
vt 0 0.6041667
vt 0.3333333 0.6041667
vt 0 0.6458333
vt 0.3333333 0.6458333
vt 0.3333333 0.6875
vt 0 0.6875
vt 0 0.7291667
vt 0.3333333 0.7291667
vt 0 0.7708333
vt 0.3333333 0.7708333
vt 0 0.7916667
vt 0.3333333 0.7916667
vt 0.3333333 0.8125
vt 0 0.8125
vt 0.3333333 0.8333333
vt 0 0.8333333
vt 0 0.8541667
vt 0.3333333 0.8541667
vt 0.3333333 0.875
vt 0 0.875
vt 0.3333333 0.8958333
vt 0 0.8958333
vt 0 0.9166667
vt 0.3333333 0.9166667
vt 0.3333333 0.9375
vt 0 0.9375
vt 0.3333333 0.9583333
vt 0 0.9583333
vt 0 0.9791667
vt 0.3333333 0.9791667
vt 0.3333333 1
vt 0 1
vn 0.09264471 0.9956679 0.007897997
vn 0.06545242 0.9978547 0.001373059
vn 0.08654093 0.9961417 0.01457838
vn 0.1197223 0.9925318 0.02339246
vn 0.03447472 0.9992431 -0.01801526
vn 0.01605606 0.9996922 -0.01891247
vn -0.006457946 0.9997283 -0.02240009
vn -0.01839191 0.999599 -0.02152925
vn -0.02623443 0.9993795 -0.02350273
vn -0.03727551 0.9990762 -0.02138043
vn -0.04029886 0.9988657 -0.02536396
vn -0.05324262 0.9983603 -0.02102496
vn -0.05884444 0.9979918 -0.02344578
vn -0.07285926 0.9971859 -0.01765448
vn -0.07845794 0.9967942 -0.01567164
vn -0.09386824 0.9955535 -0.007877247
vn -0.1002689 0.9949602 0.0006896254
vn -0.1147094 0.9933503 0.009848329
vn -0.1191379 0.992672 0.0202127
vn -0.1298666 0.9910285 0.03157707
vn -0.1369783 0.9895789 0.04439067
vn -0.1412171 0.9882783 0.05799821
vn -0.152031 0.9843529 0.08908305
vn -0.1490575 0.9838494 0.09910751
vn -0.1485751 0.9796461 0.1349777
vn -0.1547902 0.9798065 0.1265664
vn -0.1327897 0.9739053 0.1840523
vn -0.1429014 0.9740439 0.1755495
vn -0.1192063 0.9666414 0.226703
vn -0.1053113 0.9666924 0.2332711
vn -0.08103041 0.9590236 0.2714918
vn -0.09872731 0.9585148 0.2673993
vn -0.03775582 0.9516858 0.3047437
vn -0.05687813 0.9509737 0.3039967
vn -0.005358925 0.943162 0.3322901
vn 0.01353802 0.9441258 0.3293071
vn 0.03964651 0.9358629 0.3501268
vn 0.01894085 0.933798 0.3572989
vn 0.02634199 0.9220567 0.3861574
vn 0.003060003 0.9171658 0.3984942
vn -0.05613826 0.8788227 0.4738345
vn -0.0320695 0.8891165 0.456556
vn -0.09356033 0.8416723 0.5318216
vn -0.1159563 0.826088 0.5514824
vn -0.1817783 0.7380472 0.6498022
vn -0.1613877 0.7612649 0.6280366
vn -0.2282981 0.6465259 0.7279315
vn -0.2092895 0.6772977 0.7053126
vn -0.2638325 0.5368528 0.8013622
vn -0.247811 0.5743808 0.7801771
vn -0.2830848 0.4226124 0.8609656
vn -0.2709311 0.4646518 0.8430274
vn -0.2881989 0.3120344 0.9053043
vn -0.2800497 0.355258 0.8918318
vn -0.2826277 0.217862 0.9341615
vn -0.2777936 0.2587453 0.9251387
vn -0.2710665 0.1466272 0.9513272
vn -0.2683325 0.1843319 0.945526
vn -0.2574591 0.09476596 0.961631
vn -0.2557922 0.1305832 0.9578718
vn -0.2434215 0.06178334 0.9679508
vn -0.2420712 0.09763817 0.9653333
vn -0.2290439 0.05154204 0.9720505
vn -0.2274106 0.09071409 0.9695646
vn -0.2126452 0.07760224 0.9740431
vn -0.209948 0.126087 0.9695483
vn -0.1880667 0.1903822 0.9635277
vn -0.1828466 0.2538671 0.9497992
vn -0.1459531 0.4211828 0.8951551
vn -0.1380688 0.4851595 0.8634565
vn -0.08999244 0.6839848 0.7239242
vn -0.08408653 0.719179 0.6897181
vn -0.03843331 0.8900118 0.4543147
vn -0.03694525 0.8966367 0.4412228
vn -0.01049868 0.9751559 0.2212704
vn -0.01036275 0.9759755 0.217634
vn -0.003886298 0.9892859 0.1459395
vn -0.004070483 0.9885185 0.1510454
vn -0.003568805 0.9905456 0.1371377
vn -0.009906706 0.9778385 0.2091258
vn -0.0034278 0.9910794 0.1332287
vn -0.009781273 0.9784431 0.2062845
vn -0.03302431 0.9122638 0.4082697
vn -0.03399774 0.9083969 0.4167244
vn -0.07425334 0.7705258 0.6330692
vn -0.07057755 0.7884225 0.6110718
vn -0.1232635 0.5855147 0.8012357
vn -0.1169196 0.6235744 0.7729715
vn -0.1644929 0.4211864 0.8919328
vn -0.170748 0.3700093 0.9132022
vn -0.2026103 0.2238489 0.9533314
vn -0.1983066 0.2723282 0.9415476
vn -0.2225845 0.1709968 0.9598001
vn -0.2196701 0.2124749 0.9521552
vn -0.2357715 0.2047868 0.9499864
vn -0.2381148 0.1686398 0.9564841
vn -0.2514721 0.1969526 0.9476136
vn -0.2490798 0.2290113 0.941017
vn -0.2623391 0.2488088 0.9323478
vn -0.2593153 0.2779347 0.9249367
vn -0.264483 0.349939 0.8986609
vn -0.268683 0.3229207 0.9074864
vn -0.2666644 0.4170797 0.8688697
vn -0.2610217 0.4412588 0.8585793
vn -0.2532011 0.5197085 0.815961
vn -0.2463234 0.5397777 0.8049626
vn -0.2188671 0.6356417 0.7403086
vn -0.2265457 0.6200374 0.7511529
vn -0.1856771 0.7128235 0.6763185
vn -0.1776857 0.7242302 0.6662721
vn -0.1369085 0.7873732 0.6010819
vn -0.1289298 0.7954539 0.5921403
vn -0.0595511 0.8635696 0.5007008
vn -0.06735969 0.8588375 0.5077999
vn 0.005122 0.9034797 0.4286003
vn -0.003714627 0.9002845 0.4352861
vn 0.05541222 0.9274082 0.3699237
vn 0.06494593 0.9288918 0.3646122
vn 0.07618609 0.9385132 0.3367324
vn 0.06662844 0.9379916 0.3401948
vn 0.0484423 0.9450469 0.3233261
vn 0.03901212 0.9449348 0.3249249
vn -0.01160741 0.95212 0.3055041
vn -0.001949625 0.952107 0.305759
vn -0.04746687 0.9591318 0.2789501
vn -0.05654844 0.9592257 0.2769268
vn -0.07941543 0.9661956 0.2452736
vn -0.08643923 0.9664268 0.2419659
vn -0.1191032 0.9735281 0.1950831
vn -0.1137384 0.9732544 0.1995984
vn -0.136467 0.97908 0.1509272
vn -0.139828 0.9793046 0.1463238
vn -0.1424321 0.9830819 0.1151651
vn -0.1443439 0.9832373 0.111397
vn -0.1419104 0.9868896 0.07687833
vn -0.1427756 0.9870806 0.07271262
vn -0.1376995 0.9894471 0.0450917
vn -0.1375284 0.9892731 0.04924107
vn -0.1274434 0.9916043 0.02188648
vn -0.1288757 0.9913111 0.02633157
vn -0.115538 0.9932634 0.008879841
vn -0.1110394 0.9938082 0.003948176
vn -0.09085584 0.9958336 -0.00779045
vn -0.09721465 0.9952576 -0.003413317
vn -0.07010233 0.997444 -0.01382657
vn -0.07631408 0.9970258 -0.01074964
vn -0.05630978 0.9983036 -0.01480463
vn -0.05123838 0.998546 -0.01674582
vn -0.03055243 0.9993683 -0.01815168
vn -0.03532318 0.999243 -0.01630131
vn -7.077332E-05 0.9998488 -0.01738837
vn -0.006802016 0.9998457 -0.01619633
vn 0.02968615 0.9995493 -0.00445294
vn 0.03722819 0.9993012 -0.003340988
vn 0.0513522 0.9986677 0.005079953
vn 0.04303637 0.9990696 0.00279333
g WonderBox_SmokeTop_0
f 3/3/3 2/2/2 1/1/1
f 4/4/4 3/3/3 1/1/1
f 1/1/1 2/2/2 5/5/5
f 2/2/2 6/6/6 5/5/5
f 5/5/5 6/6/6 7/7/7
f 6/6/6 8/8/8 7/7/7
f 7/7/7 8/8/8 9/9/9
f 8/8/8 10/10/10 9/9/9
f 9/9/9 10/10/10 11/11/11
f 10/10/10 12/12/12 11/11/11
f 11/11/11 12/12/12 13/13/13
f 12/12/12 14/14/14 13/13/13
f 13/13/13 14/14/14 15/15/15
f 14/14/14 16/16/16 15/15/15
f 15/15/15 16/16/16 17/17/17
f 16/16/16 18/18/18 17/17/17
f 17/17/17 18/18/18 19/19/19
f 18/18/18 20/20/20 19/19/19
f 19/19/19 20/20/20 21/21/21
f 20/20/20 22/22/22 21/21/21
f 21/21/21 22/22/22 23/23/23
f 22/22/22 24/24/24 23/23/23
f 23/23/23 24/24/24 25/25/25
f 26/26/26 23/23/23 25/25/25
f 26/26/26 25/25/25 27/27/27
f 28/28/28 26/26/26 27/27/27
f 28/28/28 27/27/27 29/29/29
f 27/27/27 30/30/30 29/29/29
f 29/29/29 30/30/30 31/31/31
f 32/32/32 29/29/29 31/31/31
f 32/32/32 31/31/31 33/33/33
f 34/34/34 32/32/32 33/33/33
f 34/34/34 33/33/33 35/35/35
f 33/33/33 36/36/36 35/35/35
f 35/35/35 36/36/36 37/37/37
f 38/38/38 35/35/35 37/37/37
f 38/38/38 37/37/37 39/39/39
f 40/40/40 38/38/38 39/39/39
f 40/40/40 39/39/39 41/41/41
f 39/39/39 42/42/42 41/41/41
f 41/41/41 42/42/42 43/43/43
f 44/44/44 41/41/41 43/43/43
f 44/44/44 43/43/43 45/45/45
f 43/43/43 46/46/46 45/45/45
f 45/45/45 46/46/46 47/47/47
f 46/46/46 48/48/48 47/47/47
f 47/47/47 48/48/48 49/49/49
f 48/48/48 50/50/50 49/49/49
f 49/49/49 50/50/50 51/51/51
f 50/50/50 52/52/52 51/51/51
f 51/51/51 52/52/52 53/53/53
f 52/52/52 54/54/54 53/53/53
f 53/53/53 54/54/54 55/55/55
f 54/54/54 56/56/56 55/55/55
f 55/55/55 56/56/56 57/57/57
f 56/56/56 58/58/58 57/57/57
f 57/57/57 58/58/58 59/59/59
f 58/58/58 60/60/60 59/59/59
f 59/59/59 60/60/60 61/61/61
f 60/60/60 62/62/62 61/61/61
f 61/61/61 62/62/62 63/63/63
f 62/62/62 64/64/64 63/63/63
f 63/63/63 64/64/64 65/65/65
f 64/64/64 66/66/66 65/65/65
f 65/65/65 66/66/66 67/67/67
f 66/66/66 68/68/68 67/67/67
f 67/67/67 68/68/68 69/69/69
f 68/68/68 70/70/70 69/69/69
f 69/69/69 70/70/70 71/71/71
f 70/70/70 72/72/72 71/71/71
f 71/71/71 72/72/72 73/73/73
f 72/72/72 74/74/74 73/73/73
f 73/73/73 74/74/74 75/75/75
f 74/74/74 76/76/76 75/75/75
f 75/75/75 76/76/76 77/77/77
f 78/78/78 75/75/75 77/77/77
f 77/77/77 76/76/76 79/79/79
f 76/76/76 80/80/80 79/79/79
f 80/80/80 76/76/76 74/74/74
f 79/79/79 80/80/80 81/81/81
f 80/80/80 82/82/82 81/81/81
f 82/82/82 80/80/80 83/83/83
f 80/80/80 84/84/84 83/83/83
f 84/84/84 80/80/80 74/74/74
f 84/84/84 74/74/74 72/72/72
f 83/83/83 84/84/84 85/85/85
f 85/85/85 84/84/84 72/72/72
f 85/85/85 72/72/72 70/70/70
f 86/86/86 83/83/83 85/85/85
f 86/86/86 85/85/85 87/87/87
f 88/88/88 86/86/86 87/87/87
f 87/87/87 85/85/85 70/70/70
f 88/88/88 87/87/87 89/89/89
f 87/87/87 90/90/90 89/89/89
f 89/89/89 90/90/90 91/91/91
f 92/92/92 89/89/89 91/91/91
f 87/87/87 70/70/70 68/68/68
f 90/90/90 87/87/87 68/68/68
f 90/90/90 68/68/68 66/66/66
f 91/91/91 90/90/90 66/66/66
f 92/92/92 91/91/91 93/93/93
f 94/94/94 92/92/92 93/93/93
f 91/91/91 66/66/66 64/64/64
f 93/93/93 91/91/91 64/64/64
f 94/94/94 93/93/93 95/95/95
f 93/93/93 96/96/96 95/95/95
f 95/95/95 96/96/96 97/97/97
f 98/98/98 95/95/95 97/97/97
f 93/93/93 64/64/64 62/62/62
f 96/96/96 93/93/93 62/62/62
f 96/96/96 62/62/62 60/60/60
f 97/97/97 96/96/96 60/60/60
f 98/98/98 97/97/97 99/99/99
f 100/100/100 98/98/98 99/99/99
f 97/97/97 60/60/60 58/58/58
f 99/99/99 97/97/97 58/58/58
f 100/100/100 99/99/99 101/101/101
f 99/99/99 102/102/102 101/101/101
f 101/101/101 102/102/102 103/103/103
f 104/104/104 101/101/101 103/103/103
f 99/99/99 58/58/58 56/56/56
f 102/102/102 99/99/99 56/56/56
f 102/102/102 56/56/56 54/54/54
f 103/103/103 102/102/102 54/54/54
f 104/104/104 103/103/103 105/105/105
f 106/106/106 104/104/104 105/105/105
f 103/103/103 54/54/54 52/52/52
f 105/105/105 103/103/103 52/52/52
f 106/106/106 105/105/105 107/107/107
f 105/105/105 108/108/108 107/107/107
f 107/107/107 108/108/108 109/109/109
f 110/110/110 107/107/107 109/109/109
f 105/105/105 52/52/52 50/50/50
f 108/108/108 105/105/105 50/50/50
f 108/108/108 50/50/50 48/48/48
f 109/109/109 108/108/108 48/48/48
f 110/110/110 109/109/109 111/111/111
f 112/112/112 110/110/110 111/111/111
f 109/109/109 48/48/48 46/46/46
f 111/111/111 109/109/109 46/46/46
f 112/112/112 111/111/111 113/113/113
f 111/111/111 114/114/114 113/113/113
f 113/113/113 114/114/114 115/115/115
f 114/114/114 116/116/116 115/115/115
f 111/111/111 46/46/46 43/43/43
f 114/114/114 111/111/111 43/43/43
f 42/42/42 116/116/116 114/114/114
f 43/43/43 42/42/42 114/114/114
f 115/115/115 116/116/116 117/117/117
f 116/116/116 42/42/42 117/117/117
f 118/118/118 115/115/115 117/117/117
f 42/42/42 39/39/39 117/117/117
f 118/118/118 117/117/117 119/119/119
f 117/117/117 120/120/120 119/119/119
f 37/37/37 120/120/120 117/117/117
f 39/39/39 37/37/37 117/117/117
f 119/119/119 120/120/120 121/121/121
f 120/120/120 122/122/122 121/121/121
f 36/36/36 122/122/122 120/120/120
f 37/37/37 36/36/36 120/120/120
f 121/121/121 122/122/122 123/123/123
f 122/122/122 36/36/36 123/123/123
f 124/124/124 121/121/121 123/123/123
f 36/36/36 33/33/33 123/123/123
f 124/124/124 123/123/123 125/125/125
f 123/123/123 126/126/126 125/125/125
f 31/31/31 126/126/126 123/123/123
f 33/33/33 31/31/31 123/123/123
f 125/125/125 126/126/126 127/127/127
f 126/126/126 128/128/128 127/127/127
f 30/30/30 128/128/128 126/126/126
f 31/31/31 30/30/30 126/126/126
f 127/127/127 128/128/128 129/129/129
f 128/128/128 30/30/30 129/129/129
f 130/130/130 127/127/127 129/129/129
f 30/30/30 27/27/27 129/129/129
f 130/130/130 129/129/129 131/131/131
f 129/129/129 132/132/132 131/131/131
f 25/25/25 132/132/132 129/129/129
f 27/27/27 25/25/25 129/129/129
f 131/131/131 132/132/132 133/133/133
f 132/132/132 134/134/134 133/133/133
f 24/24/24 134/134/134 132/132/132
f 25/25/25 24/24/24 132/132/132
f 133/133/133 134/134/134 135/135/135
f 134/134/134 136/136/136 135/135/135
f 135/135/135 136/136/136 137/137/137
f 138/138/138 135/135/135 137/137/137
f 134/134/134 24/24/24 22/22/22
f 136/136/136 134/134/134 22/22/22
f 136/136/136 22/22/22 20/20/20
f 137/137/137 136/136/136 20/20/20
f 138/138/138 137/137/137 139/139/139
f 140/140/140 138/138/138 139/139/139
f 137/137/137 20/20/20 18/18/18
f 139/139/139 137/137/137 18/18/18
f 140/140/140 139/139/139 141/141/141
f 139/139/139 142/142/142 141/141/141
f 141/141/141 142/142/142 143/143/143
f 144/144/144 141/141/141 143/143/143
f 139/139/139 18/18/18 16/16/16
f 142/142/142 139/139/139 16/16/16
f 142/142/142 16/16/16 14/14/14
f 143/143/143 142/142/142 14/14/14
f 144/144/144 143/143/143 145/145/145
f 146/146/146 144/144/144 145/145/145
f 143/143/143 14/14/14 12/12/12
f 145/145/145 143/143/143 12/12/12
f 146/146/146 145/145/145 147/147/147
f 145/145/145 148/148/148 147/147/147
f 147/147/147 148/148/148 149/149/149
f 150/150/150 147/147/147 149/149/149
f 145/145/145 12/12/12 10/10/10
f 148/148/148 145/145/145 10/10/10
f 148/148/148 10/10/10 8/8/8
f 149/149/149 148/148/148 8/8/8
f 150/150/150 149/149/149 151/151/151
f 152/152/152 150/150/150 151/151/151
f 149/149/149 8/8/8 6/6/6
f 151/151/151 149/149/149 6/6/6
f 152/152/152 151/151/151 153/153/153
f 151/151/151 154/154/154 153/153/153
f 153/153/153 154/154/154 155/155/155
f 156/156/156 153/153/153 155/155/155
f 151/151/151 6/6/6 2/2/2
f 154/154/154 151/151/151 2/2/2
f 154/154/154 2/2/2 3/3/3
f 155/155/155 154/154/154 3/3/3
