g WonderBox_SmokeTrails3
v 0.06097336 0.04304917 -0.01298765
v 0.06242107 0.04409679 -0.0137009
v 0.06571 0.04501088 -0.004703449
v 0.06429248 0.04401386 -0.004204671
v 0.06386302 0.04514024 -0.01441131
v 0.06712191 0.04600394 -0.005200242
v 0.06525894 0.04615038 -0.01509905
v 0.06848873 0.0469653 -0.005681177
v 0.0695744 0.04690968 0.004652787
v 0.07091071 0.04781989 0.004388717
v 0.07091866 0.04777486 0.01424906
v 0.06956839 0.04688512 0.01430786
v 0.06819402 0.04596948 0.004925564
v 0.06680813 0.04502551 0.005199431
v 0.06821273 0.04599183 0.01436689
v 0.07222582 0.0486362 0.01419215
v 0.0579443 0.04224188 -0.01914898
v 0.06072983 0.04440686 -0.02099632
v 0.05933983 0.04332653 -0.02007449
v 0.05405641 0.04136416 -0.02549027
v 0.05539523 0.04248907 -0.02664655
v 0.0490855 0.04036538 -0.03237721
v 0.05035978 0.04153611 -0.03379609
v 0.05162899 0.04270219 -0.03520933
v 0.05672873 0.04360951 -0.02779824
v 0.05801966 0.04469419 -0.02891315
v 0.05285769 0.04383104 -0.03657746
v 0.06207545 0.04545271 -0.02188871
v 0.0427037 0.0391696 -0.0394908
v 0.04379943 0.04038564 -0.04122135
v 0.03447803 0.03777801 -0.04537253
v 0.035366 0.03904679 -0.04746576
v 0.01887288 0.03517105 -0.05334066
v 0.01921149 0.03651908 -0.05600462
v 0.003164113 0.03261394 -0.05683362
v 0.002829209 0.0340293 -0.05993393
v -0.0119612 0.03022254 -0.05619973
v -0.0130576 0.0317003 -0.0595816
v -0.02588231 0.02811847 -0.05187931
v -0.0277933 0.02966166 -0.05536938
v -0.03824387 0.02644655 -0.04468097
v -0.04099262 0.02806987 -0.04809441
v -0.04875686 0.0253574 -0.03550536
v -0.05233791 0.02708816 -0.03864768
v -0.05711654 0.02498059 -0.02511133
v -0.06149032 0.02685783 -0.02777669
v -0.0629552 0.02536151 -0.01369061
v -0.06802629 0.02743245 -0.0156551
v -0.06588942 0.02652451 -0.001293106
v -0.07150103 0.02884367 -0.002313068
v -0.06563764 0.02840128 0.01190837
v -0.07157261 0.03102449 0.01207728
v -0.06232591 0.03055286 0.02524953
v -0.06831026 0.03351337 0.02677604
v -0.05618211 0.03244763 0.03794323
v -0.06188603 0.03575012 0.04090137
v -0.0473537 0.03364985 0.04923926
v -0.05240107 0.03727237 0.05360704
v -0.03566619 0.0341073 0.05853532
v -0.03967297 0.03800891 0.06418935
v -0.02086462 0.03386366 0.06526606
v -0.02344842 0.03798638 0.07198024
v -0.003017924 0.03297629 0.06884511
v -0.003822991 0.03725006 0.07629631
v 0.0165094 0.0315573 0.06860205
v 0.01771216 0.03591994 0.07639293
v 0.03602893 0.02973248 0.06384543
v 0.03931701 0.03413467 0.07151016
v 0.05397758 0.02764619 0.05430702
v 0.05928593 0.03205051 0.06134047
v 0.06929339 0.02551715 0.04141137
v 0.07645098 0.02989416 0.04738606
v 0.08103977 0.02358263 0.02700622
v 0.08977864 0.02790988 0.03160154
v 0.08856502 0.02197662 0.0126078
v 0.0985411 0.02623604 0.01560449
v 0.09235734 0.02041982 -0.001593678
v 0.1032333 0.02458736 -0.0003358125
v 0.09318986 0.01852965 -0.01573951
v 0.1046561 0.02257263 -0.01628711
v 0.09176862 0.01603136 -0.02985919
v 0.103532 0.01990861 -0.03222317
v 0.0885313 0.0130816 -0.04353496
v 0.1002713 0.01674397 -0.04774171
v 0.08384844 0.009944847 -0.05623726
v 0.09520634 0.01333536 -0.06234648
v 0.07794206 0.006867936 -0.06749018
v 0.08851992 0.009928587 -0.07557568
v 0.07044013 0.004027083 -0.07703238
v 0.07979719 0.006726067 -0.08710555
v 0.0608221 0.00158085 -0.08465622
v 0.06847386 0.003919388 -0.09664683
v 0.04854649 -0.0003198081 -0.09023172
v 0.05405115 0.001696496 -0.1039723
v 0.03298812 -0.001554377 -0.09393971
v 0.03629234 0.0002307877 -0.1091033
v 0.01502627 -0.0003079788 -0.112123
v 0.01350088 -0.00200995 -0.09603874
v 0.0165456 0.001387227 -0.1281433
v 0.03958344 0.002008857 -0.1242066
v 0.01801643 0.003028313 -0.1436522
v 0.04276947 0.00373016 -0.1388277
v 0.06484166 0.00564896 -0.1309074
v 0.05953392 0.003704786 -0.1176583
v 0.08347324 0.00850351 -0.1201514
v 0.07609521 0.00624863 -0.1085898
v 0.08911707 0.009414322 -0.09713869
v 0.0981394 0.01201675 -0.1068515
v 0.1092552 0.01592823 -0.0914253
v 0.09905574 0.01297707 -0.08362904
v 0.1065191 0.0167124 -0.06843141
v 0.1174707 0.01998163 -0.07432207
v 0.1119646 0.02039179 -0.05193174
v 0.1232846 0.02392315 -0.05598801
v 0.1265911 0.02750899 -0.03685716
v 0.1152485 0.02377045 -0.03457775
v 0.1160768 0.02659954 -0.01683254
v 0.1271328 0.03049789 -0.01736055
v 0.1245531 0.0327568 0.002129921
v 0.1140661 0.02873835 0.0009170535
v 0.1084775 0.03047854 0.01858926
v 0.1180967 0.03458559 0.02147875
v 0.106909 0.03639236 0.04060955
v 0.09848279 0.03221992 0.03617861
v 0.08358011 0.03425376 0.053337
v 0.09048165 0.03847419 0.05909795
v 0.06969164 0.04068409 0.0751278
v 0.06457318 0.03643733 0.06834596
v 0.04259202 0.03851936 0.07914442
v 0.04576247 0.04276407 0.08653495
v 0.01891015 0.04026524 0.08415285
v 0.02006989 0.0444718 0.09166503
v -0.005401126 0.04562772 0.09090253
v -0.004624858 0.04150684 0.08371789
v -0.02602194 0.04209271 0.07866772
v -0.02851331 0.04606795 0.0851417
v -0.04752727 0.04565706 0.07527266
v -0.04366383 0.04189502 0.0698209
v -0.05742838 0.04088048 0.05795745
v -0.0622952 0.04437341 0.06216898
v -0.07306715 0.04222383 0.04670007
v -0.06756728 0.03903949 0.04384775
v -0.07427083 0.03646211 0.02829648
v -0.08004111 0.03931671 0.02976838
v -0.08320664 0.03616664 0.01240839
v -0.07748399 0.03363727 0.01224552
v -0.07709035 0.03115361 -0.003328977
v -0.08250122 0.0333898 -0.004312452
v -0.07307722 0.02949516 -0.01761178
v -0.07796689 0.03149201 -0.019506
v -0.07006405 0.03053768 -0.03300147
v -0.06584673 0.0287276 -0.03043146
v -0.05590473 0.02881203 -0.04177751
v -0.05935767 0.03048087 -0.04480741
v -0.04638086 0.03125197 -0.05478561
v -0.04373045 0.02968673 -0.05149428
v -0.02969669 0.03119871 -0.05884558
v -0.03153931 0.0326867 -0.0622108
v -0.01520682 0.0345971 -0.06621093
v -0.01414965 0.03317219 -0.06295003
v 0.002495636 0.03543904 -0.06302191
v 0.002172713 0.03680377 -0.06601131
v 0.01987524 0.03916157 -0.06122665
v 0.01954875 0.03786176 -0.05865799
v 0.03625043 0.04031053 -0.04955067
v 0.03710663 0.04153392 -0.05156902
v 0.04489082 0.04159686 -0.04294501
v 0.04594736 0.0427694 -0.04461364
vt 1 0.9722222
vt 0.6666667 0.9722222
vt 0.6666667 0.9813285
vt 1 0.9813286
vt 0.3333333 0.9722222
vt 0.3333334 0.9813286
vt 0 0.9722222
vt 0 0.9813285
vt 0.3333334 0.9908782
vt 0 0.9908782
vt 0.3333333 1
vt 0.6666667 1
vt 0.6666667 0.9908782
vt 1 0.9908782
vt 1 1
vt 0 1
vt 1 0.9638666
vt 0.3333333 0.9638666
vt 0.6666667 0.9638666
vt 1 0.9547819
vt 0.6666667 0.9547819
vt 1 0.9444444
vt 0.6666667 0.9444444
vt 0.3333333 0.9444444
vt 0.3333333 0.9547819
vt 0 0.9547819
vt 0 0.9444444
vt 0 0.9638666
vt 1 0.9316067
vt 0.6666667 0.9316067
vt 1 0.9166667
vt 0.6666667 0.9166667
vt 1 0.8888889
vt 0.6666667 0.8888889
vt 1 0.8611111
vt 0.6666667 0.8611111
vt 1 0.8333333
vt 0.6666667 0.8333333
vt 1 0.8055556
vt 0.6666667 0.8055556
vt 1 0.7777778
vt 0.6666667 0.7777778
vt 1 0.75
vt 0.6666667 0.75
vt 1 0.7222222
vt 0.6666667 0.7222222
vt 1 0.6944444
vt 0.6666667 0.6944444
vt 1 0.6666667
vt 0.6666667 0.6666667
vt 1 0.6388889
vt 0.6666667 0.6388889
vt 1 0.6111111
vt 0.6666667 0.6111111
vt 1 0.5833333
vt 0.6666667 0.5833333
vt 1 0.5555556
vt 0.6666667 0.5555556
vt 1 0.5277778
vt 0.6666667 0.5277778
vt 1 0.5
vt 0.6666667 0.5
vt 1 0.4722222
vt 0.6666667 0.4722222
vt 1 0.4444444
vt 0.6666667 0.4444444
vt 1 0.4166667
vt 0.6666667 0.4166667
vt 1 0.3888889
vt 0.6666667 0.3888889
vt 1 0.3611111
vt 0.6666667 0.3611111
vt 1 0.3333333
vt 0.6666667 0.3333333
vt 1 0.3055556
vt 0.6666667 0.3055556
vt 1 0.2777778
vt 0.6666667 0.2777778
vt 1 0.25
vt 0.6666667 0.25
vt 1 0.2222222
vt 0.6666667 0.2222222
vt 1 0.1944444
vt 0.6666667 0.1944444
vt 1 0.1666667
vt 0.6666667 0.1666667
vt 1 0.1388889
vt 0.6666667 0.1388889
vt 1 0.1111111
vt 0.6666667 0.1111111
vt 1 0.08333334
vt 0.6666667 0.08333334
vt 1 0.05555556
vt 0.6666667 0.05555556
vt 1 0.02777778
vt 0.6666667 0.02777778
vt 0.6666667 0
vt 1 0
vt 0.3333333 0
vt 0.3333333 0.02777778
vt 0 0
vt 0 0.02777778
vt 0 0.05555556
vt 0.3333333 0.05555556
vt 0 0.08333334
vt 0.3333333 0.08333334
vt 0.3333333 0.1111111
vt 0 0.1111111
vt 0 0.1388889
vt 0.3333333 0.1388889
vt 0.3333333 0.1666667
vt 0 0.1666667
vt 0.3333333 0.1944444
vt 0 0.1944444
vt 0 0.2222222
vt 0.3333333 0.2222222
vt 0.3333333 0.25
vt 0 0.25
vt 0 0.2777778
vt 0.3333333 0.2777778
vt 0.3333333 0.3055556
vt 0 0.3055556
vt 0 0.3333333
vt 0.3333333 0.3333333
vt 0.3333333 0.3611111
vt 0 0.3611111
vt 0 0.3888889
vt 0.3333333 0.3888889
vt 0.3333333 0.4166667
vt 0 0.4166667
vt 0.3333333 0.4444444
vt 0 0.4444444
vt 0 0.4722222
vt 0.3333333 0.4722222
vt 0.3333333 0.5
vt 0 0.5
vt 0 0.5277778
vt 0.3333333 0.5277778
vt 0.3333333 0.5555556
vt 0 0.5555556
vt 0 0.5833333
vt 0.3333333 0.5833333
vt 0.3333333 0.6111111
vt 0 0.6111111
vt 0 0.6388889
vt 0.3333333 0.6388889
vt 0.3333333 0.6666667
vt 0 0.6666667
vt 0.3333333 0.6944444
vt 0 0.6944444
vt 0 0.7222222
vt 0.3333333 0.7222222
vt 0.3333333 0.75
vt 0 0.75
vt 0 0.7777778
vt 0.3333333 0.7777778
vt 0.3333333 0.8055556
vt 0 0.8055556
vt 0 0.8333333
vt 0.3333333 0.8333333
vt 0.3333333 0.8611111
vt 0 0.8611111
vt 0 0.8888889
vt 0.3333333 0.8888889
vt 0.3333333 0.9166667
vt 0 0.9166667
vt 0.3333333 0.9316067
vt 0 0.9316067
vn -0.539843 0.831238 0.1327135
vn -0.5395392 0.8313442 0.1332824
vn -0.5507222 0.8300086 0.08826483
vn -0.5506713 0.8300156 0.08851627
vn -0.538868 0.8315404 0.1347657
vn -0.5505712 0.8300437 0.08887479
vn -0.5384868 0.8316379 0.1356848
vn -0.5504969 0.8300604 0.0891792
vn -0.5566997 0.8300101 0.03418577
vn -0.5565807 0.830083 0.03435211
vn -0.5564412 0.8308812 0.003099719
vn -0.5566545 0.830744 0.0005786006
vn -0.5569508 0.8299136 0.03239175
vn -0.5570869 0.8298105 0.03269181
vn -0.5567769 0.8306616 -0.0008643888
vn -0.5563449 0.8309407 0.004243332
vn -0.5251078 0.8316004 0.1808387
vn -0.5231595 0.8320442 0.1844084
vn -0.5244083 0.8317586 0.1821364
vn -0.5067402 0.8329721 0.2221977
vn -0.5060827 0.8330966 0.2232274
vn -0.482487 0.8359888 0.2613985
vn -0.4810506 0.8362635 0.2631609
vn -0.4795219 0.8366526 0.2647094
vn -0.5053263 0.8332667 0.2243031
vn -0.5045007 0.8334036 0.2256488
vn -0.4776386 0.8369803 0.2670681
vn -0.5223803 0.8321763 0.1860146
vn -0.430527 0.8452305 0.3165942
vn -0.4282326 0.8456315 0.3186286
vn -0.3584209 0.8561538 0.3722031
vn -0.3570057 0.8564051 0.3729842
vn -0.2897262 0.8684569 0.4022951
vn -0.2849694 0.869327 0.4038106
vn -0.1809428 0.8873569 0.4240962
vn -0.1763187 0.8881834 0.4243135
vn -0.06728895 0.9062045 0.4174514
vn -0.06407701 0.9067305 0.4168141
vn 0.03973823 0.9216185 0.3860572
vn 0.04152686 0.9218747 0.3852565
vn 0.1327427 0.9320228 0.3372135
vn 0.1341483 0.9321911 0.3361903
vn 0.2146299 0.9378327 0.2727707
vn 0.2162848 0.9379575 0.2710288
vn 0.2903383 0.9389219 0.1847414
vn 0.2918901 0.9389119 0.1823311
vn 0.3544008 0.93276 0.06602152
vn 0.3550375 0.9326333 0.06437045
vn 0.3905154 0.9178131 -0.07153161
vn 0.3904963 0.9178694 -0.07091101
vn 0.391255 0.900332 -0.1905829
vn 0.3915324 0.9006088 -0.1886955
vn 0.3700647 0.8881466 -0.2724846
vn 0.3706305 0.8883994 -0.2708867
vn 0.3416478 0.8808988 -0.3275578
vn 0.3419995 0.881011 -0.3268883
vn 0.3037559 0.8753259 -0.376214
vn 0.3038338 0.8753641 -0.376062
vn 0.2467805 0.8703884 -0.4260556
vn 0.2471841 0.8704382 -0.4257198
vn 0.173482 0.8675708 -0.4660739
vn 0.1742947 0.8676037 -0.4657093
vn 0.09422147 0.8679017 -0.4877181
vn 0.09469705 0.8679025 -0.4876246
vn 0.007546721 0.8720248 -0.4894034
vn 0.007505103 0.8720315 -0.4893923
vn -0.08847658 0.8797755 -0.4670835
vn -0.08852334 0.8797768 -0.4670723
vn -0.1750134 0.8885149 -0.4241597
vn -0.1751606 0.888531 -0.4240652
vn -0.2393434 0.897469 -0.3704919
vn -0.2398833 0.897558 -0.3699266
vn -0.28824 0.907572 -0.305337
vn -0.2887518 0.9076902 -0.3045013
vn -0.3221639 0.9181879 -0.2305246
vn -0.3220571 0.9181495 -0.2308264
vn -0.3355577 0.9267403 -0.1689773
vn -0.335292 0.9265364 -0.1706154
vn -0.3358714 0.9316439 -0.1386723
vn -0.3358456 0.9314801 -0.1398308
vn -0.3342367 0.9339575 -0.1265282
vn -0.3341578 0.9340083 -0.1263607
vn -0.3335463 0.9358787 -0.1134806
vn -0.3330418 0.9362416 -0.1119587
vn -0.3310199 0.9390138 -0.09316114
vn -0.3297507 0.939727 -0.09043029
vn -0.3183608 0.9461625 -0.05850585
vn -0.3162103 0.9470786 -0.05525532
vn -0.2830041 0.9590929 -0.007033082
vn -0.2811423 0.9596527 -0.005064978
vn -0.2195339 0.9744246 0.04797547
vn -0.2204901 0.9742321 0.04749726
vn -0.1408132 0.9862761 0.08620321
vn -0.1451644 0.9857782 0.08466829
vn -0.06710489 0.9925168 0.1020165
vn -0.07165943 0.9922897 0.1011239
vn -0.04010122 0.9936956 0.1046946
vn -0.03744886 0.9937552 0.1051111
vn -0.04460639 0.9935781 0.1039851
vn -0.07738974 0.9919887 0.09984683
vn -0.04652129 0.9935218 0.1036829
vn -0.07864222 0.9919282 0.09946808
vn -0.1501804 0.985182 0.08283819
vn -0.1494213 0.9852734 0.08312397
vn -0.2196069 0.9743848 0.04844753
vn -0.2204307 0.9742312 0.04778976
vn -0.2783152 0.9604875 -0.002071214
vn -0.2763828 0.9610476 3.112608E-05
vn -0.3113926 0.9490696 -0.04797444
vn -0.3131301 0.9483543 -0.0507306
vn -0.3277679 0.9408118 -0.08626294
vn -0.3268026 0.9413518 -0.08400504
vn -0.3322284 0.9368305 -0.1094208
vn -0.3318455 0.937125 -0.1080521
vn -0.3339395 0.9341936 -0.1255659
vn -0.334021 0.9341117 -0.1259572
vn -0.3357728 0.9312536 -0.1415039
vn -0.3357105 0.9312178 -0.1418865
vn -0.3348103 0.92625 -0.1730981
vn -0.334879 0.9262182 -0.1731354
vn -0.3215591 0.917933 -0.232376
vn -0.3220538 0.918152 -0.2308208
vn -0.2899972 0.9079703 -0.3024757
vn -0.2886296 0.9076344 -0.3047831
vn -0.2400352 0.8975778 -0.36978
vn -0.2415496 0.8978327 -0.3681716
vn -0.1768174 0.888726 -0.4229677
vn -0.1754359 0.8885615 -0.4238875
vn -0.08902856 0.8798176 -0.4668992
vn -0.09063353 0.8799598 -0.466322
vn 0.006734655 0.8720844 -0.4893092
vn 0.005321941 0.8721731 -0.4891685
vn 0.0931759 0.8679563 -0.4878219
vn 0.09382066 0.8679362 -0.4877341
vn 0.1733503 0.8676009 -0.4660669
vn 0.173089 0.8676021 -0.4661618
vn 0.2456289 0.8703707 -0.4267567
vn 0.2462188 0.8704 -0.4263568
vn 0.3033024 0.8753376 -0.3765525
vn 0.3025781 0.8752615 -0.3773113
vn 0.3419271 0.8810973 -0.3267316
vn 0.3422836 0.8811382 -0.3262476
vn 0.3712294 0.8887054 -0.2690564
vn 0.3711113 0.8887061 -0.2692168
vn 0.3917077 0.9007465 -0.1876721
vn 0.3917592 0.9008215 -0.1872041
vn 0.39067 0.9177554 -0.07142875
vn 0.3909937 0.9174511 -0.07353484
vn 0.3559647 0.9324447 0.06193604
vn 0.357596 0.9320861 0.05779848
vn 0.2965873 0.9388251 0.1750524
vn 0.2936191 0.9389179 0.1795023
vn 0.2182299 0.9381298 0.2688649
vn 0.2215229 0.9382989 0.2655613
vn 0.1391637 0.9327403 0.3326092
vn 0.1358498 0.932414 0.3348866
vn 0.04302089 0.92211 0.3845288
vn 0.04711156 0.9226484 0.3827537
vn -0.05661748 0.907935 0.4152692
vn -0.06246316 0.9070203 0.4164284
vn -0.1744538 0.8885587 0.4242985
vn -0.1672535 0.8897913 0.4246148
vn -0.2761081 0.8709513 0.4064581
vn -0.2831112 0.8697279 0.4042541
vn -0.3558953 0.8566703 0.3734362
vn -0.353563 0.8570408 0.374799
vn -0.4270887 0.845829 0.3196382
vn -0.4238822 0.8463705 0.3224607
g WonderBox_SmokeTrails3_0
f 3/3/3 2/2/2 1/1/1
f 4/4/4 3/3/3 1/1/1
f 5/5/5 2/2/2 3/3/3
f 6/6/6 5/5/5 3/3/3
f 7/7/7 5/5/5 6/6/6
f 8/8/8 7/7/7 6/6/6
f 8/8/8 6/6/6 9/9/9
f 10/10/10 8/8/8 9/9/9
f 10/10/10 9/9/9 11/11/11
f 11/11/11 9/9/9 12/12/12
f 9/9/9 13/13/13 12/12/12
f 6/6/6 3/3/3 13/13/13
f 9/9/9 6/6/6 13/13/13
f 13/13/13 3/3/3 4/4/4
f 12/12/12 13/13/13 14/14/14
f 14/14/14 13/13/13 4/4/4
f 15/15/15 12/12/12 14/14/14
f 16/16/16 10/10/10 11/11/11
f 1/1/1 2/2/2 17/17/17
f 18/18/18 5/5/5 7/7/7
f 5/5/5 18/18/18 2/2/2
f 2/2/2 19/19/19 17/17/17
f 18/18/18 19/19/19 2/2/2
f 17/17/17 19/19/19 20/20/20
f 19/19/19 21/21/21 20/20/20
f 20/20/20 21/21/21 22/22/22
f 21/21/21 23/23/23 22/22/22
f 24/24/24 23/23/23 21/21/21
f 25/25/25 24/24/24 21/21/21
f 25/25/25 21/21/21 19/19/19
f 18/18/18 25/25/25 19/19/19
f 24/24/24 25/25/25 26/26/26
f 27/27/27 24/24/24 26/26/26
f 25/25/25 18/18/18 28/28/28
f 26/26/26 25/25/25 28/28/28
f 28/28/28 18/18/18 7/7/7
f 22/22/22 23/23/23 29/29/29
f 23/23/23 30/30/30 29/29/29
f 29/29/29 30/30/30 31/31/31
f 30/30/30 32/32/32 31/31/31
f 31/31/31 32/32/32 33/33/33
f 32/32/32 34/34/34 33/33/33
f 33/33/33 34/34/34 35/35/35
f 34/34/34 36/36/36 35/35/35
f 35/35/35 36/36/36 37/37/37
f 36/36/36 38/38/38 37/37/37
f 37/37/37 38/38/38 39/39/39
f 38/38/38 40/40/40 39/39/39
f 39/39/39 40/40/40 41/41/41
f 40/40/40 42/42/42 41/41/41
f 41/41/41 42/42/42 43/43/43
f 42/42/42 44/44/44 43/43/43
f 43/43/43 44/44/44 45/45/45
f 44/44/44 46/46/46 45/45/45
f 45/45/45 46/46/46 47/47/47
f 46/46/46 48/48/48 47/47/47
f 47/47/47 48/48/48 49/49/49
f 48/48/48 50/50/50 49/49/49
f 49/49/49 50/50/50 51/51/51
f 50/50/50 52/52/52 51/51/51
f 51/51/51 52/52/52 53/53/53
f 52/52/52 54/54/54 53/53/53
f 53/53/53 54/54/54 55/55/55
f 54/54/54 56/56/56 55/55/55
f 55/55/55 56/56/56 57/57/57
f 56/56/56 58/58/58 57/57/57
f 57/57/57 58/58/58 59/59/59
f 58/58/58 60/60/60 59/59/59
f 59/59/59 60/60/60 61/61/61
f 60/60/60 62/62/62 61/61/61
f 61/61/61 62/62/62 63/63/63
f 62/62/62 64/64/64 63/63/63
f 63/63/63 64/64/64 65/65/65
f 64/64/64 66/66/66 65/65/65
f 65/65/65 66/66/66 67/67/67
f 66/66/66 68/68/68 67/67/67
f 67/67/67 68/68/68 69/69/69
f 68/68/68 70/70/70 69/69/69
f 69/69/69 70/70/70 71/71/71
f 70/70/70 72/72/72 71/71/71
f 71/71/71 72/72/72 73/73/73
f 72/72/72 74/74/74 73/73/73
f 73/73/73 74/74/74 75/75/75
f 74/74/74 76/76/76 75/75/75
f 75/75/75 76/76/76 77/77/77
f 76/76/76 78/78/78 77/77/77
f 77/77/77 78/78/78 79/79/79
f 78/78/78 80/80/80 79/79/79
f 79/79/79 80/80/80 81/81/81
f 80/80/80 82/82/82 81/81/81
f 81/81/81 82/82/82 83/83/83
f 82/82/82 84/84/84 83/83/83
f 83/83/83 84/84/84 85/85/85
f 84/84/84 86/86/86 85/85/85
f 85/85/85 86/86/86 87/87/87
f 86/86/86 88/88/88 87/87/87
f 87/87/87 88/88/88 89/89/89
f 88/88/88 90/90/90 89/89/89
f 89/89/89 90/90/90 91/91/91
f 90/90/90 92/92/92 91/91/91
f 91/91/91 92/92/92 93/93/93
f 92/92/92 94/94/94 93/93/93
f 93/93/93 94/94/94 95/95/95
f 94/94/94 96/96/96 95/95/95
f 95/95/95 96/96/96 97/97/97
f 98/98/98 95/95/95 97/97/97
f 97/97/97 96/96/96 99/99/99
f 96/96/96 100/100/100 99/99/99
f 100/100/100 96/96/96 94/94/94
f 99/99/99 100/100/100 101/101/101
f 100/100/100 102/102/102 101/101/101
f 103/103/103 102/102/102 100/100/100
f 104/104/104 103/103/103 100/100/100
f 104/104/104 100/100/100 94/94/94
f 104/104/104 94/94/94 92/92/92
f 103/103/103 104/104/104 105/105/105
f 104/104/104 106/106/106 105/105/105
f 106/106/106 104/104/104 92/92/92
f 105/105/105 106/106/106 107/107/107
f 108/108/108 105/105/105 107/107/107
f 107/107/107 106/106/106 90/90/90
f 106/106/106 92/92/92 90/90/90
f 108/108/108 107/107/107 109/109/109
f 107/107/107 110/110/110 109/109/109
f 109/109/109 110/110/110 111/111/111
f 112/112/112 109/109/109 111/111/111
f 107/107/107 90/90/90 88/88/88
f 110/110/110 107/107/107 88/88/88
f 110/110/110 88/88/88 86/86/86
f 111/111/111 110/110/110 86/86/86
f 112/112/112 111/111/111 113/113/113
f 114/114/114 112/112/112 113/113/113
f 111/111/111 86/86/86 84/84/84
f 113/113/113 111/111/111 84/84/84
f 114/114/114 113/113/113 115/115/115
f 113/113/113 116/116/116 115/115/115
f 115/115/115 116/116/116 117/117/117
f 118/118/118 115/115/115 117/117/117
f 113/113/113 84/84/84 82/82/82
f 116/116/116 113/113/113 82/82/82
f 116/116/116 82/82/82 80/80/80
f 117/117/117 116/116/116 80/80/80
f 118/118/118 117/117/117 119/119/119
f 117/117/117 120/120/120 119/119/119
f 119/119/119 120/120/120 121/121/121
f 122/122/122 119/119/119 121/121/121
f 117/117/117 80/80/80 78/78/78
f 120/120/120 117/117/117 78/78/78
f 120/120/120 78/78/78 76/76/76
f 121/121/121 120/120/120 76/76/76
f 122/122/122 121/121/121 123/123/123
f 121/121/121 124/124/124 123/123/123
f 123/123/123 124/124/124 125/125/125
f 126/126/126 123/123/123 125/125/125
f 121/121/121 76/76/76 74/74/74
f 124/124/124 121/121/121 74/74/74
f 124/124/124 74/74/74 72/72/72
f 125/125/125 124/124/124 72/72/72
f 126/126/126 125/125/125 127/127/127
f 125/125/125 128/128/128 127/127/127
f 127/127/127 128/128/128 129/129/129
f 130/130/130 127/127/127 129/129/129
f 125/125/125 72/72/72 70/70/70
f 128/128/128 125/125/125 70/70/70
f 128/128/128 70/70/70 68/68/68
f 129/129/129 128/128/128 68/68/68
f 130/130/130 129/129/129 131/131/131
f 132/132/132 130/130/130 131/131/131
f 129/129/129 68/68/68 66/66/66
f 131/131/131 129/129/129 66/66/66
f 132/132/132 131/131/131 133/133/133
f 131/131/131 134/134/134 133/133/133
f 133/133/133 134/134/134 135/135/135
f 136/136/136 133/133/133 135/135/135
f 131/131/131 66/66/66 64/64/64
f 134/134/134 131/131/131 64/64/64
f 134/134/134 64/64/64 62/62/62
f 135/135/135 134/134/134 62/62/62
f 136/136/136 135/135/135 137/137/137
f 135/135/135 138/138/138 137/137/137
f 137/137/137 138/138/138 139/139/139
f 140/140/140 137/137/137 139/139/139
f 135/135/135 62/62/62 60/60/60
f 138/138/138 135/135/135 60/60/60
f 138/138/138 60/60/60 58/58/58
f 139/139/139 138/138/138 58/58/58
f 140/140/140 139/139/139 141/141/141
f 139/139/139 142/142/142 141/141/141
f 141/141/141 142/142/142 143/143/143
f 144/144/144 141/141/141 143/143/143
f 139/139/139 58/58/58 56/56/56
f 142/142/142 139/139/139 56/56/56
f 142/142/142 56/56/56 54/54/54
f 143/143/143 142/142/142 54/54/54
f 144/144/144 143/143/143 145/145/145
f 143/143/143 146/146/146 145/145/145
f 145/145/145 146/146/146 147/147/147
f 148/148/148 145/145/145 147/147/147
f 143/143/143 54/54/54 52/52/52
f 146/146/146 143/143/143 52/52/52
f 146/146/146 52/52/52 50/50/50
f 147/147/147 146/146/146 50/50/50
f 148/148/148 147/147/147 149/149/149
f 150/150/150 148/148/148 149/149/149
f 147/147/147 50/50/50 48/48/48
f 149/149/149 147/147/147 48/48/48
f 150/150/150 149/149/149 151/151/151
f 149/149/149 152/152/152 151/151/151
f 151/151/151 152/152/152 153/153/153
f 154/154/154 151/151/151 153/153/153
f 149/149/149 48/48/48 46/46/46
f 152/152/152 149/149/149 46/46/46
f 152/152/152 46/46/46 44/44/44
f 153/153/153 152/152/152 44/44/44
f 154/154/154 153/153/153 155/155/155
f 153/153/153 156/156/156 155/155/155
f 155/155/155 156/156/156 157/157/157
f 158/158/158 155/155/155 157/157/157
f 153/153/153 44/44/44 42/42/42
f 156/156/156 153/153/153 42/42/42
f 156/156/156 42/42/42 40/40/40
f 157/157/157 156/156/156 40/40/40
f 158/158/158 157/157/157 159/159/159
f 157/157/157 160/160/160 159/159/159
f 159/159/159 160/160/160 161/161/161
f 162/162/162 159/159/159 161/161/161
f 157/157/157 40/40/40 38/38/38
f 160/160/160 157/157/157 38/38/38
f 160/160/160 38/38/38 36/36/36
f 161/161/161 160/160/160 36/36/36
f 162/162/162 161/161/161 163/163/163
f 161/161/161 164/164/164 163/163/163
f 163/163/163 164/164/164 165/165/165
f 166/166/166 163/163/163 165/165/165
f 161/161/161 36/36/36 34/34/34
f 164/164/164 161/161/161 34/34/34
f 164/164/164 34/34/34 32/32/32
f 165/165/165 164/164/164 32/32/32
f 166/166/166 165/165/165 167/167/167
f 168/168/168 166/166/166 167/167/167
f 165/165/165 32/32/32 30/30/30
f 167/167/167 165/165/165 30/30/30
f 167/167/167 30/30/30 23/23/23
f 24/24/24 167/167/167 23/23/23
f 168/168/168 167/167/167 24/24/24
f 27/27/27 168/168/168 24/24/24
