g WonderBox_SmokeTrails
v 0.05922849 0.02476931 0.07674677
v 0.03371772 0.01575041 0.08773289
v 0.03315365 0.01536549 0.08629595
v 0.0581192 0.02436532 0.07512716
v 0.07967018 0.0336845 0.06306732
v 0.07779376 0.03313275 0.06162291
v 0.09390382 0.04096978 0.04666637
v 0.09120907 0.04020943 0.04570587
v 0.1018532 0.04580088 0.02636071
v 0.09848715 0.04511404 0.02595905
v 0.1040626 0.0482107 0.004815327
v 0.1002049 0.04731022 0.005207555
v 0.1008714 0.0501641 -0.02243252
v 0.09677891 0.04875853 -0.02092605
v 0.09243379 0.04989272 -0.04845637
v 0.08833668 0.04787768 -0.04582891
v 0.07974301 0.04883982 -0.07202397
v 0.07594869 0.04634456 -0.06831505
v 0.0634765 0.04761551 -0.09182842
v 0.06021902 0.04469436 -0.08730667
v 0.04404624 0.04646404 -0.1064217
v 0.04153846 0.04315488 -0.1015084
v 0.02236743 0.04564468 -0.1170121
v 0.02085663 0.0417983 -0.11098
v -0.001089106 0.04707887 -0.1198892
v -0.001394102 0.04222998 -0.1143711
v -0.02342791 0.04895763 -0.1167717
v -0.02239504 0.04372396 -0.1106042
v -0.04527896 0.05119611 -0.1093703
v -0.04265157 0.04568021 -0.1034584
v -0.065547 0.05081087 -0.09758235
v -0.06115622 0.04519508 -0.09246286
v -0.08347721 0.04939492 -0.08119779
v -0.07726546 0.04365901 -0.07747779
v -0.09773181 0.04506258 -0.06067424
v -0.08984664 0.03937826 -0.05885283
v -0.1068273 0.03905723 -0.03657358
v -0.09764488 0.03356094 -0.03696207
v -0.109709 0.0325579 -0.01014311
v -0.09978364 0.02742721 -0.01244233
v -0.1070371 0.02652683 0.01530644
v -0.09689989 0.02180699 0.01110537
v -0.09990062 0.02172289 0.0387444
v -0.09000894 0.01737099 0.0323229
v -0.08931961 0.01862297 0.05819771
v -0.08006123 0.01453112 0.04974187
v -0.07603861 0.016768 0.0739359
v -0.06774775 0.01285284 0.06363747
v -0.06073324 0.01524199 0.08678915
v -0.05369465 0.01169397 0.07482101
v -0.0432238 0.0129961 0.09753149
v -0.03766305 0.009908142 0.08405891
v -0.0199091 0.01016229 0.1067123
v -0.01595413 0.007206087 0.0919378
v 0.01599596 0.003437205 0.0989994
v 0.01366739 0.006277075 0.1148247
v 0.01831526 0.0006086237 0.083237
v -0.01201489 0.004261636 0.07722206
v 0.02056052 -0.002129654 0.06797783
v -0.008201405 0.001411187 0.06297613
v -0.02676259 0.003637643 0.05764928
v -0.03212441 0.006832459 0.07063989
v -0.04668402 0.00802251 0.06290045
v -0.03989722 0.004609886 0.05136046
v -0.05948985 0.009038331 0.05337996
v -0.05149557 0.005477401 0.04344994
v -0.06191245 0.006786946 0.03316629
v -0.07083964 0.01053656 0.04131963
v -0.08015657 0.01312961 0.02592693
v -0.07061875 0.009132662 0.01973514
v -0.08680297 0.01722359 0.006921003
v -0.07702838 0.01290084 0.002870222
v -0.08032742 0.01773887 -0.01707157
v -0.08989773 0.02243936 -0.01490417
v -0.08849894 0.02818504 -0.03717279
v -0.07964497 0.02310733 -0.03715701
v -0.07438973 0.02834732 -0.05490883
v -0.08199281 0.03371868 -0.05693627
v -0.0710784 0.03794619 -0.073685
v -0.06508886 0.03241611 -0.06990579
v -0.05254918 0.03418669 -0.08207627
v -0.05678289 0.0396016 -0.08725163
v -0.04003461 0.0401878 -0.09741139
v -0.0375012 0.034868 -0.09136634
v -0.02136628 0.03850845 -0.104169
v -0.02037036 0.03355475 -0.09767359
v -0.00199197 0.03290135 -0.1005553
v -0.001697885 0.03745331 -0.107349
v 0.01927417 0.03788268 -0.1050603
v 0.01771583 0.03392094 -0.09946324
v 0.03646339 0.03668287 -0.09076248
v 0.038989 0.03981375 -0.09670153
v 0.05692677 0.04181219 -0.08272789
v 0.05371772 0.03903937 -0.07819939
v 0.06843967 0.0416301 -0.06108851
v 0.07213803 0.04392678 -0.06463742
v 0.08423179 0.04596587 -0.04316914
v 0.08026104 0.04418873 -0.04063927
v 0.09268152 0.04744835 -0.01940545
v 0.0887059 0.04623097 -0.01788113
v 0.09262015 0.04567366 0.006102788
v 0.09635251 0.04644701 0.00562656
v 0.09513154 0.04444052 0.025593
v 0.09188014 0.04387276 0.02526327
v 0.0859267 0.03885394 0.04365219
v 0.08852504 0.03943189 0.04468285
v 0.0759229 0.03259455 0.06016403
v 0.07411015 0.03206783 0.05870217
v 0.05594649 0.02362063 0.07188213
v 0.05701267 0.02397671 0.07349604
v 0.03259073 0.01500159 0.08485355
v 0.03206175 0.01468269 0.08343738
vt 1 0.962963
vt 1 1
vt 0.6666667 1
vt 0.6666667 0.962963
vt 1 0.9259259
vt 0.6666667 0.9259259
vt 1 0.8888889
vt 0.6666667 0.8888889
vt 1 0.8518519
vt 0.6666667 0.8518519
vt 1 0.8148148
vt 0.6666667 0.8148148
vt 1 0.7777778
vt 0.6666667 0.7777778
vt 1 0.7407407
vt 0.6666667 0.7407407
vt 1 0.7037037
vt 0.6666667 0.7037037
vt 1 0.6666667
vt 0.6666667 0.6666667
vt 1 0.6296296
vt 0.6666667 0.6296296
vt 1 0.5925926
vt 0.6666667 0.5925926
vt 1 0.5555556
vt 0.6666667 0.5555556
vt 1 0.5185185
vt 0.6666667 0.5185185
vt 1 0.4814815
vt 0.6666667 0.4814815
vt 1 0.4444444
vt 0.6666667 0.4444444
vt 1 0.4074074
vt 0.6666667 0.4074074
vt 1 0.3703704
vt 0.6666667 0.3703704
vt 1 0.3333333
vt 0.6666667 0.3333333
vt 1 0.2962963
vt 0.6666667 0.2962963
vt 1 0.2592593
vt 0.6666667 0.2592593
vt 1 0.2222222
vt 0.6666667 0.2222222
vt 1 0.1851852
vt 0.6666667 0.1851852
vt 1 0.1481481
vt 0.6666667 0.1481481
vt 1 0.1111111
vt 0.6666667 0.1111111
vt 1 0.07407407
vt 0.6666667 0.07407407
vt 1 0.03703704
vt 0.6666667 0.03703704
vt 0.6666667 0
vt 1 0
vt 0.3333333 0
vt 0.3333333 0.03703704
vt 0 0
vt 0 0.03703704
vt 0 0.07407407
vt 0.3333333 0.07407407
vt 0.3333333 0.1111111
vt 0 0.1111111
vt 0.3333333 0.1481481
vt 0 0.1481481
vt 0 0.1851852
vt 0.3333333 0.1851852
vt 0.3333333 0.2222222
vt 0 0.2222222
vt 0.3333333 0.2592593
vt 0 0.2592593
vt 0 0.2962963
vt 0.3333333 0.2962963
vt 0.3333333 0.3333333
vt 0 0.3333333
vt 0 0.3703704
vt 0.3333333 0.3703704
vt 0.3333333 0.4074074
vt 0 0.4074074
vt 0 0.4444444
vt 0.3333333 0.4444444
vt 0.3333333 0.4814815
vt 0 0.4814815
vt 0.3333333 0.5185185
vt 0 0.5185185
vt 0 0.5555556
vt 0.3333333 0.5555556
vt 0.3333333 0.5925926
vt 0 0.5925926
vt 0 0.6296296
vt 0.3333333 0.6296296
vt 0.3333333 0.6666667
vt 0 0.6666667
vt 0 0.7037037
vt 0.3333333 0.7037037
vt 0.3333333 0.7407407
vt 0 0.7407407
vt 0.3333333 0.7777778
vt 0 0.7777778
vt 0 0.8148148
vt 0.3333333 0.8148148
vt 0.3333333 0.8518519
vt 0 0.8518519
vt 0 0.8888889
vt 0.3333333 0.8888889
vt 0.3333333 0.9259259
vt 0 0.9259259
vt 0 0.962963
vt 0.3333333 0.962963
vt 0.3333333 1
vt 0 1
vn -0.3608005 0.9324808 0.01739634
vn -0.3541299 0.9340047 -0.04719472
vn -0.3550684 0.9339339 -0.0411573
vn -0.3609268 0.9324614 0.01573464
vn -0.3473313 0.932065 0.1030333
vn -0.3515637 0.9308283 0.09980831
vn -0.2867941 0.9488492 0.1320395
vn -0.296168 0.9453966 0.1360505
vn -0.2326563 0.9667432 0.1062007
vn -0.2341134 0.9658077 0.1113835
vn -0.2408918 0.96632 0.09053611
vn -0.2346648 0.9682214 0.08648531
vn -0.3075487 0.9469779 0.09298769
vn -0.2984405 0.9506781 0.08452518
vn -0.3700195 0.9196023 0.1319742
vn -0.3650056 0.9233882 0.1188491
vn -0.3879394 0.8967817 0.2128039
vn -0.3885267 0.8995678 0.1995618
vn -0.3610702 0.8780793 0.3140145
vn -0.367879 0.879055 0.3031952
vn -0.2977965 0.8591495 0.4161482
vn -0.3063323 0.8578767 0.4125628
vn -0.1505716 0.8309382 0.5356025
vn -0.1605904 0.8368473 0.523352
vn 0.05644887 0.7815285 0.6213105
vn 0.04860654 0.8001581 0.5978163
vn 0.2229716 0.7567337 0.6145224
vn 0.2187108 0.770209 0.5991191
vn 0.2982897 0.7595586 0.5780087
vn 0.2969596 0.7630278 0.574111
vn 0.3602495 0.7643864 0.5347277
vn 0.3570312 0.7662691 0.5341913
vn 0.4201295 0.7668572 0.4852022
vn 0.4165153 0.7678713 0.486712
vn 0.4642249 0.779899 0.4198247
vn 0.4596669 0.7808169 0.423121
vn 0.492605 0.8132261 0.3098445
vn 0.4888743 0.8141767 0.3132385
vn 0.4859915 0.8507273 0.2001886
vn 0.4831001 0.8522787 0.2005873
vn 0.4540797 0.8854938 0.09855153
vn 0.4516161 0.8865477 0.1003801
vn 0.3998828 0.916555 -0.004549636
vn 0.3986666 0.9170951 -0.001267946
vn 0.3259535 0.9403713 -0.09724299
vn 0.3246779 0.9410216 -0.09519785
vn 0.2545615 0.9549872 -0.1523087
vn 0.2517839 0.9554385 -0.1540847
vn 0.2144688 0.963856 -0.1580655
vn 0.2080324 0.9642474 -0.1641629
vn 0.1886067 0.9706045 -0.1495142
vn 0.1848304 0.9708499 -0.1526049
vn 0.1603012 0.9752772 -0.1521115
vn 0.1598299 0.9753311 -0.1522623
vn 0.1493378 0.976668 -0.1543303
vn 0.1497919 0.9766148 -0.1542269
vn 0.1483258 0.9767858 -0.1545605
vn 0.1577899 0.9753504 -0.1542526
vn 0.1477605 0.9768512 -0.1546889
vn 0.1559519 0.9753316 -0.1562284
vn 0.1682329 0.9715008 -0.166985
vn 0.1745175 0.971368 -0.161208
vn 0.1921036 0.9658542 -0.1738446
vn 0.182172 0.9671469 -0.1773137
vn 0.2402134 0.9579286 -0.1570683
vn 0.232223 0.9599002 -0.157048
vn 0.3083355 0.9463708 -0.09649555
vn 0.3146137 0.9443111 -0.09640958
vn 0.3897964 0.920898 -0.002377264
vn 0.3850644 0.9228881 -0.001710914
vn 0.4427345 0.891317 0.09767313
vn 0.4375 0.8939613 0.09709217
vn 0.4667538 0.8629835 0.1933916
vn 0.4735235 0.8587686 0.1956835
vn 0.4790167 0.8214535 0.3094467
vn 0.4714573 0.8269248 0.3064693
vn 0.4440307 0.791178 0.4205639
vn 0.4506621 0.7863182 0.4226196
vn 0.4091771 0.7714346 0.4873015
vn 0.4040404 0.7743623 0.486944
vn 0.3482327 0.7738101 0.5291048
vn 0.3514091 0.7709335 0.5311998
vn 0.292942 0.7716658 0.5645501
vn 0.2898422 0.7770734 0.5587023
vn 0.2077926 0.7903306 0.5763677
vn 0.2021406 0.7968946 0.5692962
vn 0.03220227 0.8222582 0.5682028
vn 0.03438384 0.8213418 0.5693991
vn -0.1752522 0.8455548 0.5043053
vn -0.1792197 0.8482918 0.4982784
vn -0.31971 0.8737767 0.3664692
vn -0.3158442 0.8637516 0.3926519
vn -0.3718058 0.8844944 0.2818335
vn -0.3714626 0.8896847 0.2654742
vn -0.3936217 0.9035091 0.1695086
vn -0.391124 0.9022511 0.1815626
vn -0.3613993 0.9272554 0.09791819
vn -0.3599018 0.9291047 0.08506051
vn -0.2895371 0.9548344 0.06677981
vn -0.282763 0.9574515 0.05772062
vn -0.2130416 0.9741516 0.07511283
vn -0.2226282 0.9717191 0.07873053
vn -0.2221704 0.9674244 0.1213686
vn -0.2078516 0.9691241 0.13265
vn -0.2769079 0.9459684 0.168718
vn -0.2874153 0.9454483 0.1533621
vn -0.3495127 0.9303424 0.1109225
vn -0.3488163 0.9301106 0.1149848
vn -0.3628907 0.9314194 0.02771554
vn -0.3624912 0.9316469 0.02518137
vn -0.3560835 0.934033 -0.02804998
vn -0.3561825 0.9341896 -0.0205897
g WonderBox_SmokeTrails_0
f 3/3/3 2/2/2 1/1/1
f 4/4/4 3/3/3 1/1/1
f 4/4/4 1/1/1 5/5/5
f 6/6/6 4/4/4 5/5/5
f 6/6/6 5/5/5 7/7/7
f 8/8/8 6/6/6 7/7/7
f 8/8/8 7/7/7 9/9/9
f 10/10/10 8/8/8 9/9/9
f 10/10/10 9/9/9 11/11/11
f 12/12/12 10/10/10 11/11/11
f 12/12/12 11/11/11 13/13/13
f 14/14/14 12/12/12 13/13/13
f 14/14/14 13/13/13 15/15/15
f 16/16/16 14/14/14 15/15/15
f 16/16/16 15/15/15 17/17/17
f 18/18/18 16/16/16 17/17/17
f 18/18/18 17/17/17 19/19/19
f 20/20/20 18/18/18 19/19/19
f 20/20/20 19/19/19 21/21/21
f 22/22/22 20/20/20 21/21/21
f 22/22/22 21/21/21 23/23/23
f 24/24/24 22/22/22 23/23/23
f 24/24/24 23/23/23 25/25/25
f 26/26/26 24/24/24 25/25/25
f 26/26/26 25/25/25 27/27/27
f 28/28/28 26/26/26 27/27/27
f 28/28/28 27/27/27 29/29/29
f 30/30/30 28/28/28 29/29/29
f 30/30/30 29/29/29 31/31/31
f 32/32/32 30/30/30 31/31/31
f 32/32/32 31/31/31 33/33/33
f 34/34/34 32/32/32 33/33/33
f 34/34/34 33/33/33 35/35/35
f 36/36/36 34/34/34 35/35/35
f 36/36/36 35/35/35 37/37/37
f 38/38/38 36/36/36 37/37/37
f 38/38/38 37/37/37 39/39/39
f 40/40/40 38/38/38 39/39/39
f 40/40/40 39/39/39 41/41/41
f 42/42/42 40/40/40 41/41/41
f 42/42/42 41/41/41 43/43/43
f 44/44/44 42/42/42 43/43/43
f 44/44/44 43/43/43 45/45/45
f 46/46/46 44/44/44 45/45/45
f 46/46/46 45/45/45 47/47/47
f 48/48/48 46/46/46 47/47/47
f 48/48/48 47/47/47 49/49/49
f 50/50/50 48/48/48 49/49/49
f 50/50/50 49/49/49 51/51/51
f 52/52/52 50/50/50 51/51/51
f 52/52/52 51/51/51 53/53/53
f 54/54/54 52/52/52 53/53/53
f 54/54/54 53/53/53 55/55/55
f 53/53/53 56/56/56 55/55/55
f 54/54/54 55/55/55 57/57/57
f 58/58/58 54/54/54 57/57/57
f 54/54/54 58/58/58 52/52/52
f 58/58/58 57/57/57 59/59/59
f 60/60/60 58/58/58 59/59/59
f 58/58/58 60/60/60 61/61/61
f 62/62/62 58/58/58 61/61/61
f 58/58/58 62/62/62 52/52/52
f 52/52/52 62/62/62 50/50/50
f 62/62/62 61/61/61 63/63/63
f 62/62/62 63/63/63 50/50/50
f 50/50/50 63/63/63 48/48/48
f 61/61/61 64/64/64 63/63/63
f 63/63/63 64/64/64 65/65/65
f 64/64/64 66/66/66 65/65/65
f 63/63/63 65/65/65 48/48/48
f 65/65/65 66/66/66 67/67/67
f 68/68/68 65/65/65 67/67/67
f 68/68/68 67/67/67 69/69/69
f 67/67/67 70/70/70 69/69/69
f 65/65/65 68/68/68 46/46/46
f 48/48/48 65/65/65 46/46/46
f 68/68/68 69/69/69 44/44/44
f 46/46/46 68/68/68 44/44/44
f 69/69/69 70/70/70 71/71/71
f 70/70/70 72/72/72 71/71/71
f 69/69/69 71/71/71 42/42/42
f 44/44/44 69/69/69 42/42/42
f 71/71/71 72/72/72 73/73/73
f 74/74/74 71/71/71 73/73/73
f 74/74/74 73/73/73 75/75/75
f 73/73/73 76/76/76 75/75/75
f 71/71/71 74/74/74 40/40/40
f 42/42/42 71/71/71 40/40/40
f 74/74/74 75/75/75 38/38/38
f 40/40/40 74/74/74 38/38/38
f 75/75/75 76/76/76 77/77/77
f 78/78/78 75/75/75 77/77/77
f 78/78/78 77/77/77 79/79/79
f 77/77/77 80/80/80 79/79/79
f 75/75/75 78/78/78 36/36/36
f 38/38/38 75/75/75 36/36/36
f 78/78/78 79/79/79 34/34/34
f 36/36/36 78/78/78 34/34/34
f 79/79/79 80/80/80 81/81/81
f 82/82/82 79/79/79 81/81/81
f 82/82/82 81/81/81 83/83/83
f 81/81/81 84/84/84 83/83/83
f 79/79/79 82/82/82 32/32/32
f 34/34/34 79/79/79 32/32/32
f 82/82/82 83/83/83 30/30/30
f 32/32/32 82/82/82 30/30/30
f 83/83/83 84/84/84 85/85/85
f 84/84/84 86/86/86 85/85/85
f 83/83/83 85/85/85 28/28/28
f 30/30/30 83/83/83 28/28/28
f 85/85/85 86/86/86 87/87/87
f 88/88/88 85/85/85 87/87/87
f 88/88/88 87/87/87 89/89/89
f 87/87/87 90/90/90 89/89/89
f 85/85/85 88/88/88 26/26/26
f 28/28/28 85/85/85 26/26/26
f 88/88/88 89/89/89 24/24/24
f 26/26/26 88/88/88 24/24/24
f 89/89/89 90/90/90 91/91/91
f 92/92/92 89/89/89 91/91/91
f 92/92/92 91/91/91 93/93/93
f 91/91/91 94/94/94 93/93/93
f 89/89/89 92/92/92 22/22/22
f 24/24/24 89/89/89 22/22/22
f 92/92/92 93/93/93 20/20/20
f 22/22/22 92/92/92 20/20/20
f 93/93/93 94/94/94 95/95/95
f 96/96/96 93/93/93 95/95/95
f 96/96/96 95/95/95 97/97/97
f 95/95/95 98/98/98 97/97/97
f 93/93/93 96/96/96 18/18/18
f 20/20/20 93/93/93 18/18/18
f 96/96/96 97/97/97 16/16/16
f 18/18/18 96/96/96 16/16/16
f 97/97/97 98/98/98 99/99/99
f 98/98/98 100/100/100 99/99/99
f 97/97/97 99/99/99 14/14/14
f 16/16/16 97/97/97 14/14/14
f 99/99/99 100/100/100 101/101/101
f 102/102/102 99/99/99 101/101/101
f 102/102/102 101/101/101 103/103/103
f 101/101/101 104/104/104 103/103/103
f 99/99/99 102/102/102 12/12/12
f 14/14/14 99/99/99 12/12/12
f 102/102/102 103/103/103 10/10/10
f 12/12/12 102/102/102 10/10/10
f 103/103/103 104/104/104 105/105/105
f 106/106/106 103/103/103 105/105/105
f 106/106/106 105/105/105 107/107/107
f 105/105/105 108/108/108 107/107/107
f 103/103/103 106/106/106 8/8/8
f 10/10/10 103/103/103 8/8/8
f 106/106/106 107/107/107 6/6/6
f 8/8/8 106/106/106 6/6/6
f 107/107/107 108/108/108 109/109/109
f 110/110/110 107/107/107 109/109/109
f 110/110/110 109/109/109 111/111/111
f 109/109/109 112/112/112 111/111/111
f 107/107/107 110/110/110 4/4/4
f 6/6/6 107/107/107 4/4/4
f 110/110/110 111/111/111 3/3/3
f 4/4/4 110/110/110 3/3/3
